<?xml version="1.0" encoding="iso-8859-1"?>
<!-- Generator: Adobe Illustrator 19.0.0, SVG Export Plug-In . SVG Version: 6.00 Build 0)  -->
<svg version="1.1" id="Capa_1" xmlns="http://www.w3.org/2000/svg" xmlns:xlink="http://www.w3.org/1999/xlink" x="0px" y="0px"
	 viewBox="0 0 512 512" style="enable-background:new 0 0 512 512;" xml:space="preserve">
<g>
	<path style="fill:#527F72;" d="M0,61.66L250.341,0.561c8.309-1.485,16.839,0.944,23.119,6.584c6.28,5.64,9.609,13.86,9.023,22.281
		v94.027L0,61.66z"/>
	<path style="fill:#BDC3C7;" d="M512,291.177c0.013,46.828-18.584,91.743-51.697,124.855s-78.027,51.709-124.855,51.697h-26.483
		V335.315h26.483c24.377,0,44.138-19.761,44.138-44.138c0-24.377-19.761-44.138-44.138-44.138h-26.483V114.625l26.483,0
		c46.828-0.013,91.743,18.584,124.855,51.696S512.013,244.349,512,291.177z"/>
	<g>
		<path style="fill:#FFFFFF;" d="M465.569,354.927c-2.963,0.003-5.729-1.482-7.365-3.952c-1.636-2.47-1.923-5.597-0.764-8.324
			c6.91-16.279,10.455-33.789,10.422-51.474c0-4.875,3.952-8.828,8.828-8.828s8.828,3.952,8.828,8.828
			c0.039,20.055-3.982,39.91-11.819,58.371C472.312,352.808,469.112,354.926,465.569,354.927z"/>
		<path style="fill:#FFFFFF;" d="M465.569,245.082c-3.546,0.001-6.749-2.121-8.129-5.388
			c-13.484-31.748-38.761-57.025-70.509-70.509c-2.912-1.224-4.947-3.911-5.338-7.045c-0.391-3.134,0.923-6.238,3.444-8.14
			c2.522-1.902,5.867-2.311,8.773-1.074c35.974,15.273,64.615,43.914,79.888,79.888c1.153,2.726,0.863,5.848-0.772,8.316
			C471.291,243.598,468.529,245.082,465.569,245.082L465.569,245.082z"/>
	</g>
	<path style="fill:#95A5A5;" d="M414.897,291.177c-0.004,43.877-35.572,79.445-79.448,79.448v-35.31
		c24.377,0,44.138-19.761,44.138-44.138s-19.761-44.138-44.138-44.138v-35.31C379.325,211.732,414.893,247.3,414.897,291.177z"/>
	<path style="fill:#4C8056;" d="M308.966,511.867H0V61.66h308.966c14.626,0,26.483,11.857,26.483,26.483v397.241
		C335.448,500.01,323.592,511.867,308.966,511.867z"/>
	<path style="fill:#BDC3C7;" d="M114.759,110.212c-0.013,36.56-29.647,66.194-66.207,66.207
		C30.079,176.462,12.447,168.704,0,155.056V61.66h93.397C107.045,74.107,114.803,91.739,114.759,110.212z"/>
	<g>
		<path style="fill:#71C285;" d="M105.931,467.729c-2.342,0.001-4.588-0.928-6.244-2.584c-1.656-1.656-2.585-3.902-2.584-6.244
			v-26.483c0-4.875,3.952-8.828,8.828-8.828s8.828,3.952,8.828,8.828v26.483c0.001,2.342-0.928,4.588-2.584,6.244
			C110.519,466.8,108.273,467.73,105.931,467.729z"/>
		<path style="fill:#71C285;" d="M229.517,467.729c-2.342,0.001-4.588-0.928-6.244-2.584c-1.656-1.656-2.585-3.902-2.584-6.244
			v-26.483c0-4.875,3.952-8.828,8.828-8.828s8.828,3.952,8.828,8.828v26.483c0.001,2.342-0.928,4.588-2.584,6.244
			C234.105,466.8,231.859,467.73,229.517,467.729z"/>
		<path style="fill:#71C285;" d="M141.241,414.763c-2.342,0.001-4.588-0.928-6.244-2.584c-1.656-1.656-2.585-3.902-2.584-6.244
			v-8.828c0-4.875,3.952-8.828,8.828-8.828c4.875,0,8.828,3.952,8.828,8.828v8.828c0.001,2.342-0.928,4.588-2.584,6.244
			C145.829,413.835,143.583,414.765,141.241,414.763z"/>
		<path style="fill:#71C285;" d="M194.207,414.763c-2.342,0.001-4.588-0.928-6.244-2.584c-1.656-1.656-2.585-3.902-2.584-6.244
			v-8.828c0-4.875,3.952-8.828,8.828-8.828s8.828,3.952,8.828,8.828v8.828c0.001,2.342-0.928,4.588-2.584,6.244
			C198.795,413.835,196.549,414.765,194.207,414.763z"/>
	</g>
	<g>
		<path style="fill:#7F8C8D;" d="M52.966,105.798c-2.348,0.023-4.607-0.899-6.268-2.56c-1.627-1.682-2.544-3.927-2.56-6.268
			c0.014-1.153,0.254-2.293,0.707-3.353c0.446-1.07,1.073-2.056,1.853-2.914c2.083-2.069,5.061-2.965,7.94-2.388
			c0.586,0.086,1.153,0.267,1.681,0.535c0.543,0.174,1.051,0.442,1.5,0.793c0.507,0.304,0.98,0.66,1.415,1.06
			c1.611,1.693,2.525,3.931,2.56,6.268c0.028,1.158-0.214,2.306-0.707,3.353c-0.449,1.069-1.075,2.054-1.854,2.914
			c-0.859,0.778-1.845,1.405-2.914,1.854C55.258,105.544,54.119,105.784,52.966,105.798z"/>
		<path style="fill:#7F8C8D;" d="M26.483,141.108c-1.153-0.014-2.293-0.254-3.353-0.707c-1.081-0.426-2.07-1.055-2.914-1.853
			c-1.661-1.66-2.584-3.919-2.56-6.268c-0.032-1.158,0.21-2.307,0.707-3.353c0.446-1.07,1.073-2.056,1.853-2.914
			c0.418-0.379,0.859-0.733,1.319-1.06c0.493-0.336,1.03-0.603,1.595-0.793c0.5-0.255,1.034-0.435,1.586-0.535
			c1.132-0.259,2.308-0.259,3.44,0c0.586,0.086,1.153,0.267,1.681,0.535c0.563,0.191,1.096,0.457,1.586,0.793
			c0.463,0.327,0.907,0.681,1.328,1.06c0.78,0.858,1.407,1.844,1.854,2.914c1.409,3.284,0.675,7.096-1.854,9.621
			c-0.859,0.778-1.845,1.405-2.914,1.854C28.776,140.854,27.636,141.094,26.483,141.108z"/>
		<path style="fill:#7F8C8D;" d="M70.621,141.108c-3.567-0.008-6.776-2.17-8.121-5.474c-0.497-1.046-0.739-2.196-0.707-3.353
			c0.014-1.153,0.254-2.293,0.707-3.353c0.426-1.081,1.055-2.07,1.853-2.914c2.525-2.546,6.341-3.312,9.653-1.937
			c3.312,1.375,5.463,4.618,5.442,8.204c-0.047,2.309-0.961,4.515-2.56,6.181c-0.834,0.832-1.824,1.492-2.914,1.94
			C72.914,140.854,71.774,141.094,70.621,141.108z"/>
	</g>
	<g>
		<path style="fill:#F0C419;" d="M220.69,176.418c-4.875,0-8.828-3.952-8.828-8.828c0-4.875,3.952-8.828,8.828-8.828
			c14.619-0.016,26.467-11.863,26.483-26.483c0-4.875,3.952-8.828,8.828-8.828s8.828,3.952,8.828,8.828
			C264.799,156.645,245.055,176.39,220.69,176.418z"/>
		<path style="fill:#F0C419;" d="M291.31,176.418h-8.828c-2.391,0.006-4.68-0.966-6.336-2.69
			c-17.388-6.381-28.954-22.926-28.974-41.448c0-4.875,3.952-8.828,8.828-8.828s8.828,3.952,8.828,8.828
			c0.016,14.619,11.863,26.467,26.483,26.483c4.875,0,8.828,3.952,8.828,8.828S296.186,176.418,291.31,176.418z"/>
		<path style="fill:#F0C419;" d="M256,211.729c-2.342,0.001-4.588-0.928-6.244-2.584c-1.656-1.656-2.585-3.902-2.584-6.244
			c-0.016-14.619-11.863-26.467-26.483-26.483c-4.875,0-8.828-3.952-8.828-8.828c0-4.875,3.952-8.828,8.828-8.828
			c24.365,0.029,44.109,19.773,44.138,44.138c0.001,2.342-0.928,4.588-2.584,6.244C260.588,210.8,258.342,211.73,256,211.729z"/>
		<path style="fill:#F0C419;" d="M256,211.729c-2.342,0.001-4.588-0.928-6.244-2.584c-1.656-1.656-2.585-3.902-2.584-6.244
			c0.02-18.522,11.586-35.067,28.974-41.448c1.656-1.724,3.946-2.696,6.336-2.69h8.828c4.875,0,8.828,3.952,8.828,8.828
			c0,4.875-3.952,8.828-8.828,8.828c-14.619,0.016-26.467,11.863-26.483,26.483c0.001,2.342-0.928,4.588-2.584,6.244
			C260.588,210.8,258.342,211.73,256,211.729z"/>
		<path style="fill:#F0C419;" d="M52.966,432.418c-2.342,0.001-4.588-0.928-6.244-2.584c-1.656-1.656-2.585-3.902-2.584-6.244
			v-35.31c0-4.875,3.952-8.828,8.828-8.828s8.828,3.952,8.828,8.828v35.31c0.001,2.342-0.928,4.588-2.584,6.244
			C57.553,431.49,55.307,432.42,52.966,432.418z"/>
		<path style="fill:#F0C419;" d="M70.621,414.763H35.31c-4.875,0-8.828-3.952-8.828-8.828c0-4.875,3.952-8.828,8.828-8.828h35.31
			c4.875,0,8.828,3.952,8.828,8.828C79.448,410.811,75.496,414.763,70.621,414.763z"/>
		<path style="fill:#F0C419;" d="M70.621,264.694c-2.342,0.001-4.588-0.928-6.244-2.584c-1.656-1.656-2.585-3.902-2.584-6.244
			v-35.31c0-4.875,3.952-8.828,8.828-8.828c4.875,0,8.828,3.952,8.828,8.828v35.31c0.001,2.342-0.928,4.588-2.584,6.244
			C75.208,263.766,72.962,264.696,70.621,264.694z"/>
		<path style="fill:#F0C419;" d="M88.276,247.039h-35.31c-4.875,0-8.828-3.952-8.828-8.828s3.952-8.828,8.828-8.828h35.31
			c4.875,0,8.828,3.952,8.828,8.828S93.151,247.039,88.276,247.039z"/>
		<path style="fill:#F0C419;" d="M167.724,149.936c-2.342,0.001-4.588-0.928-6.244-2.584c-1.656-1.656-2.585-3.902-2.584-6.244
			v-35.31c0-4.875,3.952-8.828,8.828-8.828s8.828,3.952,8.828,8.828v35.31c0.001,2.342-0.928,4.588-2.584,6.244
			C172.312,149.007,170.066,149.937,167.724,149.936z"/>
		<path style="fill:#F0C419;" d="M185.379,132.28h-35.31c-4.875,0-8.828-3.952-8.828-8.828s3.952-8.828,8.828-8.828h35.31
			c4.875,0,8.828,3.952,8.828,8.828S190.255,132.28,185.379,132.28z"/>
		<path style="fill:#F0C419;" d="M282.483,361.798c-2.342,0.001-4.588-0.928-6.244-2.584c-1.656-1.656-2.585-3.902-2.584-6.244
			v-35.31c0-4.875,3.952-8.828,8.828-8.828s8.828,3.952,8.828,8.828v35.31c0.001,2.342-0.928,4.588-2.584,6.244
			C287.07,360.869,284.824,361.799,282.483,361.798z"/>
		<path style="fill:#F0C419;" d="M300.138,344.143h-35.31c-4.875,0-8.828-3.952-8.828-8.828s3.952-8.828,8.828-8.828h35.31
			c4.875,0,8.828,3.952,8.828,8.828S305.013,344.143,300.138,344.143z"/>
	</g>
	<polygon style="fill:#ECF0F1;" points="194.207,264.694 194.207,344.143 141.241,344.143 141.241,264.694 167.724,202.901 	"/>
	<g>
		<polygon style="fill:#BDC3C7;" points="141.241,291.177 141.241,344.143 105.931,388.28 105.931,326.487 		"/>
		<polygon style="fill:#BDC3C7;" points="229.517,326.487 229.517,388.28 194.207,344.143 194.207,291.177 		"/>
	</g>
	<g>
		<path style="fill:#ECF0F1;" d="M105.931,397.108c-2.341,0.001-4.587-0.929-6.243-2.585c-1.656-1.656-2.585-3.901-2.585-6.243
			V282.349c0-4.875,3.952-8.828,8.828-8.828s8.828,3.952,8.828,8.828V388.28c0.001,2.341-0.929,4.587-2.585,6.243
			C110.518,396.179,108.272,397.109,105.931,397.108z"/>
		<path style="fill:#ECF0F1;" d="M229.517,397.108c-2.341,0.001-4.587-0.929-6.243-2.585c-1.656-1.656-2.585-3.901-2.585-6.243
			V282.349c0-4.875,3.952-8.828,8.828-8.828s8.828,3.952,8.828,8.828V388.28c0.001,2.341-0.929,4.587-2.585,6.243
			C234.104,396.179,231.859,397.109,229.517,397.108z"/>
	</g>
</g>
<g>
</g>
<g>
</g>
<g>
</g>
<g>
</g>
<g>
</g>
<g>
</g>
<g>
</g>
<g>
</g>
<g>
</g>
<g>
</g>
<g>
</g>
<g>
</g>
<g>
</g>
<g>
</g>
<g>
</g>
</svg>
