<?xml version="1.0" encoding="iso-8859-1"?>
<!-- Generator: Adobe Illustrator 19.0.0, SVG Export Plug-In . SVG Version: 6.00 Build 0)  -->
<svg version="1.1" id="Capa_1" xmlns="http://www.w3.org/2000/svg" xmlns:xlink="http://www.w3.org/1999/xlink" x="0px" y="0px"
	 viewBox="0 0 512 512" style="enable-background:new 0 0 512 512;" xml:space="preserve">
<g>
	<path style="fill:#67B9CC;" d="M512,35.31v353.103H0L0,35.31c-0.003-9.366,3.717-18.349,10.339-24.971S25.945-0.003,35.31,0H476.69
		c9.366-0.003,18.349,3.717,24.971,10.339C508.283,16.962,512.003,25.945,512,35.31z"/>
	<path style="fill:#ECF0F1;" d="M450.163,159.337c0.002-0.15,0.044-0.289,0.044-0.44c0-19.501-15.809-35.31-35.31-35.31
		s-35.31,15.809-35.31,35.31c0,0.151,0.043,0.29,0.044,0.44c-11.114,2.244-18.718,12.545-17.59,23.826
		c1.128,11.282,10.622,19.873,21.96,19.871h61.793c11.338,0.001,20.832-8.59,21.96-19.871
		C468.881,171.881,461.276,161.581,450.163,159.337z"/>
	<rect x="185.379" y="423.724" style="fill:#BDC3C7;" width="141.241" height="70.621"/>
	<g>
		<path style="fill:#95A5A5;" d="M512,370.759v35.31c0.003,9.366-3.717,18.348-10.339,24.971
			c-6.623,6.622-15.605,10.342-24.971,10.339H35.31c-9.366,0.003-18.348-3.717-24.971-10.339C3.717,424.417-0.003,415.435,0,406.069
			l0-35.31H512z"/>
		<rect x="114.759" y="476.69" style="fill:#95A5A5;" width="282.483" height="35.31"/>
	</g>
	
		<rect x="394.364" y="64.699" transform="matrix(-0.7071 0.7071 -0.7071 -0.7071 767.8224 -135.7179)" style="fill:#D1D4D1;" width="35.31" height="52.93"/>
	
		<rect x="279.02" y="127.087" transform="matrix(-0.7071 0.7071 -0.7071 -0.7071 705.4128 14.9094)" style="fill:#F0C419;" width="141.197" height="52.93"/>
	<path style="fill:#CC4B4C;" d="M461.948,78.654l-18.715,18.714l-37.429-37.429l18.716-18.714c6.686-6.686,16.431-9.297,25.565-6.85
		c9.133,2.447,16.267,9.581,18.714,18.714S468.635,71.968,461.948,78.654L461.948,78.654z"/>
	<polyline style="fill:#FDD7AD;" points="318.42,222.208 256,247.172 280.964,184.753 	"/>
	<rect x="0" y="300.138" style="fill:#CB8252;" width="512" height="70.621"/>
	<g>
		<path style="fill:#14A085;" d="M114.759,300.138h44.138v13.241c0,12.188-9.881,22.069-22.069,22.069s-22.069-9.881-22.069-22.069
			V300.138z"/>
		<path style="fill:#14A085;" d="M8.828,300.138h44.138v13.241c0,5.853-2.325,11.466-6.464,15.605
			c-4.139,4.139-9.752,6.464-15.605,6.464c-12.188,0-22.069-9.881-22.069-22.069V300.138z"/>
		<path style="fill:#14A085;" d="M158.897,300.138h44.138v13.241c0,5.853-2.325,11.466-6.464,15.605
			c-4.139,4.139-9.752,6.464-15.605,6.464c-12.188,0-22.069-9.881-22.069-22.069V300.138z"/>
		<path style="fill:#14A085;" d="M203.034,300.138h44.138v13.241c0,12.188-9.881,22.069-22.069,22.069
			c-12.188,0-22.069-9.881-22.069-22.069V300.138z"/>
		<path style="fill:#14A085;" d="M247.172,300.138h44.138v13.241c0,12.188-9.881,22.069-22.069,22.069
			c-12.188,0-22.069-9.881-22.069-22.069V300.138z"/>
		<path style="fill:#14A085;" d="M291.31,300.138h44.138v13.241c0,12.188-9.881,22.069-22.069,22.069
			c-12.188,0-22.069-9.881-22.069-22.069V300.138z"/>
		<path style="fill:#14A085;" d="M335.448,300.138h44.138v13.241c0,12.188-9.881,22.069-22.069,22.069s-22.069-9.881-22.069-22.069
			V300.138z"/>
		<path style="fill:#14A085;" d="M379.586,300.138h44.138v13.241c0,12.188-9.881,22.069-22.069,22.069
			c-12.188,0-22.069-9.881-22.069-22.069V300.138z"/>
		<path style="fill:#14A085;" d="M423.724,300.138h44.138v13.241c0,12.188-9.881,22.069-22.069,22.069
			c-12.188,0-22.069-9.881-22.069-22.069V300.138z"/>
		<path style="fill:#14A085;" d="M467.862,300.138H512v13.241c0,12.188-9.881,22.069-22.069,22.069
			c-12.188,0-22.069-9.881-22.069-22.069V300.138z"/>
	</g>
	<path style="fill:#ECF0F1;" d="M247.128,88.716c0.002-0.15,0.044-0.289,0.044-0.44c0-19.501-15.809-35.31-35.31-35.31
		s-35.31,15.809-35.31,35.31c0,0.151,0.043,0.29,0.044,0.44c-11.114,2.244-18.718,12.545-17.59,23.826
		c1.128,11.282,10.622,19.873,21.96,19.871h61.793c11.338,0.001,20.832-8.59,21.96-19.871
		C265.846,101.261,258.242,90.96,247.128,88.716z"/>
	<path style="fill:#F09372;" d="M167.724,185.379h17.655c4.875,0,8.828,3.952,8.828,8.828v17.655c0,4.875-3.952,8.828-8.828,8.828
		h-17.655c-4.875,0-8.828-3.952-8.828-8.828v-17.655C158.897,189.332,162.849,185.379,167.724,185.379z"/>
	<path style="fill:#F0785A;" d="M203.034,185.379h17.655c4.875,0,8.828,3.952,8.828,8.828v17.655c0,4.875-3.952,8.828-8.828,8.828
		h-17.655c-4.875,0-8.828-3.952-8.828-8.828v-17.655C194.207,189.332,198.159,185.379,203.034,185.379z"/>
	<path style="fill:#F0C419;" d="M114.759,61.793v308.966H52.966V61.793c0.014-4.869,3.958-8.813,8.828-8.828h44.138
		C110.801,52.98,114.745,56.924,114.759,61.793z"/>
	<g>
		<path style="fill:#E57E25;" d="M114.759,79.448v17.655H88.276c-4.875,0-8.828-3.952-8.828-8.828c0-4.875,3.952-8.828,8.828-8.828
			H114.759z"/>
		<path style="fill:#E57E25;" d="M114.759,114.759v17.655H88.276c-4.875,0-8.828-3.952-8.828-8.828c0-4.875,3.952-8.828,8.828-8.828
			H114.759z"/>
		<path style="fill:#E57E25;" d="M114.759,150.069v17.655H88.276c-4.875,0-8.828-3.952-8.828-8.828c0-4.875,3.952-8.828,8.828-8.828
			H114.759z"/>
		<path style="fill:#E57E25;" d="M114.759,185.379v17.655H88.276c-4.875,0-8.828-3.952-8.828-8.828s3.952-8.828,8.828-8.828H114.759
			z"/>
		<path style="fill:#E57E25;" d="M114.759,220.69v17.655H88.276c-4.875,0-8.828-3.952-8.828-8.828s3.952-8.828,8.828-8.828H114.759z
			"/>
		<path style="fill:#E57E25;" d="M114.759,256v17.655H88.276c-4.875,0-8.828-3.952-8.828-8.828S83.401,256,88.276,256H114.759z"/>
		<path style="fill:#E57E25;" d="M114.759,291.31v17.655H88.276c-4.875,0-8.828-3.952-8.828-8.828s3.952-8.828,8.828-8.828H114.759z
			"/>
		<path style="fill:#E57E25;" d="M114.759,326.621v17.655H88.276c-4.875,0-8.828-3.952-8.828-8.828s3.952-8.828,8.828-8.828H114.759
			z"/>
	</g>
</g>
<g>
</g>
<g>
</g>
<g>
</g>
<g>
</g>
<g>
</g>
<g>
</g>
<g>
</g>
<g>
</g>
<g>
</g>
<g>
</g>
<g>
</g>
<g>
</g>
<g>
</g>
<g>
</g>
<g>
</g>
</svg>
