<?xml version="1.0" encoding="iso-8859-1"?>
<!-- Generator: Adobe Illustrator 19.0.0, SVG Export Plug-In . SVG Version: 6.00 Build 0)  -->
<svg version="1.1" id="Capa_1" xmlns="http://www.w3.org/2000/svg" xmlns:xlink="http://www.w3.org/1999/xlink" x="0px" y="0px"
	 viewBox="0 0 512.002 512.002" style="enable-background:new 0 0 512.002 512.002;" xml:space="preserve">
<g>
	<path style="fill:#BDC3C7;" d="M233.482,273.655H35.311v194.207C35.563,492.486,55.726,512.246,80.35,512h108.093
		c24.624,0.246,44.787-19.514,45.038-44.138c0.1-9.85,8.166-17.754,18.015-17.655h9.008c9.85-0.099,17.915,7.805,18.016,17.655
		c0.251,24.624,20.414,44.384,45.038,44.138h108.094c24.624,0.246,44.787-19.514,45.038-44.138V273.655H233.482z"/>
	<path style="fill:#65DDB9;" d="M44.139,0l432.552,0c9.366-0.003,18.348,3.717,24.971,10.339
		c6.622,6.623,10.342,15.605,10.339,24.971v229.517c0.003,9.366-3.717,18.348-10.339,24.971
		c-6.623,6.623-15.605,10.342-24.971,10.339H44.139V0z"/>
	<g>
		<path style="fill:#95A5A5;" d="M35.311,0l35.31,0v300.138h-35.31c-9.366,0.003-18.349-3.717-24.971-10.339
			c-6.623-6.623-10.342-15.605-10.339-24.971V35.31c-0.003-9.366,3.717-18.349,10.339-24.971S25.946-0.003,35.311,0z"/>
		<path style="fill:#95A5A5;" d="M476.691,0l-35.31,0v300.138h35.31c9.366,0.003,18.349-3.717,24.971-10.339
			c6.623-6.623,10.342-15.605,10.339-24.971V35.31c0.003-9.366-3.717-18.349-10.339-24.971C495.039,3.717,486.056-0.003,476.691,0z"
			/>
	</g>
	<g>
		<path style="fill:#5E5F62;" d="M44.139,123.586v52.966c0,4.875-3.952,8.828-8.828,8.828s-8.828-3.952-8.828-8.828v-52.966
			c0-4.875,3.952-8.828,8.828-8.828S44.139,118.711,44.139,123.586z"/>
		<path style="fill:#5E5F62;" d="M44.139,61.793v8.828c0,4.875-3.952,8.828-8.828,8.828s-8.828-3.952-8.828-8.828v-8.828
			c0-4.875,3.952-8.828,8.828-8.828S44.139,56.918,44.139,61.793z"/>
		<path style="fill:#5E5F62;" d="M44.139,35.31c0.023,2.348-0.9,4.607-2.56,6.267c-1.66,1.66-3.919,2.583-6.267,2.56
			c-2.338-0.031-4.577-0.945-6.268-2.56c-2.019-2.113-2.905-5.064-2.383-7.94c0.081-0.586,0.259-1.154,0.526-1.681
			c0.177-0.542,0.447-1.05,0.797-1.5c0.303-0.507,0.658-0.982,1.06-1.415c1.693-1.611,3.931-2.525,6.268-2.56
			c0.592,0.013,1.181,0.074,1.763,0.181c0.554,0.093,1.09,0.27,1.59,0.526c0.562,0.194,1.097,0.461,1.591,0.793
			c0.44,0.353,0.879,0.707,1.323,1.06c0.401,0.433,0.755,0.907,1.056,1.414c0.351,0.45,0.62,0.958,0.797,1.5
			c0.266,0.528,0.446,1.096,0.53,1.681C44.064,34.19,44.123,34.749,44.139,35.31z"/>
		<path style="fill:#5E5F62;" d="M476.691,167.724c-2.342,0.001-4.588-0.928-6.244-2.584s-2.585-3.902-2.584-6.244v-17.655
			c0-4.875,3.952-8.828,8.828-8.828s8.828,3.952,8.828,8.828v17.655c0.001,2.342-0.928,4.588-2.584,6.244
			C481.279,166.796,479.032,167.725,476.691,167.724z"/>
	</g>
	<path style="fill:#E6E7E8;" d="M179.078,388.414H150.07v-29.007c-0.002-3.48-2.823-6.301-6.303-6.303h-22.705
		c-3.48,0.002-6.301,2.823-6.303,6.303v29.007H85.752c-3.48,0.002-6.301,2.823-6.303,6.303v22.705
		c0.002,3.48,2.823,6.301,6.303,6.303h29.007v29.007c0.002,3.48,2.823,6.301,6.303,6.303h22.705c3.48-0.002,6.301-2.823,6.303-6.303
		v-29.007h29.007c3.48-0.002,6.301-2.823,6.303-6.303v-22.705C185.378,391.237,182.558,388.416,179.078,388.414z"/>
	<circle style="fill:#14A085;" cx="370.76" cy="361.931" r="17.655"/>
	<circle style="fill:#2FA8CC;" cx="370.76" cy="450.207" r="17.655"/>
	<circle style="fill:#E57E25;" cx="414.898" cy="406.069" r="17.655"/>
	<circle style="fill:#CC66A1;" cx="326.622" cy="406.069" r="17.655"/>
	<path style="fill:#46B29D;" d="M370.76,0l-38.844,46.613c-3.354,4.025-8.323,6.353-13.563,6.353H193.65
		c-5.24,0-10.209-2.327-13.563-6.353L141.243,0H370.76z"/>
	<g>
		<path style="fill:#E6E7E8;" d="M238.346,361.931h-17.655c-4.875,0-8.828-3.952-8.828-8.828s3.952-8.828,8.828-8.828h17.655
			c4.875,0,8.828,3.952,8.828,8.828S243.221,361.931,238.346,361.931z"/>
		<path style="fill:#E6E7E8;" d="M291.311,361.931h-17.655c-4.875,0-8.828-3.952-8.828-8.828s3.952-8.828,8.828-8.828h17.655
			c4.875,0,8.828,3.952,8.828,8.828S296.187,361.931,291.311,361.931z"/>
	</g>
	<path style="fill:#E64C3C;" d="M308.967,150.069h-0.797c-3.785-22.181-21.16-39.555-43.341-43.341v-0.797
		c0-4.875-3.952-8.828-8.828-8.828s-8.828,3.952-8.828,8.828v0.797c-22.181,3.785-39.555,21.16-43.341,43.341h-0.797
		c-4.875,0-8.828,3.952-8.828,8.828c0,4.875,3.952,8.828,8.828,8.828h0.797c3.785,22.181,21.16,39.555,43.341,43.341v0.797
		c0,4.875,3.952,8.828,8.828,8.828s8.828-3.952,8.828-8.828v-0.797c22.181-3.785,39.555-21.16,43.341-43.341h0.797
		c4.875,0,8.828-3.952,8.828-8.828C317.794,154.021,313.842,150.069,308.967,150.069z M264.829,192.953v-7.574
		c0-4.875-3.952-8.828-8.828-8.828s-8.828,3.952-8.828,8.828v7.574c-12.359-3.219-22.011-12.87-25.229-25.229h7.574
		c4.875,0,8.828-3.952,8.828-8.828c0-4.875-3.952-8.828-8.828-8.828h-7.574c3.219-12.359,12.87-22.011,25.229-25.229v7.574
		c0,4.875,3.952,8.828,8.828,8.828s8.828-3.952,8.828-8.828v-7.574c12.359,3.219,22.011,12.87,25.229,25.229h-7.574
		c-4.875,0-8.828,3.952-8.828,8.828c0,4.875,3.952,8.828,8.828,8.828h7.574C286.839,180.083,277.188,189.735,264.829,192.953z"/>
</g>
<g>
</g>
<g>
</g>
<g>
</g>
<g>
</g>
<g>
</g>
<g>
</g>
<g>
</g>
<g>
</g>
<g>
</g>
<g>
</g>
<g>
</g>
<g>
</g>
<g>
</g>
<g>
</g>
<g>
</g>
</svg>
