<?xml version="1.0" encoding="iso-8859-1"?>
<!-- Generator: Adobe Illustrator 19.0.0, SVG Export Plug-In . SVG Version: 6.00 Build 0)  -->
<svg version="1.1" id="Capa_1" xmlns="http://www.w3.org/2000/svg" xmlns:xlink="http://www.w3.org/1999/xlink" x="0px" y="0px"
	 viewBox="0 0 512 512" style="enable-background:new 0 0 512 512;" xml:space="preserve">
<g>
	<rect x="70.621" y="35.31" style="fill:#2FA8CC;" width="370.759" height="441.379"/>
	<g>
		<path style="fill:#95A5A5;" d="M441.379,35.31v17.655H70.621V35.31c-0.003-9.366,3.717-18.349,10.339-24.971
			C87.582,3.717,96.565-0.003,105.931,0h300.138c9.366-0.003,18.349,3.717,24.971,10.339
			C437.663,16.962,441.382,25.945,441.379,35.31z"/>
		<path style="fill:#95A5A5;" d="M441.379,459.034v17.655c0.003,9.366-3.717,18.348-10.339,24.971
			c-6.623,6.622-15.605,10.342-24.971,10.339H105.931c-9.366,0.003-18.348-3.717-24.971-10.339
			c-6.623-6.623-10.342-15.605-10.339-24.971v-17.655H441.379z"/>
	</g>
	<path style="fill:#5E5F62;" d="M264.828,494.345h-17.655c-4.875,0-8.828-3.952-8.828-8.828s3.952-8.828,8.828-8.828h17.655
		c4.875,0,8.828,3.952,8.828,8.828S269.703,494.345,264.828,494.345z"/>
	<path style="fill:#F0C419;" d="M88.276,388.414h35.31c9.751,0,17.655,7.905,17.655,17.655v35.31
		c0,9.751-7.904,17.655-17.655,17.655h-35.31c-9.751,0-17.655-7.905-17.655-17.655v-35.31
		C70.621,396.318,78.525,388.414,88.276,388.414z"/>
	<path style="fill:#E57E25;" d="M105.931,432.552c-1.153-0.014-2.293-0.254-3.353-0.707c-1.081-0.426-2.07-1.055-2.914-1.854
		c-1.661-1.66-2.584-3.919-2.56-6.267c0.031-2.338,0.945-4.577,2.56-6.268c0.418-0.379,0.859-0.733,1.319-1.06
		c0.493-0.336,1.03-0.603,1.595-0.793c0.5-0.255,1.034-0.435,1.586-0.535c2.908-0.577,5.914,0.316,8.035,2.388
		c0.78,0.858,1.407,1.844,1.854,2.914c1.163,2.715,0.876,5.833-0.762,8.29C111.652,431.117,108.884,432.581,105.931,432.552z"/>
	<path style="fill:#F29C1F;" d="M158.897,388.414h35.31c9.751,0,17.655,7.905,17.655,17.655v35.31
		c0,9.751-7.904,17.655-17.655,17.655h-35.31c-9.751,0-17.655-7.905-17.655-17.655v-35.31
		C141.241,396.318,149.146,388.414,158.897,388.414z"/>
	<path style="fill:#E57E25;" d="M176.552,432.552c-2.953,0.031-5.722-1.433-7.361-3.89c-1.638-2.457-1.924-5.576-0.76-8.291
		c0.447-1.07,1.074-2.056,1.854-2.914c2.083-2.069,5.061-2.965,7.94-2.388c0.586,0.086,1.153,0.267,1.681,0.534
		c0.543,0.174,1.051,0.442,1.5,0.793c0.495,0.283,0.942,0.641,1.328,1.06c1.669,1.662,2.619,3.912,2.646,6.267
		c0.028,2.366-0.931,4.637-2.647,6.268C181.067,431.591,178.86,432.505,176.552,432.552z"/>
	<path style="fill:#F0C419;" d="M158.897,317.793h35.31c9.751,0,17.655,7.905,17.655,17.655v35.31
		c0,9.751-7.904,17.655-17.655,17.655h-35.31c-9.751,0-17.655-7.904-17.655-17.655v-35.31
		C141.241,325.698,149.146,317.793,158.897,317.793z"/>
	<path style="fill:#E57E25;" d="M176.552,361.931c-1.153-0.014-2.293-0.254-3.353-0.707c-1.07-0.447-2.056-1.074-2.914-1.854
		c-1.661-1.66-2.584-3.919-2.56-6.267c0.031-2.338,0.945-4.577,2.56-6.268c0.418-0.379,0.859-0.733,1.319-1.06
		c0.493-0.336,1.03-0.603,1.595-0.793c0.5-0.255,1.034-0.435,1.586-0.535c2.909-0.59,5.921,0.305,8.035,2.388
		c0.799,0.844,1.428,1.833,1.854,2.914c1.409,3.284,0.675,7.096-1.854,9.621c-0.859,0.778-1.845,1.405-2.914,1.854
		C178.844,361.677,177.705,361.917,176.552,361.931z"/>
	<path style="fill:#F29C1F;" d="M88.276,317.793h35.31c9.751,0,17.655,7.905,17.655,17.655v35.31
		c0,9.751-7.904,17.655-17.655,17.655h-35.31c-9.751,0-17.655-7.904-17.655-17.655v-35.31
		C70.621,325.698,78.525,317.793,88.276,317.793z"/>
	<path style="fill:#E57E25;" d="M105.931,361.931c-2.953,0.031-5.722-1.433-7.361-3.89s-1.924-5.576-0.76-8.291
		c0.405-1.091,1.037-2.085,1.854-2.914c0.418-0.379,0.859-0.733,1.319-1.06c0.493-0.336,1.03-0.603,1.595-0.793
		c0.5-0.255,1.034-0.435,1.586-0.534c1.132-0.259,2.308-0.259,3.44,0c0.586,0.086,1.153,0.267,1.681,0.534
		c0.543,0.174,1.051,0.442,1.5,0.793c0.506,0.304,0.98,0.659,1.414,1.06c0.799,0.844,1.428,1.833,1.854,2.914
		c1.163,2.715,0.876,5.833-0.762,8.29C111.652,360.497,108.884,361.96,105.931,361.931z"/>
	<path style="fill:#F0C419;" d="M88.276,247.172h35.31c9.751,0,17.655,7.904,17.655,17.655v35.31
		c0,9.751-7.904,17.655-17.655,17.655h-35.31c-9.751,0-17.655-7.904-17.655-17.655v-35.31
		C70.621,255.077,78.525,247.172,88.276,247.172z"/>
	<path style="fill:#E57E25;" d="M105.931,291.31c-2.953,0.031-5.722-1.433-7.361-3.89c-1.638-2.457-1.924-5.576-0.76-8.291
		c0.426-1.081,1.055-2.07,1.854-2.914c0.418-0.379,0.859-0.733,1.319-1.06c0.513-0.329,1.045-0.625,1.595-0.888
		c0.518-0.182,1.048-0.329,1.586-0.44c2.908-0.577,5.913,0.316,8.035,2.388c0.78,0.858,1.407,1.844,1.854,2.914
		c0.943,2.136,0.943,4.571,0,6.707c-0.449,1.069-1.075,2.054-1.854,2.914C110.536,290.408,108.279,291.33,105.931,291.31z"/>
	<path style="fill:#CC66A1;" d="M423.724,459.034h-35.31c-9.751,0-17.655-7.905-17.655-17.655v-35.31
		c0-9.751,7.905-17.655,17.655-17.655h35.31c9.751,0,17.655,7.905,17.655,17.655v35.31
		C441.379,451.13,433.475,459.034,423.724,459.034z"/>
	<path style="fill:#804169;" d="M406.069,432.552c-1.153-0.014-2.293-0.254-3.353-0.707c-1.07-0.447-2.056-1.074-2.914-1.854
		c-1.661-1.66-2.584-3.919-2.56-6.267c0.031-2.338,0.945-4.577,2.56-6.268c0.418-0.379,0.859-0.733,1.319-1.06
		c0.493-0.336,1.03-0.603,1.595-0.793c0.5-0.255,1.034-0.435,1.586-0.535c2.908-0.577,5.914,0.316,8.035,2.388
		c0.78,0.858,1.407,1.844,1.854,2.914c1.163,2.715,0.876,5.833-0.762,8.29C411.79,431.117,409.022,432.581,406.069,432.552z"/>
	<path style="fill:#955BA5;" d="M353.103,459.034h-35.31c-9.751,0-17.655-7.905-17.655-17.655v-35.31
		c0-9.751,7.904-17.655,17.655-17.655h35.31c9.751,0,17.655,7.905,17.655,17.655v35.31
		C370.759,451.13,362.854,459.034,353.103,459.034z"/>
	<path style="fill:#804169;" d="M335.448,432.552c-2.348,0.023-4.607-0.9-6.267-2.56c-1.66-1.661-2.583-3.919-2.56-6.267
		c0.031-2.338,0.945-4.577,2.56-6.268c0.418-0.379,0.859-0.733,1.319-1.06c0.493-0.336,1.03-0.603,1.595-0.793
		c0.5-0.255,1.034-0.435,1.586-0.535c2.908-0.577,5.914,0.316,8.035,2.388c0.78,0.858,1.407,1.844,1.854,2.914
		c1.163,2.715,0.876,5.833-0.762,8.29C341.169,431.117,338.401,432.581,335.448,432.552z"/>
	<path style="fill:#955BA5;" d="M423.724,388.414h-35.31c-9.751,0-17.655-7.904-17.655-17.655v-35.31
		c0-9.751,7.905-17.655,17.655-17.655h35.31c9.751,0,17.655,7.905,17.655,17.655v35.31
		C441.379,380.509,433.475,388.414,423.724,388.414z"/>
	<path style="fill:#804169;" d="M406.069,361.931c-2.953,0.031-5.722-1.433-7.361-3.89c-1.638-2.457-1.924-5.576-0.76-8.291
		c0.426-1.081,1.055-2.07,1.854-2.914c2.114-2.084,5.126-2.979,8.035-2.388c0.552,0.101,1.086,0.281,1.586,0.534
		c0.543,0.174,1.051,0.442,1.5,0.793c0.506,0.304,0.98,0.659,1.414,1.06c1.611,1.693,2.525,3.931,2.56,6.268
		c0.02,2.348-0.902,4.605-2.56,6.268c-0.859,0.778-1.845,1.405-2.914,1.854C408.362,361.677,407.222,361.917,406.069,361.931z"/>
	<path style="fill:#CC66A1;" d="M423.724,317.793h-35.31c-9.751,0-17.655-7.904-17.655-17.655v-35.31
		c0-9.751,7.905-17.655,17.655-17.655h35.31c9.751,0,17.655,7.905,17.655,17.655v35.31
		C441.379,309.889,433.475,317.793,423.724,317.793z"/>
	<path style="fill:#804169;" d="M406.069,291.31c-2.348,0.023-4.607-0.899-6.268-2.56c-0.776-0.881-1.431-1.86-1.948-2.914
		c-0.422-1.067-0.63-2.207-0.612-3.354c-0.032-1.158,0.21-2.307,0.707-3.353c0.426-1.081,1.055-2.07,1.854-2.914
		c0.864-0.797,1.847-1.454,2.914-1.948c1.598-0.626,3.343-0.779,5.026-0.44c0.572,0.099,1.134,0.246,1.681,0.44
		c0.547,0.263,1.076,0.559,1.586,0.888c0.463,0.327,0.906,0.681,1.328,1.06c0.799,0.844,1.428,1.833,1.854,2.914
		c0.943,2.136,0.943,4.571,0,6.707c-0.804,2.217-2.55,3.963-4.767,4.767C408.362,291.056,407.223,291.296,406.069,291.31z"/>
	<path style="fill:#E64C3C;" d="M264.828,88.276h35.31c9.751,0,17.655,7.904,17.655,17.655v35.31
		c0,9.751-7.904,17.655-17.655,17.655h-35.31c-9.751,0-17.655-7.904-17.655-17.655v-35.31
		C247.172,96.18,255.077,88.276,264.828,88.276z"/>
	<path style="fill:#802D40;" d="M282.483,132.414c-1.153-0.014-2.293-0.254-3.353-0.707c-1.07-0.447-2.056-1.074-2.914-1.854
		c-0.776-0.881-1.431-1.86-1.948-2.914c-0.422-1.067-0.63-2.206-0.612-3.353c-0.032-1.158,0.21-2.307,0.707-3.353
		c0.447-1.07,1.074-2.056,1.854-2.914c0.844-0.799,1.833-1.428,2.914-1.854c1.609-0.708,3.4-0.895,5.121-0.535
		c0.552,0.101,1.086,0.281,1.586,0.535c0.543,0.174,1.051,0.442,1.5,0.793c0.495,0.283,0.942,0.641,1.328,1.06
		c0.853,0.817,1.515,1.812,1.94,2.914c0.943,2.136,0.943,4.571,0,6.707c-0.448,1.09-1.107,2.08-1.94,2.914
		C287.045,131.523,284.808,132.449,282.483,132.414z"/>
	<path style="fill:#CC4B4C;" d="M335.448,88.276h35.31c9.751,0,17.655,7.904,17.655,17.655v35.31
		c0,9.751-7.904,17.655-17.655,17.655h-35.31c-9.751,0-17.655-7.904-17.655-17.655v-35.31
		C317.793,96.18,325.698,88.276,335.448,88.276z"/>
	<path style="fill:#802D40;" d="M353.103,132.414c-1.153-0.014-2.293-0.254-3.353-0.707c-1.07-0.447-2.056-1.074-2.914-1.854
		c-0.776-0.881-1.431-1.86-1.948-2.914c-0.422-1.067-0.63-2.206-0.612-3.353c-0.032-1.158,0.21-2.307,0.707-3.353
		c0.447-1.07,1.074-2.056,1.854-2.914c0.418-0.379,0.859-0.733,1.319-1.06c0.493-0.336,1.03-0.603,1.595-0.793
		c0.5-0.255,1.034-0.435,1.586-0.535c1.132-0.259,2.308-0.259,3.44,0c0.586,0.086,1.153,0.267,1.681,0.535
		c0.543,0.174,1.051,0.442,1.5,0.793c0.506,0.304,0.98,0.659,1.414,1.06c0.78,0.858,1.407,1.844,1.854,2.914
		c0.943,2.136,0.943,4.571,0,6.707c-0.449,1.069-1.075,2.054-1.854,2.914C357.709,131.511,355.451,132.434,353.103,132.414z"/>
	<path style="fill:#CC4B4C;" d="M264.828,158.897h35.31c9.751,0,17.655,7.904,17.655,17.655v35.31
		c0,9.751-7.904,17.655-17.655,17.655h-35.31c-9.751,0-17.655-7.904-17.655-17.655v-35.31
		C247.172,166.801,255.077,158.897,264.828,158.897z"/>
	<path style="fill:#802D40;" d="M282.483,203.034c-2.351-0.047-4.594-0.994-6.268-2.647c-1.673-1.617-2.6-3.855-2.56-6.181
		c-0.032-1.158,0.21-2.307,0.707-3.353c0.426-1.081,1.055-2.07,1.854-2.914c0.418-0.379,0.859-0.733,1.319-1.06
		c0.493-0.336,1.03-0.603,1.595-0.793c0.5-0.255,1.034-0.435,1.586-0.535c1.132-0.259,2.308-0.259,3.44,0
		c0.586,0.086,1.153,0.267,1.681,0.535c0.563,0.191,1.096,0.457,1.586,0.793c0.463,0.327,0.906,0.681,1.328,1.06
		c0.799,0.844,1.428,1.833,1.854,2.914c0.452,1.061,0.692,2.2,0.706,3.354c0.036,2.325-0.891,4.562-2.56,6.181
		c-0.834,0.832-1.824,1.492-2.914,1.94C284.776,202.78,283.636,203.02,282.483,203.034z"/>
	<path style="fill:#E64C3C;" d="M264.828,229.517h35.31c9.751,0,17.655,7.904,17.655,17.655v35.31
		c0,9.751-7.904,17.655-17.655,17.655h-35.31c-9.751,0-17.655-7.905-17.655-17.655v-35.31
		C247.172,237.422,255.077,229.517,264.828,229.517z"/>
	<path style="fill:#802D40;" d="M282.483,273.655c-1.153-0.014-2.293-0.254-3.353-0.707c-1.102-0.425-2.097-1.087-2.914-1.94
		c-1.673-1.617-2.6-3.855-2.56-6.181c0.031-2.338,0.945-4.577,2.56-6.268c0.844-0.799,1.833-1.428,2.914-1.854
		c1.577-0.703,3.336-0.89,5.026-0.535c0.586,0.086,1.153,0.267,1.681,0.535c0.563,0.191,1.096,0.457,1.586,0.793
		c0.44,0.353,0.888,0.707,1.328,1.06c1.612,1.693,2.526,3.931,2.561,6.268C291.277,269.689,287.344,273.622,282.483,273.655z"/>
</g>
<g>
</g>
<g>
</g>
<g>
</g>
<g>
</g>
<g>
</g>
<g>
</g>
<g>
</g>
<g>
</g>
<g>
</g>
<g>
</g>
<g>
</g>
<g>
</g>
<g>
</g>
<g>
</g>
<g>
</g>
</svg>
