<?xml version="1.0" encoding="iso-8859-1"?>
<!-- Generator: Adobe Illustrator 19.0.0, SVG Export Plug-In . SVG Version: 6.00 Build 0)  -->
<svg version="1.1" id="Capa_1" xmlns="http://www.w3.org/2000/svg" xmlns:xlink="http://www.w3.org/1999/xlink" x="0px" y="0px"
	 viewBox="0 0 512 512" style="enable-background:new 0 0 512 512;" xml:space="preserve">
<g>
	<path style="fill:#41767F;" d="M512,35.31v353.103H0L0,35.31c-0.003-9.366,3.717-18.349,10.339-24.971S25.945-0.003,35.31,0H476.69
		c9.366-0.003,18.349,3.717,24.971,10.339C508.283,16.962,512.003,25.945,512,35.31z"/>
	<rect x="185.379" y="423.724" style="fill:#BDC3C7;" width="141.241" height="70.621"/>
	<g>
		<path style="fill:#95A5A5;" d="M512,370.759v35.31c0.003,9.366-3.717,18.348-10.339,24.971
			c-6.623,6.622-15.605,10.342-24.971,10.339H35.31c-9.366,0.003-18.348-3.717-24.971-10.339C3.717,424.417-0.003,415.435,0,406.069
			l0-35.31H512z"/>
		<rect x="114.759" y="476.69" style="fill:#95A5A5;" width="282.483" height="35.31"/>
	</g>
	<path style="fill:#D1D4D1;" d="M361.931,143.625v101.164c0.242,5.947-4.381,10.965-10.328,11.211H229.164
		c-24.606,0.012-48.98-4.755-71.768-14.036l1.501-3.619v-88.276l-1.501-3.619c22.789-9.28,47.162-14.047,71.768-14.036h122.439
		C357.55,132.66,362.173,137.678,361.931,143.625z"/>
	<path style="fill:#CC4B4C;" d="M158.897,150.069v88.276l-1.501,3.619c-26.318-10.556-49.937-26.875-69.12-47.757
		c17.903-19.487,39.669-35.03,63.912-45.639c1.698-0.797,3.436-1.504,5.208-2.119L158.897,150.069z"/>
	<g>
		<circle style="fill:#67B9CC;" cx="211.862" cy="194.207" r="26.483"/>
		<circle style="fill:#67B9CC;" cx="300.138" cy="194.207" r="26.483"/>
	</g>
	<g>
		<path style="fill:#BDC3C7;" d="M344.276,256v39.194c0.002,1.312-0.518,2.57-1.445,3.498c-0.928,0.928-2.186,1.448-3.498,1.446
			h-22.246c-23.442,0.022-45.928-9.284-62.499-25.865L236.314,256H344.276z"/>
		<path style="fill:#BDC3C7;" d="M344.276,93.219v39.194H236.314l18.273-18.273c16.571-16.581,39.058-25.887,62.499-25.865h22.246
			c1.312-0.002,2.57,0.518,3.498,1.446C343.758,90.649,344.278,91.908,344.276,93.219z"/>
	</g>
	<path style="fill:#95A5A5;" d="M406.069,163.575v61.263c-0.017,6.354-3.447,12.209-8.981,15.332
		c-5.534,3.123-12.318,3.033-17.767-0.237l-17.39-10.417v-70.621l17.39-10.417c5.448-3.27,12.233-3.36,17.767-0.237
		S406.052,157.221,406.069,163.575z"/>
	<g>
		<path style="fill:#FFFFFF;" d="M123.586,185.379c-2.342,0.001-4.588-0.928-6.244-2.584c-1.656-1.656-2.585-3.902-2.584-6.244
			V88.276H88.276c-4.875,0-8.828-3.952-8.828-8.828c0-4.875,3.952-8.828,8.828-8.828h35.31c2.342-0.001,4.588,0.928,6.244,2.584
			c1.656,1.656,2.585,3.902,2.584,6.244v97.103c0.001,2.342-0.928,4.588-2.584,6.244
			C128.174,184.451,125.928,185.381,123.586,185.379z"/>
		<path style="fill:#FFFFFF;" d="M317.793,105.931c-2.342,0.001-4.588-0.928-6.244-2.584c-1.656-1.656-2.585-3.902-2.584-6.244
			V52.966c-0.001-2.342,0.928-4.588,2.584-6.244c1.656-1.656,3.902-2.585,6.244-2.584h105.931c4.875,0,8.828,3.952,8.828,8.828
			s-3.952,8.828-8.828,8.828h-97.103v35.31c0.001,2.342-0.928,4.588-2.584,6.244C322.381,105.003,320.135,105.932,317.793,105.931z"
			/>
		<path style="fill:#FFFFFF;" d="M211.862,326.621H88.276c-4.875,0-8.828-3.952-8.828-8.828s3.952-8.828,8.828-8.828h114.759
			v-97.103c0-4.875,3.952-8.828,8.828-8.828s8.828,3.952,8.828,8.828v105.931c0.001,2.342-0.928,4.588-2.584,6.244
			C216.45,325.692,214.204,326.622,211.862,326.621z"/>
		<path style="fill:#FFFFFF;" d="M450.207,308.966c-2.342,0.001-4.588-0.928-6.244-2.584c-1.656-1.656-2.585-3.902-2.584-6.244
			v-97.103h-44.138c-4.875,0-8.828-3.952-8.828-8.828s3.952-8.828,8.828-8.828h52.966c2.342-0.001,4.588,0.928,6.244,2.584
			c1.656,1.656,2.585,3.902,2.584,6.244v105.931c0.001,2.342-0.928,4.588-2.584,6.244
			C454.795,308.037,452.549,308.967,450.207,308.966z"/>
	</g>
	<g>
		<path style="fill:#ECF0F1;" d="M44.138,61.793h35.31c4.875,0,8.828,3.952,8.828,8.828v17.655c0,4.875-3.952,8.828-8.828,8.828
			h-35.31c-4.875,0-8.828-3.952-8.828-8.828V70.621C35.31,65.745,39.263,61.793,44.138,61.793z"/>
		<path style="fill:#ECF0F1;" d="M44.138,300.138h35.31c4.875,0,8.828,3.952,8.828,8.828v17.655c0,4.875-3.952,8.828-8.828,8.828
			h-35.31c-4.875,0-8.828-3.952-8.828-8.828v-17.655C35.31,304.09,39.263,300.138,44.138,300.138z"/>
		<path style="fill:#ECF0F1;" d="M432.552,35.31h35.31c4.875,0,8.828,3.952,8.828,8.828v17.655c0,4.875-3.952,8.828-8.828,8.828
			h-35.31c-4.875,0-8.828-3.952-8.828-8.828V44.138C423.724,39.263,427.676,35.31,432.552,35.31z"/>
		<path style="fill:#ECF0F1;" d="M432.552,300.138h35.31c4.875,0,8.828,3.952,8.828,8.828v17.655c0,4.875-3.952,8.828-8.828,8.828
			h-35.31c-4.875,0-8.828-3.952-8.828-8.828v-17.655C423.724,304.09,427.676,300.138,432.552,300.138z"/>
	</g>
</g>
<g>
</g>
<g>
</g>
<g>
</g>
<g>
</g>
<g>
</g>
<g>
</g>
<g>
</g>
<g>
</g>
<g>
</g>
<g>
</g>
<g>
</g>
<g>
</g>
<g>
</g>
<g>
</g>
<g>
</g>
</svg>
