<?xml version="1.0" encoding="iso-8859-1"?>
<!-- Generator: Adobe Illustrator 19.0.0, SVG Export Plug-In . SVG Version: 6.00 Build 0)  -->
<svg version="1.1" id="Capa_1" xmlns="http://www.w3.org/2000/svg" xmlns:xlink="http://www.w3.org/1999/xlink" x="0px" y="0px"
	 viewBox="0 0 512 512" style="enable-background:new 0 0 512 512;" xml:space="preserve">
<g>
	<path style="fill:#7D6599;" d="M512,35.31v353.103H0L0,35.31c-0.003-9.366,3.717-18.349,10.339-24.971S25.945-0.003,35.31,0H476.69
		c9.366-0.003,18.349,3.717,24.971,10.339C508.283,16.962,512.003,25.945,512,35.31z"/>
	<rect x="185.379" y="423.724" style="fill:#BDC3C7;" width="141.241" height="70.621"/>
	<g>
		<path style="fill:#95A5A5;" d="M512,370.759v35.31c0.003,9.366-3.717,18.348-10.339,24.971
			c-6.623,6.622-15.605,10.342-24.971,10.339H35.31c-9.366,0.003-18.348-3.717-24.971-10.339C3.717,424.417-0.003,415.435,0,406.069
			l0-35.31H512z"/>
		<rect x="114.759" y="476.69" style="fill:#95A5A5;" width="282.483" height="35.31"/>
	</g>
	<g>
		<path style="fill:#3D324C;" d="M194.207,344.276c-2.341,0.001-4.587-0.929-6.243-2.585c-1.656-1.656-2.585-3.901-2.585-6.243
			v-26.483c0-4.875,3.952-8.828,8.828-8.828s8.828,3.952,8.828,8.828v26.483c0.001,2.341-0.929,4.587-2.585,6.243
			C198.794,343.347,196.548,344.276,194.207,344.276z"/>
		<path style="fill:#3D324C;" d="M317.793,344.276c-2.341,0.001-4.587-0.929-6.243-2.585c-1.656-1.656-2.585-3.901-2.585-6.243
			v-26.483c0-4.875,3.952-8.828,8.828-8.828s8.828,3.952,8.828,8.828v26.483c0.001,2.341-0.929,4.587-2.585,6.243
			C322.38,343.347,320.134,344.276,317.793,344.276z"/>
		<path style="fill:#3D324C;" d="M229.517,291.31c-2.341,0.001-4.587-0.929-6.243-2.585c-1.656-1.656-2.585-3.901-2.585-6.243
			v-8.828c0-4.875,3.952-8.828,8.828-8.828s8.828,3.952,8.828,8.828v8.828c0.001,2.341-0.929,4.587-2.585,6.243
			C234.104,290.381,231.859,291.311,229.517,291.31z"/>
		<path style="fill:#3D324C;" d="M229.517,344.276c-2.341,0.001-4.587-0.929-6.243-2.585c-1.656-1.656-2.585-3.901-2.585-6.243
			v-17.655c0-4.875,3.952-8.828,8.828-8.828s8.828,3.952,8.828,8.828v17.655c0.001,2.341-0.929,4.587-2.585,6.243
			C234.104,343.347,231.859,344.276,229.517,344.276z"/>
		<path style="fill:#3D324C;" d="M282.483,291.31c-2.341,0.001-4.587-0.929-6.243-2.585c-1.656-1.656-2.585-3.901-2.585-6.243
			v-8.828c0-4.875,3.952-8.828,8.828-8.828s8.828,3.952,8.828,8.828v8.828c0.001,2.341-0.929,4.587-2.585,6.243
			C287.07,290.381,284.824,291.311,282.483,291.31z"/>
		<path style="fill:#3D324C;" d="M282.483,344.276c-2.341,0.001-4.587-0.929-6.243-2.585c-1.656-1.656-2.585-3.901-2.585-6.243
			v-17.655c0-4.875,3.952-8.828,8.828-8.828s8.828,3.952,8.828,8.828v17.655c0.001,2.341-0.929,4.587-2.585,6.243
			C287.07,343.347,284.824,344.276,282.483,344.276z"/>
	</g>
	<circle style="fill:#D1D4D1;" cx="101.517" cy="101.517" r="66.207"/>
	<g>
		<path style="fill:#5E5F62;" d="M114.759,88.276c-2.348,0.023-4.607-0.9-6.267-2.56c-1.66-1.66-2.583-3.919-2.56-6.267
			c0.015-2.341,0.932-4.586,2.56-6.268c0.857-0.779,1.841-1.406,2.909-1.854c1.61-0.707,3.4-0.894,5.121-0.535
			c0.553,0.1,1.089,0.28,1.59,0.535c0.564,0.191,1.099,0.457,1.591,0.793c0.44,0.353,0.879,0.707,1.323,1.06
			c1.612,1.693,2.526,3.931,2.561,6.268c-0.014,1.153-0.254,2.293-0.707,3.353c-0.45,1.068-1.077,2.053-1.854,2.914
			C119.364,87.375,117.106,88.297,114.759,88.276z"/>
		<path style="fill:#5E5F62;" d="M70.621,114.759c-1.155-0.014-2.296-0.254-3.358-0.707c-2.215-0.807-3.96-2.552-4.767-4.767
			c-0.937-2.137-0.937-4.569,0-6.707c0.448-1.071,1.076-2.056,1.857-2.915c2.54-2.501,6.333-3.232,9.621-1.854
			c2.217,0.804,3.963,2.55,4.767,4.767c0.495,1.047,0.738,2.196,0.708,3.354c0.017,1.148-0.193,2.288-0.621,3.353
			c-0.513,1.054-1.165,2.034-1.939,2.914c-0.859,0.779-1.844,1.406-2.914,1.854C72.913,114.505,71.774,114.745,70.621,114.759z"/>
		<path style="fill:#5E5F62;" d="M123.586,132.414c-1.155-0.014-2.296-0.254-3.358-0.707c-2.215-0.807-3.96-2.552-4.767-4.767
			c-0.492-1.048-0.732-2.196-0.703-3.354c0.013-1.153,0.251-2.292,0.703-3.353c0.448-1.071,1.076-2.056,1.857-2.914
			c2.54-2.501,6.333-3.232,9.621-1.854c2.217,0.804,3.963,2.55,4.767,4.767c0.453,1.061,0.693,2.201,0.708,3.354
			c0.03,1.158-0.212,2.306-0.707,3.353c-0.45,1.068-1.077,2.053-1.854,2.914C128.192,131.513,125.934,132.435,123.586,132.414z"/>
	</g>
	<g>
		<path style="fill:#F0C419;" d="M397.241,97.103c-4.875,0-8.828-3.952-8.828-8.828c0-4.875,3.952-8.828,8.828-8.828
			c14.619-0.016,26.467-11.863,26.483-26.483c0-4.875,3.952-8.828,8.828-8.828s8.828,3.952,8.828,8.828
			C441.351,77.33,421.606,97.075,397.241,97.103z"/>
		<path style="fill:#F0C419;" d="M467.862,97.103h-8.828c-2.392,0.005-4.682-0.966-6.341-2.69
			c-17.385-6.384-28.948-22.928-28.97-41.448c0-4.875,3.952-8.828,8.828-8.828s8.828,3.952,8.828,8.828
			c0.016,14.619,11.863,26.467,26.483,26.483c4.875,0,8.828,3.952,8.828,8.828S472.737,97.103,467.862,97.103z"/>
		<path style="fill:#F0C419;" d="M432.552,132.414c-2.341,0.001-4.587-0.929-6.243-2.585c-1.656-1.656-2.585-3.901-2.585-6.243
			c-0.016-14.619-11.863-26.467-26.483-26.483c-4.875,0-8.828-3.952-8.828-8.828c0-4.875,3.952-8.828,8.828-8.828
			c24.365,0.029,44.109,19.773,44.138,44.138c0.001,2.341-0.929,4.587-2.585,6.243C437.139,131.485,434.893,132.414,432.552,132.414
			z"/>
		<path style="fill:#F0C419;" d="M432.552,132.414c-2.341,0.001-4.587-0.929-6.243-2.585c-1.656-1.656-2.585-3.901-2.585-6.243
			c0.022-18.52,11.585-35.064,28.97-41.448c1.659-1.723,3.949-2.695,6.341-2.69h8.828c4.875,0,8.828,3.952,8.828,8.828
			c0,4.875-3.952,8.828-8.828,8.828c-14.619,0.016-26.467,11.863-26.483,26.483c0.001,2.341-0.929,4.587-2.585,6.243
			C437.139,131.485,434.893,132.414,432.552,132.414z"/>
		<path style="fill:#F0C419;" d="M361.931,264.828c-4.875,0-8.828-3.952-8.828-8.828s3.952-8.828,8.828-8.828
			c14.619-0.016,26.467-11.863,26.483-26.483c0-4.875,3.952-8.828,8.828-8.828c4.875,0,8.828,3.952,8.828,8.828
			C406.04,245.055,386.296,264.799,361.931,264.828z"/>
		<path style="fill:#F0C419;" d="M432.552,264.828h-8.828c-2.392,0.005-4.682-0.966-6.341-2.69
			c-17.385-6.384-28.948-22.928-28.97-41.448c0-4.875,3.952-8.828,8.828-8.828c4.875,0,8.828,3.952,8.828,8.828
			c0.016,14.619,11.863,26.467,26.483,26.483c4.875,0,8.828,3.952,8.828,8.828C441.379,260.875,437.427,264.828,432.552,264.828z"/>
		<path style="fill:#F0C419;" d="M397.241,300.138c-2.341,0.001-4.587-0.929-6.243-2.585c-1.656-1.656-2.585-3.901-2.585-6.243
			c-0.016-14.619-11.863-26.467-26.483-26.483c-4.875,0-8.828-3.952-8.828-8.828s3.952-8.828,8.828-8.828
			c24.365,0.029,44.109,19.773,44.138,44.138c0.001,2.341-0.929,4.587-2.585,6.243C401.828,299.209,399.583,300.139,397.241,300.138
			z"/>
		<path style="fill:#F0C419;" d="M397.241,300.138c-2.341,0.001-4.587-0.929-6.243-2.585c-1.656-1.656-2.585-3.901-2.585-6.243
			c0.022-18.52,11.585-35.064,28.97-41.448c1.659-1.723,3.949-2.695,6.341-2.69h8.828c4.875,0,8.828,3.952,8.828,8.828
			s-3.952,8.828-8.828,8.828c-14.619,0.016-26.467,11.863-26.483,26.483c0.001,2.341-0.929,4.587-2.585,6.243
			C401.828,299.209,399.583,300.139,397.241,300.138z"/>
		<path style="fill:#F0C419;" d="M52.966,300.138c-4.875,0-8.828-3.952-8.828-8.828s3.952-8.828,8.828-8.828
			c14.619-0.016,26.467-11.863,26.483-26.483c0-4.875,3.952-8.828,8.828-8.828c4.875,0,8.828,3.952,8.828,8.828
			C97.075,280.365,77.33,300.109,52.966,300.138z"/>
		<path style="fill:#F0C419;" d="M123.586,300.138h-8.828c-2.392,0.005-4.682-0.966-6.34-2.69
			C91.033,291.064,79.47,274.52,79.448,256c0-4.875,3.952-8.828,8.828-8.828c4.875,0,8.828,3.952,8.828,8.828
			c0.016,14.619,11.863,26.467,26.483,26.483c4.875,0,8.828,3.952,8.828,8.828C132.414,296.186,128.462,300.138,123.586,300.138z"/>
		<path style="fill:#F0C419;" d="M88.276,335.448c-2.341,0.001-4.587-0.929-6.243-2.585c-1.656-1.656-2.585-3.901-2.585-6.243
			c-0.016-14.619-11.863-26.467-26.483-26.483c-4.875,0-8.828-3.952-8.828-8.828s3.952-8.828,8.828-8.828
			c24.365,0.029,44.109,19.773,44.138,44.138c0.001,2.341-0.929,4.587-2.585,6.243C92.863,334.519,90.617,335.449,88.276,335.448z"
			/>
		<path style="fill:#F0C419;" d="M88.276,335.448c-2.341,0.001-4.587-0.929-6.243-2.585c-1.656-1.656-2.585-3.901-2.585-6.243
			c0.022-18.52,11.585-35.064,28.97-41.448c1.659-1.723,3.949-2.695,6.34-2.69h8.828c4.875,0,8.828,3.952,8.828,8.828
			s-3.952,8.828-8.828,8.828c-14.619,0.016-26.467,11.863-26.483,26.483c0.001,2.341-0.929,4.587-2.585,6.243
			C92.863,334.519,90.617,335.449,88.276,335.448z"/>
	</g>
	<polygon style="fill:#ECF0F1;" points="282.483,140.138 282.483,219.586 229.517,219.586 229.517,140.138 256,78.345 	"/>
	<g>
		<polygon style="fill:#BDC3C7;" points="229.517,166.621 229.517,219.586 194.207,263.724 194.207,201.931 		"/>
		<polygon style="fill:#BDC3C7;" points="317.793,201.931 317.793,263.724 282.483,219.586 282.483,166.621 		"/>
	</g>
	<g>
		<path style="fill:#ECF0F1;" d="M194.207,272.552c-2.341,0.001-4.587-0.929-6.243-2.585c-1.656-1.656-2.585-3.901-2.585-6.243
			V157.793c0-4.875,3.952-8.828,8.828-8.828s8.828,3.952,8.828,8.828v105.931c0.001,2.341-0.929,4.587-2.585,6.243
			C198.794,271.622,196.548,272.552,194.207,272.552z"/>
		<path style="fill:#ECF0F1;" d="M317.793,272.552c-2.341,0.001-4.587-0.929-6.243-2.585c-1.656-1.656-2.585-3.901-2.585-6.243
			V157.793c0-4.875,3.952-8.828,8.828-8.828s8.828,3.952,8.828,8.828v105.931c0.001,2.341-0.929,4.587-2.585,6.243
			C322.38,271.622,320.134,272.552,317.793,272.552z"/>
	</g>
</g>
<g>
</g>
<g>
</g>
<g>
</g>
<g>
</g>
<g>
</g>
<g>
</g>
<g>
</g>
<g>
</g>
<g>
</g>
<g>
</g>
<g>
</g>
<g>
</g>
<g>
</g>
<g>
</g>
<g>
</g>
</svg>
