<?xml version="1.0" encoding="iso-8859-1"?>
<!-- Generator: Adobe Illustrator 19.0.0, SVG Export Plug-In . SVG Version: 6.00 Build 0)  -->
<svg version="1.1" id="Capa_1" xmlns="http://www.w3.org/2000/svg" xmlns:xlink="http://www.w3.org/1999/xlink" x="0px" y="0px"
	 viewBox="0 0 512 512" style="enable-background:new 0 0 512 512;" xml:space="preserve">
<g>
	<path style="fill:#67B9CC;" d="M512,70.621v432.552H0L0,70.621c-0.005-18.731,7.434-36.697,20.679-49.942S51.889-0.005,70.621,0
		h370.759c18.731-0.005,36.697,7.434,49.942,20.679C504.566,33.924,512.005,51.889,512,70.621z"/>
	<g>
		<path style="fill:#5E5F62;" d="M105.931,0v238.345c0,4.875-3.952,8.828-8.828,8.828c-4.875,0-8.828-3.952-8.828-8.828V0H105.931z"
			/>
		<path style="fill:#5E5F62;" d="M229.517,0v238.345c0,4.875-3.952,8.828-8.828,8.828s-8.828-3.952-8.828-8.828V0H229.517z"/>
		<path style="fill:#5E5F62;" d="M423.724,238.345c0.016,3.621-2.192,6.881-5.561,8.21c-1.038,0.417-2.148,0.627-3.266,0.618
			c-3.621,0.016-6.881-2.192-8.21-5.561L311.79,0h18.979l92.337,235.079C423.523,236.117,423.733,237.226,423.724,238.345z"/>
	</g>
	<polygon style="fill:#D1D4D1;" points="122.695,238.345 71.512,238.345 35.31,274.547 35.31,325.729 71.512,361.931 
		122.695,361.931 158.897,325.729 158.897,274.547 	"/>
	<path style="fill:#ECF0F1;" d="M70.621,319.931c-2.341,0.001-4.587-0.929-6.243-2.585c-1.656-1.656-2.585-3.901-2.585-6.243
		v-21.931c0-2.341,0.93-4.586,2.586-6.241l15.517-15.517c1.655-1.655,3.9-2.586,6.241-2.586h21.931c4.875,0,8.828,3.952,8.828,8.828
		s-3.952,8.828-8.828,8.828H89.793l-10.345,10.345v18.276c0.001,2.341-0.929,4.587-2.585,6.243
		C75.208,319.002,72.962,319.932,70.621,319.931z"/>
	<polygon style="fill:#BDC3C7;" points="246.281,238.345 195.098,238.345 158.897,274.547 158.897,325.729 195.098,361.931 
		246.281,361.931 282.483,325.729 282.483,274.547 	"/>
	<path style="fill:#ECF0F1;" d="M194.207,319.931c-2.341,0.001-4.587-0.929-6.243-2.585c-1.656-1.656-2.585-3.901-2.585-6.243
		v-21.931c0-2.341,0.93-4.586,2.586-6.241l15.517-15.517c1.655-1.655,3.9-2.586,6.241-2.586h21.931c4.875,0,8.828,3.952,8.828,8.828
		s-3.952,8.828-8.828,8.828h-18.276l-10.345,10.345v18.276c0.001,2.341-0.929,4.587-2.585,6.243
		C198.794,319.002,196.548,319.932,194.207,319.931z"/>
	<polygon style="fill:#D1D4D1;" points="440.488,238.345 389.305,238.345 353.103,274.547 353.103,325.729 389.305,361.931 
		440.488,361.931 476.69,325.729 476.69,274.547 	"/>
	<path style="fill:#ECF0F1;" d="M388.414,319.931c-2.341,0.001-4.587-0.929-6.243-2.585c-1.656-1.656-2.585-3.901-2.585-6.243
		v-21.931c0-2.341,0.93-4.586,2.586-6.241l15.517-15.517c1.655-1.655,3.9-2.586,6.241-2.586h21.931c4.875,0,8.828,3.952,8.828,8.828
		s-3.952,8.828-8.828,8.828h-18.276l-10.345,10.345v18.276c0.001,2.341-0.929,4.587-2.585,6.243
		C393.001,319.002,390.755,319.932,388.414,319.931z"/>
	<rect x="0" y="476.69" style="fill:#41767F;" width="512" height="35.31"/>
</g>
<g>
</g>
<g>
</g>
<g>
</g>
<g>
</g>
<g>
</g>
<g>
</g>
<g>
</g>
<g>
</g>
<g>
</g>
<g>
</g>
<g>
</g>
<g>
</g>
<g>
</g>
<g>
</g>
<g>
</g>
</svg>
