<?xml version="1.0" encoding="iso-8859-1"?>
<!-- Generator: Adobe Illustrator 19.0.0, SVG Export Plug-In . SVG Version: 6.00 Build 0)  -->
<svg version="1.1" id="Capa_1" xmlns="http://www.w3.org/2000/svg" xmlns:xlink="http://www.w3.org/1999/xlink" x="0px" y="0px"
	 viewBox="0 0 512 512" style="enable-background:new 0 0 512 512;" xml:space="preserve">
<g>
	<path style="fill:#71C285;" d="M512,35.31v353.103H0L0,35.31c-0.003-9.366,3.717-18.349,10.339-24.971S25.945-0.003,35.31,0H476.69
		c9.366-0.003,18.349,3.717,24.971,10.339C508.283,16.962,512.003,25.945,512,35.31z"/>
	<rect x="185.379" y="423.724" style="fill:#BDC3C7;" width="141.241" height="70.621"/>
	<g>
		<path style="fill:#95A5A5;" d="M512,370.759v35.31c0.003,9.366-3.717,18.348-10.339,24.971
			c-6.623,6.622-15.605,10.342-24.971,10.339H35.31c-9.366,0.003-18.348-3.717-24.971-10.339C3.717,424.417-0.003,415.435,0,406.069
			l0-35.31H512z"/>
		<rect x="114.759" y="476.69" style="fill:#95A5A5;" width="282.483" height="35.31"/>
	</g>
	<path style="fill:#D1D4D1;" d="M202.77,299.961v25.953c-32.247-11.806-59.622-34.054-77.772-63.206l24.1-9.004
		c0.299,1.353,1.046,2.566,2.119,3.443l46.963,41.137C199.452,299.387,201.086,299.984,202.77,299.961z"/>
	<path style="fill:#ECF0F1;" d="M154.483,201.004l-5.561,50.317c-0.073,0.799-0.014,1.604,0.177,2.383l-24.1,9.004
		c-0.97-1.501-1.854-3.001-2.736-4.502c-1.324-2.207-2.559-4.414-3.708-6.709c-18.923-36.884-22.231-79.825-9.18-119.172
		l20.657-4.061l2.207-0.53h1.236l23.04,69.12l0.088,0.088C155.395,197.971,154.635,199.427,154.483,201.004z"/>
	<path style="fill:#E6E7E8;" d="M259.443,127.47l-36.281,75.388c-1.11-1.195-2.615-1.947-4.237-2.119l-57.026-5.65
		c-1.953-0.191-3.89,0.487-5.297,1.854l-0.088-0.088l-23.04-69.12h-1.236c1.527-0.278,2.904-1.092,3.884-2.295
		c0.177-0.265,0.353-0.441,0.53-0.706l29.926-47.846l0.441-0.706c0.363-0.529,0.604-1.132,0.708-1.766h70.268
		c-0.618,1.529-0.618,3.238,0,4.767l16.509,44.138C255.312,125.471,257.185,127.044,259.443,127.47z"/>
	<path style="fill:#ECF0F1;" d="M410.483,180.966c0.025,7.506-0.535,15.003-1.677,22.422c-1.262-1.463-3.1-2.301-5.032-2.295h-36.37
		c-0.181-0.014-0.363,0.016-0.529,0.088c-1.473,0.106-2.87,0.696-3.973,1.677l-35.134-70.179v-0.088
		c1.729-0.887,2.963-2.51,3.354-4.414l11.034-49.523c0.493-2.056-0.032-4.224-1.412-5.826l18.803-6.356h0.088
		c1.412,1.324,2.56,2.472,3.884,3.708c2.295,2.119,4.414,4.326,6.532,6.709C396.13,105.266,410.565,142.425,410.483,180.966z"/>
	<path style="fill:#D1D4D1;" d="M362.902,202.858v0.088c-0.58,0.421-1.062,0.963-1.412,1.589l-0.265,0.441l-29.483,53.23
		l-0.53,0.971c-0.288,0.535-0.525,1.097-0.707,1.677h-76.624c0.296-1.509,0.045-3.073-0.707-4.414l-29.042-52.259
		c-0.273-0.477-0.598-0.921-0.971-1.324l36.281-75.388c0.254,0.101,0.522,0.16,0.794,0.177l63.735,5.738
		c1.317,0.14,2.646-0.138,3.796-0.794v0.088L362.902,202.858z"/>
	<path style="fill:#2C2F38;" d="M408.806,203.388c-6.053,41.923-29.147,79.487-63.823,103.812c-1.572-0.817-2.727-2.259-3.179-3.972
		l-10.946-38.312l-0.265-0.706c-0.294-1.095-0.324-2.245-0.088-3.354c0.182-0.58,0.418-1.142,0.707-1.677l0.53-0.971l29.483-53.23
		l0.265-0.441c0.35-0.626,0.832-1.168,1.412-1.589v-0.088c1.103-0.982,2.5-1.571,3.973-1.677c0.167-0.072,0.348-0.102,0.529-0.088
		h36.37C405.705,201.086,407.544,201.925,408.806,203.388z"/>
	<path style="fill:#ECF0F1;" d="M344.983,307.2c-38.866,27.43-88.208,35.41-133.739,21.628c-2.383-0.706-4.855-1.501-7.15-2.383
		l-1.324-0.53v-25.953c1.404-0.007,2.768-0.472,3.884-1.324l44.668-33.545c1.377-1.021,2.297-2.543,2.56-4.237h76.623
		c-0.236,1.109-0.206,2.259,0.088,3.354l0.265,0.706l10.946,38.312C342.256,304.941,343.41,306.383,344.983,307.2z"/>
	<g>
		<path style="fill:#2C2F38;" d="M167.724,74.417c-0.103,0.633-0.345,1.236-0.707,1.766l-0.441,0.706l-29.926,47.846
			c-0.177,0.265-0.353,0.441-0.53,0.706c-0.98,1.203-2.357,2.017-3.884,2.295l-2.207,0.53l-20.657,4.061
			c9.924-29.893,28.743-56.042,53.937-74.946l4.237,12.8l0.088,0.265C168.105,71.722,168.136,73.119,167.724,74.417z"/>
		<path style="fill:#2C2F38;" d="M342.157,78.654l-11.034,49.523c-0.392,1.903-1.625,3.527-3.354,4.414
			c-1.151,0.657-2.479,0.935-3.796,0.794l-63.735-5.738c-0.273-0.016-0.541-0.076-0.794-0.177c-2.258-0.427-4.131-1.999-4.943-4.149
			l-16.508-44.138c-0.618-1.529-0.618-3.238,0-4.767c0.555-1.599,1.734-2.904,3.267-3.619l45.284-22.687
			c0.457-0.187,0.93-0.335,1.412-0.441c1.535-0.391,3.158-0.234,4.59,0.441l46.08,23.04c0.799,0.43,1.516,0.998,2.119,1.677
			C342.125,74.43,342.65,76.598,342.157,78.654z"/>
		<path style="fill:#2C2F38;" d="M253.881,260.855c-0.263,1.694-1.183,3.216-2.56,4.237l-44.668,33.545
			c-1.116,0.852-2.479,1.317-3.884,1.324c-1.684,0.023-3.318-0.574-4.59-1.677l-46.963-41.137c-1.073-0.877-1.819-2.09-2.119-3.443
			c-0.19-0.779-0.25-1.585-0.177-2.383l5.561-50.317c0.153-1.577,0.912-3.033,2.119-4.061c1.407-1.367,3.345-2.045,5.297-1.854
			l57.026,5.65c1.622,0.171,3.127,0.924,4.237,2.119c0.373,0.403,0.698,0.848,0.971,1.324l29.042,52.259
			C253.927,257.782,254.177,259.347,253.881,260.855z"/>
	</g>
	<path style="fill:#ECF0F1;" d="M287.956,29.837v17.832c-0.482,0.107-0.955,0.254-1.412,0.441l-45.285,22.687
		c-1.534,0.715-2.712,2.021-3.267,3.619h-70.267c0.412-1.297,0.381-2.695-0.088-3.972l-0.088-0.265l-4.237-12.8
		c26.708-20.117,59.253-30.966,92.69-30.897c10.139-0.033,20.255,0.972,30.19,3.001C286.808,29.572,287.427,29.749,287.956,29.837z"
		/>
	<path style="fill:#D1D4D1;" d="M359.548,66.472l-18.803,6.356c-0.602-0.679-1.319-1.247-2.119-1.677l-46.08-23.04
		c-1.432-0.676-3.055-0.832-4.59-0.441V29.837c1.678,0.353,3.354,0.706,4.943,1.148C317.739,37.039,340.658,49.242,359.548,66.472z"
		/>
</g>
<g>
</g>
<g>
</g>
<g>
</g>
<g>
</g>
<g>
</g>
<g>
</g>
<g>
</g>
<g>
</g>
<g>
</g>
<g>
</g>
<g>
</g>
<g>
</g>
<g>
</g>
<g>
</g>
<g>
</g>
</svg>
