<?xml version="1.0" encoding="iso-8859-1"?>
<!-- Generator: Adobe Illustrator 19.0.0, SVG Export Plug-In . SVG Version: 6.00 Build 0)  -->
<svg version="1.1" id="Capa_1" xmlns="http://www.w3.org/2000/svg" xmlns:xlink="http://www.w3.org/1999/xlink" x="0px" y="0px"
	 viewBox="0 0 512 512" style="enable-background:new 0 0 512 512;" xml:space="preserve">
<g>
	<path style="fill:#2FA8CC;" d="M512,35.31v353.103H0L0,35.31c-0.003-9.366,3.717-18.349,10.339-24.971S25.945-0.003,35.31,0H476.69
		c9.366-0.003,18.349,3.717,24.971,10.339C508.283,16.962,512.003,25.945,512,35.31z"/>
	<rect x="185.379" y="423.724" style="fill:#BDC3C7;" width="141.241" height="70.621"/>
	<g>
		<path style="fill:#95A5A5;" d="M512,370.759v35.31c0.003,9.366-3.717,18.348-10.339,24.971
			c-6.623,6.622-15.605,10.342-24.971,10.339H35.31c-9.366,0.003-18.348-3.717-24.971-10.339C3.717,424.417-0.003,415.435,0,406.069
			l0-35.31H512z"/>
		<rect x="114.759" y="476.69" style="fill:#95A5A5;" width="282.483" height="35.31"/>
	</g>
	<path style="fill:#CC66A1;" d="M17.655,229.517h35.31c9.751,0,17.655,7.904,17.655,17.655v35.31
		c0,9.751-7.904,17.655-17.655,17.655h-35.31C7.904,300.138,0,292.233,0,282.483v-35.31C0,237.422,7.904,229.517,17.655,229.517z"/>
	<g>
		<path style="fill:#955BA5;" d="M17.655,300.138h35.31c9.751,0,17.655,7.904,17.655,17.655v35.31
			c0,9.751-7.904,17.655-17.655,17.655h-35.31C7.904,370.759,0,362.854,0,353.103v-35.31C0,308.042,7.904,300.138,17.655,300.138z"
			/>
		<path style="fill:#955BA5;" d="M88.276,229.517h35.31c9.751,0,17.655,7.904,17.655,17.655v35.31
			c0,9.751-7.904,17.655-17.655,17.655h-35.31c-9.751,0-17.655-7.905-17.655-17.655v-35.31
			C70.621,237.422,78.525,229.517,88.276,229.517z"/>
	</g>
	<g>
		<path style="fill:#CC66A1;" d="M88.276,300.138h35.31c9.751,0,17.655,7.904,17.655,17.655v35.31
			c0,9.751-7.904,17.655-17.655,17.655h-35.31c-9.751,0-17.655-7.905-17.655-17.655v-35.31
			C70.621,308.042,78.525,300.138,88.276,300.138z"/>
		<path style="fill:#CC66A1;" d="M158.897,229.517h35.31c9.751,0,17.655,7.904,17.655,17.655v35.31
			c0,9.751-7.904,17.655-17.655,17.655h-35.31c-9.751,0-17.655-7.905-17.655-17.655v-35.31
			C141.241,237.422,149.146,229.517,158.897,229.517z"/>
		<path style="fill:#CC66A1;" d="M88.276,158.897h35.31c9.751,0,17.655,7.904,17.655,17.655v35.31
			c0,9.751-7.904,17.655-17.655,17.655h-35.31c-9.751,0-17.655-7.904-17.655-17.655v-35.31
			C70.621,166.801,78.525,158.897,88.276,158.897z"/>
	</g>
	<path style="fill:#955BA5;" d="M158.897,300.138h35.31c9.751,0,17.655,7.904,17.655,17.655v35.31
		c0,9.751-7.904,17.655-17.655,17.655h-35.31c-9.751,0-17.655-7.905-17.655-17.655v-35.31
		C141.241,308.042,149.146,300.138,158.897,300.138z"/>
	<g>
		<path style="fill:#804169;" d="M35.31,273.655c-2.348,0.023-4.607-0.9-6.267-2.56s-2.583-3.919-2.56-6.267
			c0.031-2.338,0.945-4.577,2.56-6.268c0.844-0.799,1.833-1.428,2.914-1.854c2.147-0.888,4.559-0.888,6.707,0
			c1.08,0.428,2.069,1.057,2.914,1.854c1.612,1.693,2.526,3.931,2.561,6.268c0.023,2.348-0.9,4.607-2.56,6.267
			C39.917,272.755,37.658,273.678,35.31,273.655z"/>
		<path style="fill:#804169;" d="M35.31,344.276c-1.153-0.014-2.293-0.254-3.353-0.707c-1.07-0.446-2.056-1.073-2.914-1.853
			c-1.661-1.66-2.584-3.919-2.56-6.268c-0.021-3.586,2.13-6.829,5.442-8.204c3.312-1.375,7.127-0.61,9.653,1.937
			c0.799,0.844,1.428,1.833,1.854,2.914c1.163,2.715,0.876,5.833-0.762,8.29C41.031,342.841,38.263,344.305,35.31,344.276z"/>
		<path style="fill:#804169;" d="M105.931,273.655c-2.348,0.023-4.607-0.9-6.267-2.56c-1.66-1.66-2.583-3.919-2.56-6.267
			c0.031-2.338,0.945-4.577,2.56-6.268c2.56-2.463,6.329-3.189,9.621-1.854c1.069,0.449,2.054,1.075,2.914,1.854
			c1.612,1.693,2.526,3.931,2.561,6.268c0.023,2.348-0.9,4.607-2.56,6.267C110.538,272.755,108.279,273.678,105.931,273.655z"/>
		<path style="fill:#804169;" d="M105.931,344.276c-2.953,0.031-5.722-1.433-7.361-3.89c-1.638-2.457-1.924-5.576-0.76-8.291
			c0.426-1.081,1.055-2.07,1.854-2.914c2.526-2.546,6.34-3.311,9.652-1.936c3.312,1.375,5.463,4.617,5.442,8.203
			c0.023,2.348-0.9,4.607-2.56,6.267C110.538,343.376,108.279,344.299,105.931,344.276z"/>
		<path style="fill:#804169;" d="M176.552,273.655c-2.348,0.023-4.607-0.899-6.268-2.56c-0.778-0.859-1.405-1.845-1.854-2.914
			c-0.943-2.136-0.943-4.571,0-6.707c0.447-1.07,1.074-2.056,1.854-2.914c3.539-3.267,8.995-3.267,12.534,0
			c0.78,0.858,1.407,1.844,1.854,2.914c0.943,2.136,0.943,4.571,0,6.707c-0.449,1.069-1.075,2.054-1.854,2.914
			C181.156,272.753,178.899,273.675,176.552,273.655z"/>
		<path style="fill:#804169;" d="M105.931,203.034c-2.348,0.023-4.607-0.9-6.267-2.56c-1.66-1.66-2.583-3.919-2.56-6.267
			c0.031-2.338,0.945-4.577,2.56-6.268c0.418-0.379,0.859-0.733,1.319-1.06c0.493-0.336,1.03-0.603,1.595-0.793
			c0.5-0.255,1.034-0.435,1.586-0.535c1.132-0.259,2.308-0.259,3.44,0c0.586,0.086,1.153,0.267,1.681,0.535
			c0.563,0.191,1.096,0.457,1.586,0.793c0.463,0.327,0.907,0.681,1.328,1.06c1.611,1.693,2.525,3.931,2.56,6.268
			c0.023,2.348-0.9,4.607-2.56,6.267C110.538,202.135,108.279,203.057,105.931,203.034z"/>
		<path style="fill:#804169;" d="M176.552,344.276c-2.348,0.023-4.607-0.9-6.267-2.56c-1.66-1.66-2.583-3.919-2.56-6.267
			c0.031-2.338,0.945-4.577,2.56-6.268c2.098-2.045,5.062-2.936,7.94-2.388c0.586,0.086,1.153,0.267,1.681,0.535
			c0.563,0.191,1.096,0.457,1.586,0.793c0.463,0.327,0.907,0.681,1.328,1.06c1.611,1.693,2.525,3.931,2.56,6.268
			c0.023,2.348-0.9,4.607-2.56,6.267C181.158,343.376,178.9,344.299,176.552,344.276z"/>
	</g>
	<path style="fill:#F29C1F;" d="M388.414,300.138h35.31c9.751,0,17.655,7.904,17.655,17.655v35.31
		c0,9.751-7.904,17.655-17.655,17.655h-35.31c-9.751,0-17.655-7.905-17.655-17.655v-35.31
		C370.759,308.042,378.663,300.138,388.414,300.138z"/>
	<path style="fill:#F0C419;" d="M459.034,300.138h35.31c9.751,0,17.655,7.904,17.655,17.655v35.31
		c0,9.751-7.905,17.655-17.655,17.655h-35.31c-9.751,0-17.655-7.905-17.655-17.655v-35.31
		C441.379,308.042,449.284,300.138,459.034,300.138z"/>
	<path style="fill:#F29C1F;" d="M459.034,229.517h35.31c9.751,0,17.655,7.904,17.655,17.655v35.31
		c0,9.751-7.905,17.655-17.655,17.655h-35.31c-9.751,0-17.655-7.905-17.655-17.655v-35.31
		C441.379,237.422,449.284,229.517,459.034,229.517z"/>
	<g>
		<path style="fill:#E57E25;" d="M406.069,344.276c-1.153-0.014-2.293-0.254-3.353-0.707c-1.07-0.447-2.056-1.074-2.914-1.854
			c-1.661-1.66-2.584-3.919-2.56-6.267c0-4.875,3.952-8.828,8.828-8.828s8.828,3.952,8.828,8.828
			c-0.014,1.153-0.254,2.293-0.707,3.353c-0.449,1.069-1.075,2.054-1.854,2.914C410.674,343.373,408.416,344.296,406.069,344.276z"
			/>
		<path style="fill:#E57E25;" d="M476.69,344.276c-2.348,0.023-4.607-0.899-6.268-2.56c-0.776-0.881-1.431-1.86-1.948-2.914
			c-0.422-1.067-0.63-2.207-0.612-3.354c-0.032-1.158,0.21-2.307,0.707-3.353c0.447-1.07,1.074-2.056,1.854-2.914
			c2.105-2.033,5.063-2.922,7.94-2.388c0.586,0.086,1.153,0.267,1.681,0.534c0.543,0.174,1.051,0.442,1.5,0.793
			c0.526,0.353,0.974,0.707,1.414,1.06c0.78,0.858,1.407,1.844,1.854,2.914c0.943,2.136,0.943,4.571,0,6.707
			c-0.449,1.069-1.075,2.054-1.854,2.914C481.295,343.373,479.037,344.296,476.69,344.276z"/>
		<path style="fill:#E57E25;" d="M476.69,273.655c-2.348,0.023-4.607-0.9-6.267-2.56c-1.66-1.66-2.583-3.919-2.56-6.267
			c0.031-2.338,0.945-4.577,2.56-6.268c2.083-2.069,5.061-2.965,7.94-2.388c0.586,0.086,1.153,0.267,1.681,0.535
			c0.543,0.174,1.051,0.442,1.5,0.793c0.507,0.304,0.98,0.66,1.415,1.06c1.611,1.693,2.525,3.931,2.56,6.268
			c0.004,2.344-0.916,4.596-2.56,6.268c-0.859,0.778-1.845,1.405-2.914,1.854C478.982,273.401,477.843,273.641,476.69,273.655z"/>
	</g>
	<path style="fill:#E64C3C;" d="M291.31,176.552v-35.31c0-9.751,7.905-17.655,17.655-17.655h35.31
		c9.751,0,17.655,7.904,17.655,17.655v35.31c0,9.751-7.904,17.655-17.655,17.655h-35.31
		C299.215,194.207,291.31,186.302,291.31,176.552z"/>
	<g>
		<path style="fill:#CC4B4C;" d="M220.69,176.552v-35.31c0-9.751,7.904-17.655,17.655-17.655h35.31
			c9.751,0,17.655,7.904,17.655,17.655v35.31c0,9.751-7.904,17.655-17.655,17.655h-35.31
			C228.594,194.207,220.69,186.302,220.69,176.552z"/>
		<path style="fill:#CC4B4C;" d="M291.31,105.931v-35.31c0-9.751,7.905-17.655,17.655-17.655h35.31
			c9.751,0,17.655,7.904,17.655,17.655v35.31c0,9.751-7.904,17.655-17.655,17.655h-35.31
			C299.215,123.586,291.31,115.682,291.31,105.931z"/>
	</g>
	<path style="fill:#E64C3C;" d="M361.931,105.931v-35.31c0-9.751,7.904-17.655,17.655-17.655h35.31
		c9.751,0,17.655,7.904,17.655,17.655v35.31c0,9.751-7.904,17.655-17.655,17.655h-35.31
		C369.836,123.586,361.931,115.682,361.931,105.931z"/>
	<g>
		<path style="fill:#802D40;" d="M326.621,167.724c-1.153-0.014-2.293-0.254-3.353-0.707c-1.07-0.447-2.056-1.074-2.914-1.854
			c-2.528-2.525-3.263-6.337-1.854-9.621c0.426-1.081,1.055-2.07,1.854-2.914c3.539-3.267,8.995-3.267,12.534,0
			c0.78,0.858,1.407,1.844,1.854,2.914c0.943,2.136,0.943,4.571,0,6.707c-0.804,2.217-2.55,3.963-4.767,4.767
			C328.914,167.469,327.774,167.71,326.621,167.724z"/>
		<path style="fill:#802D40;" d="M256,167.724c-2.348,0.023-4.607-0.899-6.268-2.56c-0.778-0.859-1.405-1.845-1.854-2.914
			c-0.497-1.047-0.739-2.196-0.706-3.354c0.031-2.338,0.945-4.577,2.56-6.268c2.083-2.069,5.061-2.965,7.94-2.388
			c0.586,0.086,1.153,0.267,1.681,0.535c0.543,0.174,1.051,0.442,1.5,0.793c0.507,0.304,0.98,0.66,1.415,1.06
			c1.611,1.693,2.525,3.931,2.56,6.268c-0.014,1.153-0.254,2.293-0.707,3.353c-0.449,1.069-1.075,2.054-1.854,2.914
			C260.605,166.822,258.347,167.744,256,167.724z"/>
		<path style="fill:#802D40;" d="M326.621,97.103c-1.153-0.014-2.293-0.254-3.353-0.707c-1.07-0.447-2.056-1.074-2.914-1.854
			c-2.528-2.525-3.263-6.337-1.854-9.621c0.426-1.081,1.055-2.07,1.854-2.914c3.539-3.267,8.995-3.267,12.534,0
			c0.78,0.858,1.407,1.844,1.854,2.914c0.943,2.136,0.943,4.571,0,6.707c-0.804,2.217-2.55,3.963-4.767,4.767
			C328.914,96.849,327.774,97.089,326.621,97.103z"/>
		<path style="fill:#802D40;" d="M397.241,97.103c-2.348,0.023-4.607-0.899-6.268-2.56c-0.778-0.859-1.405-1.845-1.854-2.914
			c-0.497-1.047-0.739-2.196-0.706-3.354c0.014-1.153,0.254-2.293,0.707-3.353c1.066-2.777,3.478-4.817,6.394-5.407
			c2.916-0.591,5.931,0.35,7.994,2.493c0.78,0.858,1.407,1.844,1.854,2.914c1.163,2.715,0.876,5.833-0.762,8.29
			C402.962,95.669,400.194,97.133,397.241,97.103z"/>
	</g>
</g>
<g>
</g>
<g>
</g>
<g>
</g>
<g>
</g>
<g>
</g>
<g>
</g>
<g>
</g>
<g>
</g>
<g>
</g>
<g>
</g>
<g>
</g>
<g>
</g>
<g>
</g>
<g>
</g>
<g>
</g>
</svg>
