<?xml version="1.0" encoding="iso-8859-1"?>
<!-- Generator: Adobe Illustrator 19.0.0, SVG Export Plug-In . SVG Version: 6.00 Build 0)  -->
<svg version="1.1" id="Capa_1" xmlns="http://www.w3.org/2000/svg" xmlns:xlink="http://www.w3.org/1999/xlink" x="0px" y="0px"
	 viewBox="0 0 512 512" style="enable-background:new 0 0 512 512;" xml:space="preserve">
<g>
	<path style="fill:#14A085;" d="M512,35.31v353.103H0L0,35.31c-0.003-9.366,3.717-18.349,10.339-24.971S25.945-0.003,35.31,0H476.69
		c9.366-0.003,18.349,3.717,24.971,10.339C508.283,16.962,512.003,25.945,512,35.31z"/>
	<path style="fill:#A5A5A4;" d="M512,308.966v35.31c0,0-26.483-79.448-123.586-79.448h-1.501c13.771,33.968,13.771,71.963,0,105.931
		h-39.194c9.349-16.083,14.253-34.363,14.212-52.966c0.015-44.542-27.836-84.336-69.691-99.574s-88.771-2.666-117.398,31.46
		s-32.847,82.514-10.561,121.08h-39.194c-13.771-33.968-13.771-71.963,0-105.931h-1.501C26.483,264.828,0,344.276,0,344.276v-35.31
		L176.552,0h158.897L512,308.966z"/>
	<g>
		<polygon style="fill:#5E5F62;" points="176.552,0 0,308.966 0,247.172 141.241,0 		"/>
		<polygon style="fill:#5E5F62;" points="512,247.172 512,308.966 335.448,0 370.759,0 		"/>
	</g>
	<rect x="238.345" y="0" style="fill:#7F8C8D;" width="35.31" height="44.138"/>
	<path style="fill:#D1D4D1;" d="M203.034,44.138h105.931c9.751,0,17.655,7.904,17.655,17.655v17.655
		c0,9.751-7.905,17.655-17.655,17.655H203.034c-9.751,0-17.655-7.904-17.655-17.655V61.793
		C185.379,52.042,193.284,44.138,203.034,44.138z"/>
	<path style="fill:#ECF0F1;" d="M256,150.069c-2.342,0.001-4.588-0.928-6.244-2.584s-2.585-3.902-2.584-6.244v-17.655
		c0-4.875,3.952-8.828,8.828-8.828s8.828,3.952,8.828,8.828v17.655c0.001,2.342-0.928,4.588-2.584,6.244
		C260.588,149.141,258.342,150.07,256,150.069z"/>
	<path style="fill:#5E5F62;" d="M512,344.276v44.138H0v-44.138c0,0,26.483-79.448,123.586-79.448h1.501
		c-6.709,16.331,72.474-79.448,130.913-79.448s137.622,95.779,130.913,79.448h1.501C485.517,264.828,512,344.276,512,344.276z"/>
	<rect x="185.379" y="423.724" style="fill:#BDC3C7;" width="141.241" height="70.621"/>
	<g>
		<path style="fill:#95A5A5;" d="M512,370.759v35.31c0.003,9.366-3.717,18.348-10.339,24.971
			c-6.623,6.622-15.605,10.342-24.971,10.339H35.31c-9.366,0.003-18.348-3.717-24.971-10.339C3.717,424.417-0.003,415.435,0,406.069
			l0-35.31H512z"/>
		<rect x="114.759" y="476.69" style="fill:#95A5A5;" width="282.483" height="35.31"/>
		<polygon style="fill:#95A5A5;" points="141.241,300.138 201.19,300.138 310.81,300.138 370.759,300.138 370.759,335.448 
			310.81,335.448 201.19,335.448 141.338,335.448 		"/>
	</g>
	<g>
		<path style="fill:#ECF0F1;" d="M397.241,317.793c0.046,18.16-3.462,36.153-10.328,52.966h-39.194
			c9.349-16.083,14.253-34.363,14.212-52.966c0.015-44.542-27.836-84.336-69.691-99.574s-88.771-2.666-117.398,31.46
			s-32.847,82.514-10.561,121.08h-39.194c-13.771-33.968-13.771-71.963,0-105.931c21.573-53.352,73.364-88.275,130.913-88.275
			s109.34,34.923,130.913,88.275C393.779,281.64,397.288,299.633,397.241,317.793z"/>
		<circle style="fill:#ECF0F1;" cx="256" cy="317.793" r="52.966"/>
	</g>
</g>
<g>
</g>
<g>
</g>
<g>
</g>
<g>
</g>
<g>
</g>
<g>
</g>
<g>
</g>
<g>
</g>
<g>
</g>
<g>
</g>
<g>
</g>
<g>
</g>
<g>
</g>
<g>
</g>
<g>
</g>
</svg>
