<?xml version="1.0" encoding="iso-8859-1"?>
<!-- Generator: Adobe Illustrator 19.0.0, SVG Export Plug-In . SVG Version: 6.00 Build 0)  -->
<svg version="1.1" id="Capa_1" xmlns="http://www.w3.org/2000/svg" xmlns:xlink="http://www.w3.org/1999/xlink" x="0px" y="0px"
	 viewBox="0 0 512 512" style="enable-background:new 0 0 512 512;" xml:space="preserve">
<g>
	<path style="fill:#35495E;" d="M512,35.31v353.103H0L0,35.31c-0.003-9.366,3.717-18.349,10.339-24.971S25.945-0.003,35.31,0H476.69
		c9.366-0.003,18.349,3.717,24.971,10.339C508.283,16.962,512.003,25.945,512,35.31z"/>
	<rect x="185.379" y="423.724" style="fill:#BDC3C7;" width="141.241" height="70.621"/>
	<g>
		<path style="fill:#95A5A5;" d="M512,370.759v35.31c0.003,9.366-3.717,18.348-10.339,24.971
			c-6.623,6.622-15.605,10.342-24.971,10.339H35.31c-9.366,0.003-18.348-3.717-24.971-10.339C3.717,424.417-0.003,415.435,0,406.069
			l0-35.31H512z"/>
		<rect x="114.759" y="476.69" style="fill:#95A5A5;" width="282.483" height="35.31"/>
	</g>
	<path style="fill:#CBB292;" d="M354.251,370.759v-46.875c-8.702,6.536-19.307,10.04-30.19,9.975h-14.919
		c-11.214,0.054-22.263-2.708-32.132-8.033l-24.188-13.065v57.997"/>
	<path style="fill:#FDD7AD;" d="M161.368,370.759l4.855-56.408l0.706-8.651l-7.68-10.328l-62.588-84.745
		c-4.829-6.266-5.319-14.852-1.236-21.628l43.961-74.24c7.638-11.899,22.089-17.501,35.752-13.859
		c0.213,0.029,0.421,0.088,0.618,0.177l60.91,16.066l26.924,7.239c4.574,0.841,8.403,3.958,10.155,8.267
		c1.752,4.308,1.185,9.213-1.504,13.008l-8.033,10.946c-7.492,9.559-19.643,14.209-31.603,12.094l-34.074-5.561l-0.353,1.854
		l48.64,43.873c3.949,3.531,7.185,7.786,9.534,12.535l0.441-0.088l14.565-26.394l23.393,14.036
		c5.553,3.289,12.153,4.331,18.45,2.913l29.308,18.803c10.773,6.491,24.692,3.957,32.486-5.914l18.273-24.629l-23.393,100.281
		c-2.318,9.406-7.844,17.71-15.625,23.481c-8.702,6.536-19.307,10.04-30.19,9.975h-14.919c-11.214,0.054-22.263-2.708-32.132-8.033
		l-24.188-13.065v57.997"/>
	<path style="fill:#7F6E5D;" d="M261.989,65.355l-23.807,48.358l-0.076,0.141l-0.937,1.83l-0.469,1.478l-60.956-16.119
		c-0.199-0.081-0.41-0.128-0.625-0.141l32.081-57.789c4.157-6.826,12.635-9.653,20.057-6.687l26.616,10.277
		c3.691,1.213,6.688,3.945,8.239,7.507C263.661,57.772,263.617,61.827,261.989,65.355z"/>
	<path style="fill:#CBB292;" d="M332.309,84.924l-6.555,11.896l-31.376,56.452l-23.026,41.6l-14.596,26.396l-0.388,0.141
		c-2.339-4.749-5.571-9.003-9.52-12.529l-48.704-43.923l0.388-1.83l34.032,5.561c11.966,2.137,24.132-2.523,31.608-12.107
		l8.041-10.91c2.706-3.789,3.292-8.698,1.553-13.017c-1.739-4.32-5.562-7.453-10.139-8.311l-26.928-7.18l0.469-1.478l0.937-1.83
		l0.076-0.141l30.674-60.817c2.161-3.801,5.747-6.584,9.966-7.733c4.218-1.149,8.721-0.57,12.511,1.609l35.278,19.92
		c3.205,1.63,5.617,4.483,6.69,7.915C334.374,78.04,334.016,81.759,332.309,84.924z"/>
	<path style="fill:#7F6E5D;" d="M379.451,124.06c-0.39,0.953-0.861,1.871-1.406,2.745l-50.183,75.458
		c-3.422,5.03-8.698,8.498-14.672,9.643c-6.294,1.38-12.876,0.324-18.422-2.956l-23.415-14.078l23.026-41.6l31.376-56.452
		c2.366-3.678,6.098-6.264,10.373-7.189c4.275-0.924,8.742-0.111,12.416,2.261l25.209,16.26
		C379.226,111.399,381.618,118.078,379.451,124.06z"/>
	<g>
		<path style="fill:#CBB292;" d="M416.68,168.476l-23.414,31.675l-18.262,24.636c-7.803,9.844-21.697,12.374-32.469,5.912
			l-29.344-18.794c5.974-1.146,11.251-4.613,14.672-9.643l50.183-75.458c0.546-0.873,1.016-1.792,1.406-2.745l34.264,25.762
			c2.908,2.049,4.863,5.187,5.421,8.701C419.695,162.036,418.809,165.626,416.68,168.476z"/>
		<path style="fill:#CBB292;" d="M269.043,296.302c-2.341,0.001-4.587-0.929-6.243-2.585c-1.656-1.656-2.585-3.901-2.585-6.243
			v-31.741c0.018-4.638-1.088-9.211-3.224-13.327c-2.243-4.328-0.552-9.654,3.776-11.897c4.328-2.243,9.654-0.552,11.897,3.776
			c3.446,6.623,5.233,13.983,5.207,21.448v31.741c0.001,2.341-0.929,4.587-2.585,6.243
			C273.63,295.372,271.385,296.302,269.043,296.302z"/>
		<path style="fill:#CBB292;" d="M222.543,312.673c0.015,0.473-0.015,0.945-0.088,1.412c-0.612,4.307-4.301,7.507-8.651,7.503
			c-0.473,0.018-0.946-0.012-1.412-0.088l-46.168-7.15l0.706-8.651l-7.68-10.328l55.879,8.651
			C219.386,304.7,222.525,308.362,222.543,312.673z"/>
	</g>
</g>
<g>
</g>
<g>
</g>
<g>
</g>
<g>
</g>
<g>
</g>
<g>
</g>
<g>
</g>
<g>
</g>
<g>
</g>
<g>
</g>
<g>
</g>
<g>
</g>
<g>
</g>
<g>
</g>
<g>
</g>
</svg>
