<?xml version="1.0" encoding="iso-8859-1"?>
<!-- Generator: Adobe Illustrator 19.0.0, SVG Export Plug-In . SVG Version: 6.00 Build 0)  -->
<svg version="1.1" id="Capa_1" xmlns="http://www.w3.org/2000/svg" xmlns:xlink="http://www.w3.org/1999/xlink" x="0px" y="0px"
	 viewBox="0 0 512 512" style="enable-background:new 0 0 512 512;" xml:space="preserve">
<g>
	<path style="fill:#67B9CC;" d="M485.517,270.477v73.799H26.483l0-317.793c-0.009-7.027,2.778-13.768,7.746-18.737
		C39.198,2.778,45.939-0.009,52.966,0h406.069c7.027-0.009,13.768,2.778,18.737,7.746c4.969,4.969,7.756,11.71,7.746,18.737V270.477
		z"/>
	<path style="fill:#CB8252;" d="M494.345,353.103v132.414c0,14.626-11.857,26.483-26.483,26.483H44.138
		c-14.626,0-26.483-11.857-26.483-26.483V353.103H494.345z"/>
	<path style="fill:#4C8056;" d="M485.517,317.793H26.483C11.857,317.793,0,329.65,0,344.276v26.483h0.127
		c0.622,19.68,16.755,35.311,36.444,35.311s35.822-15.631,36.444-35.311h0.254c0.622,19.68,16.755,35.311,36.444,35.311
		s35.822-15.631,36.444-35.311h0.254c0.622,19.679,16.755,35.31,36.444,35.31s35.822-15.631,36.444-35.31h0.254
		c0.619,19.682,16.753,35.317,36.445,35.317s35.826-15.635,36.445-35.317h0.254c0.623,19.679,16.755,35.31,36.444,35.31
		c19.689,0,35.822-15.631,36.444-35.31h0.254c0.622,19.68,16.755,35.311,36.444,35.311s35.822-15.631,36.444-35.311h0.254
		c0.622,19.68,16.755,35.311,36.444,35.311c19.689,0,35.823-15.631,36.444-35.311H512v-26.483
		C512,329.65,500.143,317.793,485.517,317.793z"/>
	<g>
		<circle style="fill:#805333;" cx="145.655" cy="454.621" r="22.069"/>
		<circle style="fill:#805333;" cx="220.69" cy="450.207" r="17.655"/>
		<circle style="fill:#805333;" cx="70.621" cy="450.207" r="17.655"/>
		<circle style="fill:#805333;" cx="366.345" cy="454.621" r="22.069"/>
		<circle style="fill:#805333;" cx="441.379" cy="450.207" r="17.655"/>
		<circle style="fill:#805333;" cx="291.31" cy="450.207" r="17.655"/>
		<path style="fill:#805333;" d="M105.931,494.345c-1.155-0.014-2.296-0.254-3.358-0.707c-1.068-0.448-2.052-1.075-2.909-1.854
			c-2.525-2.527-3.261-6.335-1.858-9.621c0.427-1.081,1.058-2.07,1.857-2.914c0.857-0.779,1.841-1.406,2.909-1.854
			c3.289-1.379,7.084-0.648,9.625,1.854c0.797,0.845,1.426,1.834,1.854,2.914c1.409,3.284,0.675,7.096-1.853,9.621
			c-0.859,0.779-1.844,1.406-2.914,1.854C108.224,494.091,107.084,494.331,105.931,494.345z"/>
		<path style="fill:#805333;" d="M185.379,494.345c-1.155-0.014-2.296-0.254-3.358-0.707c-1.068-0.448-2.052-1.075-2.91-1.854
			c-2.525-2.527-3.261-6.335-1.858-9.621c0.427-1.081,1.058-2.07,1.857-2.914c0.857-0.779,1.841-1.406,2.909-1.854
			c3.288-1.387,7.088-0.655,9.625,1.854c0.797,0.845,1.426,1.834,1.854,2.914c1.409,3.284,0.675,7.096-1.853,9.621
			c-0.859,0.779-1.844,1.406-2.914,1.854C187.672,494.091,186.533,494.331,185.379,494.345z"/>
		<path style="fill:#805333;" d="M256,494.345c-1.155-0.014-2.296-0.254-3.358-0.707c-1.068-0.448-2.052-1.075-2.91-1.854
			c-2.525-2.527-3.261-6.335-1.858-9.621c0.427-1.081,1.058-2.07,1.857-2.914c2.063-2.143,5.078-3.084,7.994-2.493
			c2.916,0.59,5.327,2.63,6.394,5.407c1.163,2.714,0.876,5.832-0.762,8.289C261.721,492.91,258.953,494.374,256,494.345z"/>
		<path style="fill:#805333;" d="M326.621,494.345c-1.155-0.014-2.296-0.254-3.358-0.707c-1.068-0.448-2.052-1.075-2.909-1.854
			c-2.525-2.527-3.261-6.335-1.858-9.621c0.427-1.081,1.058-2.07,1.857-2.914c0.857-0.779,1.841-1.406,2.909-1.854
			c2.14-0.931,4.571-0.931,6.711,0c1.08,0.427,2.069,1.056,2.914,1.854c1.612,1.693,2.526,3.931,2.561,6.268
			c0.022,2.348-0.9,4.606-2.56,6.268c-0.859,0.779-1.844,1.406-2.914,1.854C328.913,494.091,327.774,494.331,326.621,494.345z"/>
		<path style="fill:#805333;" d="M406.069,494.345c-1.155-0.014-2.296-0.254-3.358-0.707c-1.068-0.448-2.052-1.075-2.909-1.854
			c-2.525-2.527-3.261-6.335-1.858-9.621c0.427-1.081,1.058-2.07,1.857-2.914c2.535-2.509,6.334-3.241,9.621-1.854
			c1.08,0.427,2.069,1.056,2.914,1.854c1.612,1.693,2.526,3.931,2.561,6.268c0.022,2.348-0.9,4.606-2.56,6.268
			c-0.859,0.779-1.844,1.406-2.914,1.854C408.362,494.091,407.222,494.331,406.069,494.345z"/>
	</g>
	<path style="fill:#D1D4D1;" d="M414.897,220.69c0.013,9.369-3.704,18.357-10.328,24.982c-6.625,6.625-15.613,10.341-24.982,10.328
		l-70.621,0c19.501,0,35.31-15.809,35.31-35.31s-15.809-35.31-35.31-35.31h70.621c9.366-0.003,18.349,3.717,24.971,10.339
		C411.18,202.341,414.899,211.324,414.897,220.69z"/>
	<path style="fill:#14A085;" d="M344.276,220.69c0.012,9.369-3.704,18.357-10.328,24.982c-6.625,6.625-15.613,10.341-24.982,10.328
		H132.414c-1.236,0-2.383-0.088-3.619-0.177c-5.129-0.513-10.077-2.172-14.477-4.855c-5.158-3.009-9.423-7.335-12.359-12.535
		c-3.184-5.371-4.861-11.5-4.855-17.743c-0.013-9.369,3.703-18.358,10.328-24.982c6.625-6.625,15.613-10.341,24.982-10.328h176.552
		c0.796-0.015,1.591,0.015,2.383,0.088C329.861,186.761,344.231,202.133,344.276,220.69z"/>
	<g>
		<path style="fill:#46B29D;" d="M179.112,185.379l-64.794,65.589c-5.158-3.009-9.423-7.335-12.359-12.535l52.436-53.054H179.112z"
			/>
		<path style="fill:#46B29D;" d="M223.25,185.379L153.335,256h-20.921c-1.236,0-2.383-0.088-3.619-0.177l69.65-70.444H223.25z"/>
		<polygon style="fill:#46B29D;" points="267.388,185.379 197.473,256 172.756,256 242.582,185.379 		"/>
		<path style="fill:#46B29D;" d="M311.349,185.468L241.611,256h-24.717l69.826-70.621h22.246
			C309.761,185.365,310.557,185.394,311.349,185.468z"/>
		<path style="fill:#46B29D;" d="M338.979,202.152L285.749,256h-24.806l65.324-66.03
			C331.491,192.857,335.872,197.056,338.979,202.152z"/>
	</g>
	<g>
		<path style="fill:#E6E7E8;" d="M291.266,97.544c0.002-0.15,0.044-0.289,0.044-0.44c0-19.501-15.809-35.31-35.31-35.31
			s-35.31,15.809-35.31,35.31c0,0.151,0.043,0.29,0.044,0.44c-11.114,2.244-18.718,12.545-17.59,23.826
			c1.128,11.282,10.622,19.873,21.96,19.871h61.793c11.338,0.001,20.832-8.59,21.96-19.871S302.38,99.788,291.266,97.544z"/>
		<path style="fill:#E6E7E8;" d="M485.517,50.141v82.273H375.172c-12.188,0-22.069-9.881-22.069-22.069s9.881-22.069,22.069-22.069
			h4.855c2.158-15.17,15.132-26.452,30.455-26.483c2.225,0.007,4.444,0.244,6.621,0.706c4.529-13.785,16.247-23.98,30.525-26.559
			C461.907,33.361,476.451,38.812,485.517,50.141z"/>
		<path style="fill:#E6E7E8;" d="M158.897,110.345c-0.004,12.187-9.882,22.065-22.069,22.069H26.483V50.141
			c9.066-11.329,23.61-16.78,37.888-14.201s25.996,12.774,30.525,26.559c2.177-0.462,4.395-0.699,6.621-0.706
			c15.323,0.031,28.297,11.312,30.455,26.483h4.855C149.014,88.28,158.892,98.158,158.897,110.345z"/>
	</g>
</g>
<g>
</g>
<g>
</g>
<g>
</g>
<g>
</g>
<g>
</g>
<g>
</g>
<g>
</g>
<g>
</g>
<g>
</g>
<g>
</g>
<g>
</g>
<g>
</g>
<g>
</g>
<g>
</g>
<g>
</g>
</svg>
