<?xml version="1.0" encoding="iso-8859-1"?>
<!-- Generator: Adobe Illustrator 19.0.0, SVG Export Plug-In . SVG Version: 6.00 Build 0)  -->
<svg version="1.1" id="Capa_1" xmlns="http://www.w3.org/2000/svg" xmlns:xlink="http://www.w3.org/1999/xlink" x="0px" y="0px"
	 viewBox="0 0 512 512" style="enable-background:new 0 0 512 512;" xml:space="preserve">
<g>
	<polygon style="fill:#67B9CC;" points="485.517,211.686 432.552,361.931 79.448,361.931 26.483,211.686 79.448,0 432.552,0 	"/>
	<g>
		<path style="fill:#E4C05C;" d="M485.517,26.483v185.203c0,0-123.586,11.034-123.586-132.237
			c9.739-0.029,17.627-7.916,17.655-17.655V0h79.448c7.027-0.009,13.768,2.778,18.737,7.746S485.527,19.456,485.517,26.483z"/>
		<path style="fill:#E4C05C;" d="M150.069,79.448c0,143.272-123.586,132.237-123.586,132.237V26.483
			c-0.009-7.027,2.778-13.768,7.746-18.737C39.198,2.778,45.939-0.009,52.966,0h79.448v61.793
			C132.484,71.514,140.348,79.378,150.069,79.448z"/>
	</g>
	<g>
		<path style="fill:#B19046;" d="M97.103,317.793l-70.621,17.655V211.686C26.483,211.686,97.103,238.345,97.103,317.793z"/>
		<path style="fill:#B19046;" d="M485.517,211.686v123.763l-70.621-17.655C414.897,238.345,485.517,211.686,485.517,211.686z"/>
	</g>
	<path style="fill:#CB8252;" d="M494.345,353.103v132.414c0,14.626-11.857,26.483-26.483,26.483H44.138
		c-14.626,0-26.483-11.857-26.483-26.483V353.103H494.345z"/>
	<g>
		<circle style="fill:#805333;" cx="145.655" cy="454.621" r="22.069"/>
		<circle style="fill:#805333;" cx="220.69" cy="450.207" r="17.655"/>
		<circle style="fill:#805333;" cx="70.621" cy="450.207" r="17.655"/>
		<circle style="fill:#805333;" cx="366.345" cy="454.621" r="22.069"/>
		<circle style="fill:#805333;" cx="441.379" cy="450.207" r="17.655"/>
		<circle style="fill:#805333;" cx="291.31" cy="450.207" r="17.655"/>
		<path style="fill:#805333;" d="M105.931,494.345c-1.155-0.014-2.296-0.254-3.358-0.707c-1.068-0.448-2.052-1.075-2.909-1.854
			c-2.525-2.527-3.261-6.335-1.858-9.621c0.427-1.081,1.058-2.07,1.857-2.914c0.857-0.779,1.841-1.406,2.909-1.854
			c3.289-1.379,7.084-0.648,9.625,1.854c0.797,0.845,1.426,1.834,1.854,2.914c1.409,3.284,0.675,7.096-1.853,9.621
			c-0.859,0.779-1.844,1.406-2.914,1.854C108.224,494.091,107.084,494.331,105.931,494.345z"/>
		<path style="fill:#805333;" d="M185.379,494.345c-1.155-0.014-2.296-0.254-3.358-0.707c-1.068-0.448-2.052-1.075-2.91-1.854
			c-2.525-2.527-3.261-6.335-1.858-9.621c0.427-1.081,1.058-2.07,1.857-2.914c0.857-0.779,1.841-1.406,2.909-1.854
			c3.288-1.387,7.088-0.655,9.625,1.854c0.797,0.845,1.426,1.834,1.854,2.914c1.409,3.284,0.675,7.096-1.853,9.621
			c-0.859,0.779-1.844,1.406-2.914,1.854C187.672,494.091,186.533,494.331,185.379,494.345z"/>
		<path style="fill:#805333;" d="M256,494.345c-1.155-0.014-2.296-0.254-3.358-0.707c-1.068-0.448-2.052-1.075-2.91-1.854
			c-2.525-2.527-3.261-6.335-1.858-9.621c0.427-1.081,1.058-2.07,1.857-2.914c2.063-2.143,5.078-3.084,7.994-2.493
			c2.916,0.59,5.327,2.63,6.394,5.407c1.163,2.714,0.876,5.832-0.762,8.289C261.721,492.91,258.953,494.374,256,494.345z"/>
		<path style="fill:#805333;" d="M326.621,494.345c-1.155-0.014-2.296-0.254-3.358-0.707c-1.068-0.448-2.052-1.075-2.909-1.854
			c-2.525-2.527-3.261-6.335-1.858-9.621c0.427-1.081,1.058-2.07,1.857-2.914c0.857-0.779,1.841-1.406,2.909-1.854
			c2.14-0.931,4.571-0.931,6.711,0c1.08,0.427,2.069,1.056,2.914,1.854c1.612,1.693,2.526,3.931,2.561,6.268
			c0.022,2.348-0.9,4.606-2.56,6.268c-0.859,0.779-1.844,1.406-2.914,1.854C328.913,494.091,327.774,494.331,326.621,494.345z"/>
		<path style="fill:#805333;" d="M406.069,494.345c-1.155-0.014-2.296-0.254-3.358-0.707c-1.068-0.448-2.052-1.075-2.909-1.854
			c-2.525-2.527-3.261-6.335-1.858-9.621c0.427-1.081,1.058-2.07,1.857-2.914c2.535-2.509,6.334-3.241,9.621-1.854
			c1.08,0.427,2.069,1.056,2.914,1.854c1.612,1.693,2.526,3.931,2.561,6.268c0.022,2.348-0.9,4.606-2.56,6.268
			c-0.859,0.779-1.844,1.406-2.914,1.854C408.362,494.091,407.222,494.331,406.069,494.345z"/>
	</g>
	<g>
		<path style="fill:#F9EAB0;" d="M52.966,167.724c-4.316,0-7.999-3.12-8.709-7.377c-0.71-4.257,1.761-8.403,5.842-9.804
			c0.991-0.353,20.522-7.767,20.522-35.784c0-4.875,3.952-8.828,8.828-8.828s8.828,3.952,8.828,8.828
			c0,41.198-31.19,52.069-32.517,52.509C54.858,167.569,53.915,167.724,52.966,167.724z"/>
		<path style="fill:#F9EAB0;" d="M459.034,167.724c-0.95,0-1.893-0.155-2.793-0.457c-1.328-0.44-32.517-11.31-32.517-52.509
			c0-4.875,3.952-8.828,8.828-8.828s8.828,3.952,8.828,8.828c0,28.621,20.242,35.698,20.448,35.767
			c4.107,1.369,6.615,5.514,5.921,9.788S463.364,167.725,459.034,167.724z"/>
	</g>
	<g>
		<path style="fill:#ECF0F1;" d="M256,326.621c-2.341,0.001-4.587-0.929-6.243-2.585c-1.656-1.656-2.585-3.901-2.585-6.243V79.448
			c0-4.875,3.952-8.828,8.828-8.828c4.875,0,8.828,3.952,8.828,8.828v238.345c0.001,2.341-0.929,4.587-2.585,6.243
			C260.587,325.691,258.341,326.621,256,326.621z"/>
		<path style="fill:#ECF0F1;" d="M220.69,326.621c-2.341,0.001-4.587-0.929-6.243-2.585c-1.656-1.656-2.585-3.901-2.585-6.243
			V123.586c0-4.875,3.952-8.828,8.828-8.828s8.828,3.952,8.828,8.828v194.207c0.001,2.341-0.929,4.587-2.585,6.243
			C225.277,325.691,223.031,326.621,220.69,326.621z"/>
		<path style="fill:#ECF0F1;" d="M185.379,326.621c-2.341,0.001-4.587-0.929-6.243-2.585c-1.656-1.656-2.585-3.901-2.585-6.243
			V176.552c0-4.875,3.952-8.828,8.828-8.828s8.828,3.952,8.828,8.828v141.241c0.001,2.341-0.929,4.587-2.585,6.243
			C189.966,325.691,187.721,326.621,185.379,326.621z"/>
		<path style="fill:#ECF0F1;" d="M150.069,326.621c-2.341,0.001-4.587-0.929-6.243-2.585c-1.656-1.656-2.585-3.901-2.585-6.243
			v-79.448c0-4.875,3.952-8.828,8.828-8.828c4.875,0,8.828,3.952,8.828,8.828v79.448c0.001,2.341-0.929,4.587-2.585,6.243
			C154.656,325.691,152.41,326.621,150.069,326.621z"/>
		<path style="fill:#ECF0F1;" d="M291.31,326.621c-2.341,0.001-4.587-0.929-6.243-2.585c-1.656-1.656-2.585-3.901-2.585-6.243
			V123.586c0-4.875,3.952-8.828,8.828-8.828s8.828,3.952,8.828,8.828v194.207c0.001,2.341-0.929,4.587-2.585,6.243
			C295.897,325.691,293.652,326.621,291.31,326.621z"/>
		<path style="fill:#ECF0F1;" d="M326.621,326.621c-2.341,0.001-4.587-0.929-6.243-2.585c-1.656-1.656-2.585-3.901-2.585-6.243
			V176.552c0-4.875,3.952-8.828,8.828-8.828s8.828,3.952,8.828,8.828v141.241c0.001,2.341-0.929,4.587-2.585,6.243
			C331.208,325.691,328.962,326.621,326.621,326.621z"/>
		<path style="fill:#ECF0F1;" d="M361.931,326.621c-2.341,0.001-4.587-0.929-6.243-2.585c-1.656-1.656-2.585-3.901-2.585-6.243
			v-79.448c0-4.875,3.952-8.828,8.828-8.828c4.875,0,8.828,3.952,8.828,8.828v79.448c0.001,2.341-0.929,4.587-2.585,6.243
			C366.518,325.691,364.272,326.621,361.931,326.621z"/>
	</g>
	<g>
		<path style="fill:#F29C1F;" d="M414.897,0v61.793c-0.029,9.739-7.916,17.627-17.655,17.655c-4.684,0.025-9.176-1.855-12.447-5.208
			c-3.094-3.051-4.949-7.139-5.208-11.476V0H414.897z"/>
		<path style="fill:#F29C1F;" d="M61.793,0v61.793c-0.029,9.739-7.916,17.627-17.655,17.655
			c-9.721-0.071-17.585-7.934-17.655-17.655v-35.31c-0.009-7.027,2.778-13.768,7.746-18.736S45.939-0.009,52.966,0L61.793,0z"/>
	</g>
	<path style="fill:#E57E25;" d="M97.103,0v62.411c-0.357,9.498-8.151,17.018-17.655,17.037c-9.721-0.071-17.585-7.934-17.655-17.655
		V0H97.103z"/>
	<path style="fill:#F29C1F;" d="M203.035,0v61.793c-0.029,9.739-7.916,17.627-17.655,17.655
		c-9.721-0.071-17.585-7.934-17.655-17.655V0H203.035z"/>
	<path style="fill:#E57E25;" d="M238.345,0v62.411c-0.357,9.498-8.151,17.018-17.655,17.037
		c-9.721-0.071-17.585-7.934-17.655-17.655V0H238.345z"/>
	<path style="fill:#F29C1F;" d="M273.655,0v62.411c-0.357,9.498-8.151,17.018-17.655,17.037c-4.684,0.025-9.176-1.855-12.447-5.208
		c-3.186-3.131-5.05-7.365-5.208-11.829V0H273.655z"/>
	<path style="fill:#E57E25;" d="M308.966,0v62.499c-0.426,9.453-8.193,16.909-17.655,16.949c-4.684,0.025-9.176-1.855-12.447-5.208
		c-3.186-3.131-5.05-7.365-5.208-11.829V0H308.966z"/>
	<path style="fill:#F29C1F;" d="M344.276,0v62.588c-0.464,9.421-8.223,16.83-17.655,16.861c-4.684,0.025-9.176-1.855-12.447-5.208
		c-3.134-3.131-4.991-7.316-5.208-11.741V0H344.276z"/>
	<path style="fill:#E57E25;" d="M379.586,0v62.764h-0.088c-0.011,0.651-0.07,1.3-0.177,1.942c-0.016,0.273-0.076,0.541-0.177,0.794
		c-0.106,0.598-0.253,1.188-0.441,1.766c-0.177,0.441-0.353,0.971-0.53,1.412c-0.263,0.776-0.619,1.517-1.06,2.207
		c-0.088,0.088-0.177,0.088-0.177,0.177c-0.137,0.195-0.255,0.401-0.353,0.618c-0.139,0.129-0.258,0.278-0.353,0.441l-1.059,1.324
		c-0.213,0.257-0.449,0.493-0.706,0.706c0,0.088,0,0.088-0.088,0.088c-0.516,0.546-1.077,1.048-1.677,1.501l-1.059,0.794
		c-0.245,0.18-0.512,0.329-0.794,0.441c-0.173,0.168-0.385,0.29-0.618,0.353c-0.088,0.088-0.177,0.088-0.265,0.177
		c-0.316,0.164-0.64,0.311-0.971,0.441c-0.07,0.068-0.168,0.1-0.265,0.088l-0.088,0.088c-0.791,0.357-1.621,0.623-2.472,0.794
		c-0.265,0.088-0.618,0.088-0.883,0.177c-0.177,0-0.265,0.088-0.441,0.088c-0.088,0-0.177,0.088-0.265,0
		c-0.463,0.108-0.937,0.167-1.412,0.177c0,0.088,0,0.088-0.088,0c-0.378,0.073-0.763,0.103-1.147,0.088
		c-4.684,0.025-9.176-1.855-12.447-5.208c-3.114-3.109-4.969-7.259-5.208-11.652V0H379.586z"/>
	<path style="fill:#F29C1F;" d="M132.414,0v62.588c-0.464,9.421-8.222,16.83-17.655,16.861c-4.684,0.025-9.176-1.855-12.447-5.208
		c-3.186-3.131-5.05-7.365-5.208-11.829V0H132.414z"/>
	<g>
		<path style="fill:#E57E25;" d="M167.724,0v61.793c-0.029,9.739-7.916,17.627-17.655,17.655c-4.684,0.025-9.176-1.855-12.447-5.208
			c-0.31-0.251-0.578-0.549-0.794-0.883c-0.177-0.088-0.265-0.265-0.353-0.353c-0.351-0.39-0.675-0.803-0.971-1.236
			c0-0.088,0-0.088-0.088-0.088c-0.481-0.757-0.895-1.554-1.236-2.383c-0.088-0.177-0.177-0.265-0.177-0.441l-0.088-0.088
			c-0.155-0.278-0.274-0.575-0.353-0.883c-0.357-0.822-0.623-1.68-0.794-2.56c-0.18-0.841-0.269-1.7-0.265-2.56
			c-0.048-0.048-0.079-0.11-0.089-0.177V0H167.724z"/>
		<path style="fill:#E57E25;" d="M450.207,0v61.793c-0.029,9.739-7.916,17.627-17.655,17.655
			c-9.721-0.071-17.585-7.934-17.655-17.655V0H450.207z"/>
	</g>
	<path style="fill:#F29C1F;" d="M485.517,26.483v35.31c-0.029,9.739-7.916,17.627-17.655,17.655
		c-9.721-0.071-17.585-7.934-17.655-17.655V0l8.828,0c7.027-0.009,13.768,2.778,18.737,7.746S485.527,19.456,485.517,26.483z"/>
	<path style="fill:#4C8056;" d="M485.517,317.793H26.483C11.857,317.793,0,329.65,0,344.276v26.483h0.127
		c0.622,19.68,16.755,35.311,36.444,35.311s35.822-15.631,36.444-35.311h0.254c0.622,19.68,16.755,35.311,36.444,35.311
		s35.822-15.631,36.444-35.311h0.254c0.622,19.679,16.755,35.31,36.444,35.31s35.822-15.631,36.444-35.31h0.254
		c0.619,19.682,16.753,35.317,36.445,35.317s35.826-15.635,36.445-35.317h0.254c0.623,19.679,16.755,35.31,36.444,35.31
		c19.689,0,35.822-15.631,36.444-35.31h0.254c0.622,19.68,16.755,35.311,36.444,35.311s35.822-15.631,36.444-35.311h0.254
		c0.622,19.68,16.755,35.311,36.444,35.311c19.689,0,35.823-15.631,36.444-35.311H512v-26.483
		C512,329.65,500.143,317.793,485.517,317.793z"/>
</g>
<g>
</g>
<g>
</g>
<g>
</g>
<g>
</g>
<g>
</g>
<g>
</g>
<g>
</g>
<g>
</g>
<g>
</g>
<g>
</g>
<g>
</g>
<g>
</g>
<g>
</g>
<g>
</g>
<g>
</g>
</svg>
