<?xml version="1.0" encoding="iso-8859-1"?>
<!-- Generator: Adobe Illustrator 19.0.0, SVG Export Plug-In . SVG Version: 6.00 Build 0)  -->
<svg version="1.1" id="Capa_1" xmlns="http://www.w3.org/2000/svg" xmlns:xlink="http://www.w3.org/1999/xlink" x="0px" y="0px"
	 viewBox="0 0 512 512" style="enable-background:new 0 0 512 512;" xml:space="preserve">
<g>
	<g>
		<path style="fill:#35495E;" d="M61.793,397.241c-2.342,0.001-4.588-0.928-6.244-2.584c-1.656-1.656-2.585-3.902-2.584-6.244
			V79.448c0-4.875,3.952-8.828,8.828-8.828s8.828,3.952,8.828,8.828v308.966c0.001,2.342-0.928,4.588-2.584,6.244
			S64.135,397.243,61.793,397.241z"/>
		<path style="fill:#35495E;" d="M450.207,256c-2.342,0.001-4.588-0.928-6.244-2.584c-1.656-1.656-2.585-3.902-2.584-6.244V79.448
			c0-4.875,3.952-8.828,8.828-8.828c4.875,0,8.828,3.952,8.828,8.828v167.724c0.001,2.342-0.928,4.588-2.584,6.244
			C454.795,255.072,452.549,256.001,450.207,256z"/>
		<path style="fill:#35495E;" d="M185.388,247.172c-2.713,0.006-5.277-1.237-6.954-3.37c-1.676-2.133-2.279-4.918-1.633-7.553
			c6.388-26.19,10.698-79.198,13.836-117.905c1.448-17.767,2.586-31.81,3.638-40.017c0.396-3.133,2.434-5.817,5.347-7.038
			c2.913-1.221,6.256-0.793,8.767,1.122c2.511,1.915,3.809,5.025,3.403,8.157c-1.009,7.81-2.189,22.362-3.552,39.207
			c-3.198,39.293-7.569,93.112-14.284,120.664C192.993,244.39,189.454,247.17,185.388,247.172z"/>
		<path style="fill:#35495E;" d="M318,240.259c-6.845-39.66-11.548-79.661-14.086-119.828c-1.431-16.991-2.655-31.664-3.707-39.862
			l17.517-2.241c1.095,8.586,2.336,23.44,3.776,40.629c2.497,39.374,7.084,78.587,13.741,117.474L318,240.259z"/>
	</g>
	<g>
		<circle style="fill:#41767F;" cx="379.586" cy="79.448" r="79.448"/>
		<circle style="fill:#41767F;" cx="132.414" cy="79.448" r="79.448"/>
	</g>
	<path style="fill:#D1D4D1;" d="M423.724,70.621h-10.081c-0.823-3.16-2.085-6.188-3.749-8.998l7.14-7.14
		c3.447-3.447,3.447-9.036,0-12.483c-3.447-3.447-9.036-3.447-12.483,0l-7.14,7.14c-2.809-1.664-5.838-2.926-8.998-3.749V35.31
		c0-4.875-3.952-8.828-8.828-8.828s-8.828,3.952-8.828,8.828v10.081c-3.16,0.823-6.189,2.085-8.998,3.749l-7.14-7.14
		c-2.229-2.236-5.482-3.112-8.532-2.297c-3.05,0.815-5.432,3.198-6.248,6.248c-0.815,3.05,0.06,6.303,2.297,8.532l7.14,7.14
		c-1.664,2.809-2.926,5.838-3.749,8.998h-10.081c-4.875,0-8.828,3.952-8.828,8.828c0,4.875,3.952,8.828,8.828,8.828h10.081
		c0.823,3.16,2.085,6.188,3.749,8.998l-7.14,7.14c-2.23,2.23-3.101,5.48-2.284,8.526c0.816,3.046,3.195,5.425,6.241,6.241
		c3.046,0.816,6.296-0.055,8.526-2.285l7.14-7.14c2.809,1.664,5.838,2.926,8.998,3.749v10.081c0,4.875,3.952,8.828,8.828,8.828
		s8.828-3.952,8.828-8.828v-10.081c3.16-0.823,6.189-2.085,8.998-3.749l7.14,7.14c2.23,2.23,5.48,3.101,8.526,2.285
		c3.046-0.816,5.425-3.195,6.241-6.241c0.816-3.046-0.055-6.296-2.284-8.526l-7.14-7.14c1.664-2.809,2.926-5.838,3.749-8.998h10.081
		c4.875,0,8.828-3.952,8.828-8.828C432.552,74.573,428.599,70.621,423.724,70.621z M379.586,97.103
		c-9.751,0-17.655-7.904-17.655-17.655s7.905-17.655,17.655-17.655s17.655,7.904,17.655,17.655
		C397.229,89.194,389.332,97.091,379.586,97.103z"/>
	<circle style="fill:#41767F;" cx="256" cy="238.345" r="79.448"/>
	<g>
		<path style="fill:#67B9CC;" d="M81.778,393.656c-1.417-3.188-4.578-5.243-8.067-5.242H49.875c-3.489,0-6.65,2.054-8.067,5.242
			L8.828,467.862v35.31c0,4.875,3.952,8.828,8.828,8.828h88.276c4.875,0,8.828-3.952,8.828-8.828v-35.31L81.778,393.656z"/>
		<path style="fill:#67B9CC;" d="M470.192,252.415c-1.416-3.188-4.578-5.243-8.067-5.242h-23.836c-3.489,0-6.65,2.054-8.067,5.242
			l-32.981,74.206v35.31c0,4.875,3.952,8.828,8.828,8.828h88.276c4.875,0,8.828-3.952,8.828-8.828v-35.31L470.192,252.415z"/>
	</g>
	<g>
		<path style="fill:#41767F;" d="M8.828,467.862h105.931v35.31c0,4.875-3.952,8.828-8.828,8.828H17.655
			c-4.875,0-8.828-3.952-8.828-8.828V467.862z"/>
		<path style="fill:#41767F;" d="M397.241,326.621h105.931v35.31c0,4.875-3.952,8.828-8.828,8.828h-88.276
			c-4.875,0-8.828-3.952-8.828-8.828V326.621z"/>
	</g>
	<g>
		<path style="fill:#D1D4D1;" d="M300.138,229.517h-10.081c-0.823-3.16-2.085-6.188-3.749-8.998l7.14-7.14
			c2.23-2.23,3.101-5.48,2.285-8.526c-0.816-3.046-3.195-5.425-6.241-6.241c-3.046-0.816-6.296,0.055-8.526,2.284l-7.14,7.14
			c-2.809-1.664-5.838-2.926-8.998-3.749v-10.081c0-4.875-3.952-8.828-8.828-8.828s-8.828,3.952-8.828,8.828v10.081
			c-3.16,0.823-6.189,2.085-8.998,3.749l-7.14-7.14c-3.449-3.437-9.029-3.432-12.472,0.011c-3.443,3.443-3.448,9.023-0.011,12.472
			l7.14,7.14c-1.664,2.809-2.926,5.838-3.749,8.998h-10.081c-4.875,0-8.828,3.952-8.828,8.828c0,4.875,3.952,8.828,8.828,8.828
			h10.081c0.823,3.16,2.085,6.188,3.749,8.998l-7.14,7.14c-3.447,3.447-3.447,9.036,0,12.483c3.447,3.447,9.036,3.447,12.483,0
			l7.14-7.14c2.809,1.664,5.838,2.926,8.998,3.749v10.081c0,4.875,3.952,8.828,8.828,8.828s8.828-3.952,8.828-8.828v-10.081
			c3.16-0.823,6.189-2.085,8.998-3.749l7.14,7.14c2.23,2.23,5.48,3.101,8.526,2.284c3.046-0.816,5.425-3.195,6.241-6.241
			c0.816-3.046-0.055-6.296-2.284-8.526l-7.14-7.14c1.664-2.809,2.926-5.838,3.749-8.998h10.081c4.875,0,8.828-3.952,8.828-8.828
			C308.966,233.469,305.013,229.517,300.138,229.517z M256,256c-9.751,0-17.655-7.904-17.655-17.655
			c0-9.751,7.904-17.655,17.655-17.655c9.751,0,17.655,7.904,17.655,17.655C273.643,248.09,265.745,255.987,256,256z"/>
		<path style="fill:#D1D4D1;" d="M176.552,70.621h-10.081c-0.823-3.16-2.085-6.188-3.749-8.998l7.14-7.14
			c3.447-3.447,3.447-9.036,0-12.483c-3.447-3.447-9.036-3.447-12.483,0l-7.14,7.14c-2.809-1.664-5.838-2.926-8.998-3.749V35.31
			c0-4.875-3.952-8.828-8.828-8.828s-8.828,3.952-8.828,8.828v10.081c-3.16,0.823-6.189,2.085-8.998,3.749l-7.14-7.14
			c-3.449-3.437-9.029-3.432-12.472,0.011c-3.443,3.443-3.448,9.023-0.011,12.472l7.14,7.14c-1.664,2.809-2.926,5.838-3.749,8.998
			H88.276c-4.875,0-8.828,3.952-8.828,8.828c0,4.875,3.952,8.828,8.828,8.828h10.081c0.823,3.16,2.085,6.188,3.749,8.998l-7.14,7.14
			c-2.23,2.23-3.101,5.48-2.284,8.526c0.816,3.046,3.195,5.425,6.241,6.241c3.046,0.816,6.296-0.055,8.526-2.285l7.14-7.14
			c2.809,1.664,5.838,2.926,8.998,3.749v10.081c0,4.875,3.952,8.828,8.828,8.828s8.828-3.952,8.828-8.828v-10.081
			c3.16-0.823,6.189-2.085,8.998-3.749l7.14,7.14c2.23,2.23,5.48,3.101,8.526,2.285c3.046-0.816,5.425-3.195,6.241-6.241
			c0.816-3.046-0.055-6.296-2.285-8.526l-7.14-7.14c1.664-2.809,2.926-5.838,3.749-8.998h10.081c4.875,0,8.828-3.952,8.828-8.828
			C185.379,74.573,181.427,70.621,176.552,70.621z M132.414,97.103c-9.751,0-17.655-7.904-17.655-17.655s7.904-17.655,17.655-17.655
			s17.655,7.904,17.655,17.655C150.056,89.194,142.159,97.091,132.414,97.103z"/>
	</g>
</g>
<g>
</g>
<g>
</g>
<g>
</g>
<g>
</g>
<g>
</g>
<g>
</g>
<g>
</g>
<g>
</g>
<g>
</g>
<g>
</g>
<g>
</g>
<g>
</g>
<g>
</g>
<g>
</g>
<g>
</g>
</svg>
