<?xml version="1.0" encoding="iso-8859-1"?>
<!-- Generator: Adobe Illustrator 19.0.0, SVG Export Plug-In . SVG Version: 6.00 Build 0)  -->
<svg version="1.1" id="Capa_1" xmlns="http://www.w3.org/2000/svg" xmlns:xlink="http://www.w3.org/1999/xlink" x="0px" y="0px"
	 viewBox="0 0 512 512" style="enable-background:new 0 0 512 512;" xml:space="preserve">
<g>
	<path style="fill:#FDD7AD;" d="M476.69,459.034V52.966C476.667,23.723,452.967,0.023,423.724,0H52.966
		C23.723,0.023,0.023,23.723,0,52.966h105.931v406.069c0.023,29.242,23.723,52.942,52.966,52.966h300.138
		c29.242-0.023,52.942-23.723,52.966-52.966H476.69z"/>
	<g>
		<path style="fill:#CBB292;" d="M105.931,52.966H0C0,23.713,23.713,0,52.966,0S105.931,23.713,105.931,52.966z"/>
		<path style="fill:#CBB292;" d="M512,459.034c-0.023,29.242-23.723,52.942-52.966,52.966H158.897
			c29.242-0.023,52.942-23.723,52.966-52.966H512z"/>
	</g>
	<path style="fill:#BDC3C7;" d="M167.724,317.793l56.492-72.632c3.345-4.301,8.488-6.816,13.936-6.816h106.316
		c5.448,0,10.591,2.515,13.936,6.816l56.492,72.632v26.483H167.724V317.793z"/>
	<path style="fill:#A5A5A4;" d="M308.966,164.105v100.723c0,4.875-3.952,8.828-8.828,8.828h-17.655
		c-4.875,0-8.828-3.952-8.828-8.828V164.105H308.966z"/>
	<circle style="fill:#CC4B4C;" cx="291.31" cy="123.586" r="44.138"/>
	<path style="fill:#95A5A5;" d="M167.724,317.793h247.172v52.966c0,9.751-7.904,17.655-17.655,17.655H185.379
		c-9.751,0-17.655-7.904-17.655-17.655V317.793z"/>
</g>
<g>
</g>
<g>
</g>
<g>
</g>
<g>
</g>
<g>
</g>
<g>
</g>
<g>
</g>
<g>
</g>
<g>
</g>
<g>
</g>
<g>
</g>
<g>
</g>
<g>
</g>
<g>
</g>
<g>
</g>
</svg>
