<?xml version="1.0" encoding="iso-8859-1"?>
<!-- Generator: Adobe Illustrator 19.0.0, SVG Export Plug-In . SVG Version: 6.00 Build 0)  -->
<svg version="1.1" id="Capa_1" xmlns="http://www.w3.org/2000/svg" xmlns:xlink="http://www.w3.org/1999/xlink" x="0px" y="0px"
	 viewBox="0 0 512 512" style="enable-background:new 0 0 512 512;" xml:space="preserve">
<g>
	<path style="fill:#D25627;" d="M176.552,176.552V35.31c-0.003-9.366,3.717-18.348,10.339-24.971
		C193.514,3.717,202.496-0.003,211.862,0H476.69c9.366-0.003,18.348,3.717,24.971,10.339c6.622,6.623,10.342,15.605,10.339,24.971
		v264.828c0.003,9.366-3.717,18.348-10.339,24.971c-6.623,6.622-15.605,10.342-24.971,10.339H335.448L176.552,176.552z"/>
	<path style="fill:#E57E25;" d="M300.138,512H35.31C15.809,512,0,496.191,0,476.69V211.862c0-19.501,15.809-35.31,35.31-35.31
		h264.828c19.501,0,35.31,15.809,35.31,35.31V476.69C335.448,496.191,319.639,512,300.138,512z"/>
	<g>
		<circle style="fill:#F0C419;" cx="79.448" cy="256" r="35.31"/>
		<circle style="fill:#F0C419;" cx="167.724" cy="344.276" r="35.31"/>
		<circle style="fill:#F0C419;" cx="79.448" cy="432.552" r="35.31"/>
		<circle style="fill:#F0C419;" cx="256" cy="256" r="35.31"/>
		<circle style="fill:#F0C419;" cx="256" cy="432.552" r="35.31"/>
	</g>
	<g>
		<circle style="fill:#F29C1F;" cx="256" cy="79.448" r="35.31"/>
		<circle style="fill:#F29C1F;" cx="432.552" cy="79.448" r="35.31"/>
		<circle style="fill:#F29C1F;" cx="432.552" cy="256" r="35.31"/>
	</g>
</g>
<g>
</g>
<g>
</g>
<g>
</g>
<g>
</g>
<g>
</g>
<g>
</g>
<g>
</g>
<g>
</g>
<g>
</g>
<g>
</g>
<g>
</g>
<g>
</g>
<g>
</g>
<g>
</g>
<g>
</g>
</svg>
