<?xml version="1.0" encoding="iso-8859-1"?>
<!-- Generator: Adobe Illustrator 19.0.0, SVG Export Plug-In . SVG Version: 6.00 Build 0)  -->
<svg version="1.1" id="Capa_1" xmlns="http://www.w3.org/2000/svg" xmlns:xlink="http://www.w3.org/1999/xlink" x="0px" y="0px"
	 viewBox="0 0 512 512" style="enable-background:new 0 0 512 512;" xml:space="preserve">
<g>
	<path style="fill:#F0C419;" d="M502.319,119.381C406.304,94.464,263.416,4.693,256,0C248.584,4.693,105.696,94.464,9.681,119.381
		c-3.458,0.853,4.649,54.187,5.538,59.819C26.097,255.317,52.3,332.715,106.29,394.496c28.878,32.939,66.056,58.795,102.248,85.333
		c13.152,9.643,26.3,19.371,40.442,28.075c2.257,1.503,4.602,2.871,7.021,4.096c2.472-1.195,4.746-2.645,7.117-4.096
		c14.045-8.704,27.193-18.432,40.345-28.074c36.193-26.539,73.37-52.395,102.248-85.333c53.99-61.781,80.193-139.179,91.167-215.296
		C497.669,173.568,505.776,120.234,502.319,119.381z"/>
	<path style="fill:#2FA8CC;" d="M459.034,176.966l-0.28,1.698c-6.803,52.741-23.923,103.626-50.383,149.753h-0.097l-20.435-5.903
		l-28.251,32.344l15.16,19.487c-24.423,25.206-51.514,47.682-80.795,67.034l-20.299-17.655h-35.31l-20.299,17.655
		c-29.281-19.351-56.371-41.828-80.795-67.034l15.16-19.487l-28.251-32.344l-20.531,5.903
		c-26.512-46.133-43.635-97.055-50.383-149.834c-0.092-0.566-0.184-1.052-0.28-1.617h33.526l18.834-32.344l-8.948-15.445
		c36.068-15.202,72.229-33.314,102.835-49.648l0.285,0.404l21.193,43.653h70.621l21.193-43.652l0.377-0.486
		c30.514,16.414,66.674,34.527,102.743,49.729l-8.948,15.445l18.834,32.344L459.034,176.966z"/>
	<g>
		<circle style="fill:#67B9CC;" cx="256" cy="264.828" r="44.138"/>
		<path style="fill:#67B9CC;" d="M123.586,291.31c-2.341,0.001-4.587-0.929-6.243-2.585c-1.656-1.656-2.585-3.901-2.585-6.243
			V176.552c0-4.875,3.952-8.828,8.828-8.828c4.875,0,8.828,3.952,8.828,8.828v105.931c0.001,2.341-0.929,4.587-2.585,6.243
			C128.173,290.381,125.928,291.311,123.586,291.31z"/>
		<path style="fill:#67B9CC;" d="M211.862,203.034c-2.341,0.001-4.587-0.929-6.243-2.585c-1.656-1.656-2.585-3.901-2.585-6.243
			v-35.31c0-4.875,3.952-8.828,8.828-8.828s8.828,3.952,8.828,8.828v35.31c0.001,2.341-0.929,4.587-2.585,6.243
			C216.449,202.105,214.203,203.035,211.862,203.034z"/>
		<path style="fill:#67B9CC;" d="M211.862,397.241c-2.341,0.001-4.587-0.929-6.243-2.585c-1.656-1.656-2.585-3.901-2.585-6.243
			v-61.793c0-4.875,3.952-8.828,8.828-8.828s8.828,3.952,8.828,8.828v61.793c0.001,2.341-0.929,4.587-2.585,6.243
			C216.449,396.312,214.203,397.242,211.862,397.241z"/>
		<path style="fill:#67B9CC;" d="M300.138,397.241c-2.341,0.001-4.587-0.929-6.243-2.585c-1.656-1.656-2.585-3.901-2.585-6.243
			v-61.793c0-4.875,3.952-8.828,8.828-8.828s8.828,3.952,8.828,8.828v61.793c0.001,2.341-0.929,4.587-2.585,6.243
			C304.725,396.312,302.479,397.242,300.138,397.241z"/>
		<path style="fill:#67B9CC;" d="M300.138,203.034c-2.341,0.001-4.587-0.929-6.243-2.585c-1.656-1.656-2.585-3.901-2.585-6.243
			v-35.31c0-4.875,3.952-8.828,8.828-8.828s8.828,3.952,8.828,8.828v35.31c0.001,2.341-0.929,4.587-2.585,6.243
			C304.725,202.105,302.479,203.035,300.138,203.034z"/>
		<path style="fill:#67B9CC;" d="M256,397.241c-2.341,0.001-4.587-0.929-6.243-2.585c-1.656-1.656-2.585-3.901-2.585-6.243v-44.138
			c0-4.875,3.952-8.828,8.828-8.828s8.828,3.952,8.828,8.828v44.138c0.001,2.341-0.929,4.587-2.585,6.243
			C260.587,396.312,258.341,397.242,256,397.241z"/>
		<path style="fill:#67B9CC;" d="M256,194.207c-2.341,0.001-4.587-0.929-6.243-2.585c-1.656-1.656-2.585-3.901-2.585-6.243v-26.483
			c0-4.875,3.952-8.828,8.828-8.828s8.828,3.952,8.828,8.828v26.483c0.001,2.341-0.929,4.587-2.585,6.243
			C260.587,193.278,258.341,194.208,256,194.207z"/>
		<path style="fill:#67B9CC;" d="M167.724,326.621c-2.341,0.001-4.587-0.929-6.243-2.585c-1.656-1.656-2.585-3.901-2.585-6.243
			V132.414c0-4.875,3.952-8.828,8.828-8.828s8.828,3.952,8.828,8.828v185.379c0.001,2.341-0.929,4.587-2.585,6.243
			C172.311,325.691,170.066,326.621,167.724,326.621z"/>
		<path style="fill:#67B9CC;" d="M388.414,291.31c-2.341,0.001-4.587-0.929-6.243-2.585c-1.656-1.656-2.585-3.901-2.585-6.243
			V176.552c0-4.875,3.952-8.828,8.828-8.828s8.828,3.952,8.828,8.828v105.931c0.001,2.341-0.929,4.587-2.585,6.243
			C393.001,290.381,390.755,291.311,388.414,291.31z"/>
		<path style="fill:#67B9CC;" d="M344.276,326.621c-2.341,0.001-4.587-0.929-6.243-2.585c-1.656-1.656-2.585-3.901-2.585-6.243
			V132.414c0-4.875,3.952-8.828,8.828-8.828c4.875,0,8.828,3.952,8.828,8.828v185.379c0.001,2.341-0.929,4.587-2.585,6.243
			C348.863,325.691,346.617,326.621,344.276,326.621z"/>
	</g>
	<g>
		<circle style="fill:#E57E25;" cx="256" cy="70.621" r="17.655"/>
		<path style="fill:#E57E25;" d="M256,476.69c-2.341,0.001-4.587-0.929-6.243-2.585c-1.656-1.656-2.585-3.901-2.585-6.243v-8.828
			c0-4.875,3.952-8.828,8.828-8.828s8.828,3.952,8.828,8.828v8.828c0.001,2.341-0.929,4.587-2.585,6.243
			C260.587,475.76,258.341,476.69,256,476.69z"/>
	</g>
</g>
<g>
</g>
<g>
</g>
<g>
</g>
<g>
</g>
<g>
</g>
<g>
</g>
<g>
</g>
<g>
</g>
<g>
</g>
<g>
</g>
<g>
</g>
<g>
</g>
<g>
</g>
<g>
</g>
<g>
</g>
</svg>
