<?xml version="1.0" encoding="iso-8859-1"?>
<!-- Generator: Adobe Illustrator 19.0.0, SVG Export Plug-In . SVG Version: 6.00 Build 0)  -->
<svg version="1.1" id="Capa_1" xmlns="http://www.w3.org/2000/svg" xmlns:xlink="http://www.w3.org/1999/xlink" x="0px" y="0px"
	 viewBox="0 0 512.001 512.001" style="enable-background:new 0 0 512.001 512.001;" xml:space="preserve">
<g>
	<path style="fill:#35495E;" d="M256,0C114.615,0,0,114.616,0,256s114.615,256,256,256s256-114.615,256-256
		c0.011-67.899-26.956-133.02-74.968-181.032C389.02,26.957,323.899-0.011,256,0z"/>
	<g>
		<circle style="fill:#ECF0F1;" cx="256" cy="256" r="105.931"/>
		<path style="fill:#ECF0F1;" d="M256,123.587c-2.341,0.001-4.587-0.929-6.243-2.585c-1.656-1.656-2.585-3.901-2.585-6.243v-8.828
			c0-4.875,3.952-8.828,8.828-8.828c4.875,0,8.828,3.952,8.828,8.828v8.828c0.001,2.341-0.929,4.587-2.585,6.243
			C260.587,122.657,258.342,123.587,256,123.587z"/>
		<path style="fill:#ECF0F1;" d="M256,414.897c-2.341,0.001-4.587-0.929-6.243-2.585c-1.656-1.656-2.585-3.901-2.585-6.243v-8.828
			c0-4.875,3.952-8.828,8.828-8.828c4.875,0,8.828,3.952,8.828,8.828v8.828c0.001,2.341-0.929,4.587-2.585,6.243
			C260.587,413.968,258.342,414.898,256,414.897z"/>
		<path style="fill:#ECF0F1;" d="M156.129,164.957c-2.342,0.003-4.588-0.928-6.241-2.586l-6.246-6.241
			c-2.259-2.224-3.151-5.488-2.339-8.552c0.812-3.064,3.205-5.457,6.269-6.269c3.064-0.813,6.328,0.08,8.552,2.339l6.246,6.241
			c2.526,2.524,3.282,6.321,1.916,9.62S159.7,164.958,156.129,164.957L156.129,164.957z"/>
		<path style="fill:#ECF0F1;" d="M362.117,370.94c-2.342,0.003-4.588-0.928-6.241-2.587l-6.246-6.241
			c-3.447-3.447-3.447-9.036,0-12.483c3.447-3.447,9.036-3.447,12.483,0l6.246,6.241c2.526,2.524,3.282,6.321,1.916,9.62
			C368.908,368.79,365.688,370.941,362.117,370.94L362.117,370.94z"/>
		<path style="fill:#ECF0F1;" d="M114.759,264.828h-8.828c-4.875,0-8.828-3.952-8.828-8.828c0-4.875,3.952-8.828,8.828-8.828h8.828
			c4.875,0,8.828,3.952,8.828,8.828C123.586,260.876,119.634,264.828,114.759,264.828z"/>
		<path style="fill:#ECF0F1;" d="M406.069,264.828h-8.828c-4.875,0-8.828-3.952-8.828-8.828c0-4.875,3.952-8.828,8.828-8.828h8.828
			c4.875,0,8.828,3.952,8.828,8.828C414.897,260.876,410.944,264.828,406.069,264.828z"/>
	</g>
	<path style="fill:#4482C3;" d="M306.053,238.698l35.663-44.844l44.138-55.437c8.739-10.858-1.412-21.01-12.27-12.27l-55.437,44.138
		l-44.844,35.663"/>
	<path style="fill:#D75E72;" d="M238.698,306.053l-44.844,35.663l-55.437,44.138c-10.858,8.739-21.01-1.412-12.27-12.27
		l44.138-55.437l35.663-44.844"/>
	<g>
		<circle style="fill:#BDC3C7;" cx="256" cy="256" r="52.966"/>
		<path style="fill:#BDC3C7;" d="M298.196,3.531L263.68,65.589c-1.556,2.78-4.494,4.502-7.68,4.502c-3.186,0-6.124-1.722-7.68-4.502
			L213.804,3.531C241.738-1.176,270.262-1.176,298.196,3.531z"/>
		<path style="fill:#BDC3C7;" d="M298.196,508.558c-27.943,4.59-56.449,4.59-84.392,0L248.32,446.5
			c1.529-2.815,4.476-4.568,7.68-4.568c3.204,0,6.151,1.753,7.68,4.568L298.196,508.558z"/>
		<path style="fill:#BDC3C7;" d="M65.501,263.769l-61.97,34.428c-4.708-27.934-4.708-56.458,0-84.392l61.97,34.516
			c2.818,1.549,4.568,4.509,4.568,7.724S68.318,262.22,65.501,263.769z"/>
		<path style="fill:#BDC3C7;" d="M512,256c0.034,14.14-1.147,28.258-3.531,42.196l-61.97-34.428
			c-2.818-1.549-4.568-4.509-4.568-7.724s1.751-6.175,4.568-7.724l61.97-34.516C510.853,227.743,512.035,241.86,512,256z"/>
	</g>
</g>
<g>
</g>
<g>
</g>
<g>
</g>
<g>
</g>
<g>
</g>
<g>
</g>
<g>
</g>
<g>
</g>
<g>
</g>
<g>
</g>
<g>
</g>
<g>
</g>
<g>
</g>
<g>
</g>
<g>
</g>
</svg>
