<?xml version="1.0" encoding="iso-8859-1"?>
<!-- Generator: Adobe Illustrator 19.0.0, SVG Export Plug-In . SVG Version: 6.00 Build 0)  -->
<svg version="1.1" id="Capa_1" xmlns="http://www.w3.org/2000/svg" xmlns:xlink="http://www.w3.org/1999/xlink" x="0px" y="0px"
	 viewBox="0 0 512 512" style="enable-background:new 0 0 512 512;" xml:space="preserve">
<g>
	<polygon style="fill:#CB8252;" points="35.31,123.586 35.31,211.862 35.31,300.138 35.31,388.414 256,512 476.69,388.414 
		476.69,300.138 476.69,211.862 476.69,123.586 	"/>
	<polygon style="fill:#805333;" points="476.69,211.862 476.69,300.138 256,423.724 256,335.448 	"/>
	<g>
		<polygon style="fill:#CC6F56;" points="256,247.172 256,335.448 35.31,211.862 35.31,123.586 45.462,129.236 132.326,177.876 
			136.563,180.259 176.552,202.681 182.29,205.859 215.658,224.574 220.513,227.31 		"/>
		<polygon style="fill:#CC6F56;" points="256,423.724 256,512 35.31,388.414 35.31,300.138 		"/>
	</g>
	<polygon style="fill:#804537;" points="256,335.448 256,423.724 35.31,300.138 35.31,211.862 	"/>
	<polygon style="fill:#BDC3C7;" points="476.69,123.586 256,247.172 220.513,227.31 215.658,224.574 182.29,205.859 
		176.552,202.681 136.563,180.259 132.326,177.876 45.462,129.236 35.31,123.586 256,0 	"/>
	<g>
		<path style="fill:#ECF0F1;" d="M97.103,132.414c-2.348,0.023-4.607-0.9-6.267-2.56c-1.66-1.66-2.583-3.919-2.56-6.267
			c0-4.875,3.952-8.828,8.828-8.828s8.828,3.952,8.828,8.828c0.03,1.158-0.212,2.306-0.707,3.353
			c-0.45,1.068-1.077,2.053-1.854,2.914c-0.859,0.779-1.844,1.406-2.914,1.854C99.396,132.16,98.257,132.4,97.103,132.414z"/>
		<path style="fill:#ECF0F1;" d="M150.069,158.897c-2.341,0.001-4.587-0.929-6.243-2.585c-1.656-1.656-2.585-3.901-2.585-6.243
			V97.103c0-4.875,3.952-8.828,8.828-8.828c4.875,0,8.828,3.952,8.828,8.828v52.966c0.001,2.341-0.929,4.587-2.585,6.243
			C154.656,157.967,152.41,158.897,150.069,158.897z"/>
		<path style="fill:#ECF0F1;" d="M203.034,185.379c-2.341,0.001-4.587-0.929-6.243-2.585c-1.656-1.656-2.585-3.901-2.585-6.243
			V70.621c0-4.875,3.952-8.828,8.828-8.828s8.828,3.952,8.828,8.828v105.931c0.001,2.341-0.929,4.587-2.585,6.243
			C207.622,184.45,205.376,185.38,203.034,185.379z"/>
		<path style="fill:#ECF0F1;" d="M414.897,132.414c-2.952,0.028-5.72-1.436-7.358-3.892c-1.638-2.456-1.927-5.573-0.767-8.289
			c0.427-1.081,1.058-2.07,1.857-2.914c2.063-2.143,5.078-3.084,7.994-2.493c2.916,0.59,5.327,2.63,6.394,5.407
			c1.163,2.714,0.876,5.832-0.762,8.289C420.617,130.979,417.849,132.443,414.897,132.414z"/>
		<path style="fill:#ECF0F1;" d="M361.931,158.897c-2.341,0.001-4.587-0.929-6.243-2.585c-1.656-1.656-2.585-3.901-2.585-6.243
			V97.103c0-4.875,3.952-8.828,8.828-8.828s8.828,3.952,8.828,8.828v52.966c0.001,2.341-0.929,4.587-2.585,6.243
			C366.518,157.967,364.272,158.897,361.931,158.897z"/>
		<path style="fill:#ECF0F1;" d="M308.966,185.379c-2.341,0.001-4.587-0.929-6.243-2.585c-1.656-1.656-2.585-3.901-2.585-6.243
			V70.621c0-4.875,3.952-8.828,8.828-8.828s8.828,3.952,8.828,8.828v105.931c0.001,2.341-0.929,4.587-2.585,6.243
			C313.553,184.45,311.307,185.38,308.966,185.379z"/>
		<path style="fill:#ECF0F1;" d="M256,211.862c-2.341,0.001-4.587-0.929-6.243-2.585c-1.656-1.656-2.585-3.901-2.585-6.243V44.138
			c0-4.875,3.952-8.828,8.828-8.828s8.828,3.952,8.828,8.828v158.897c0.001,2.341-0.929,4.587-2.585,6.243
			C260.587,210.933,258.341,211.863,256,211.862z"/>
	</g>
</g>
<g>
</g>
<g>
</g>
<g>
</g>
<g>
</g>
<g>
</g>
<g>
</g>
<g>
</g>
<g>
</g>
<g>
</g>
<g>
</g>
<g>
</g>
<g>
</g>
<g>
</g>
<g>
</g>
<g>
</g>
</svg>
