<?xml version="1.0" encoding="iso-8859-1"?>
<!-- Generator: Adobe Illustrator 19.0.0, SVG Export Plug-In . SVG Version: 6.00 Build 0)  -->
<svg version="1.1" id="Capa_1" xmlns="http://www.w3.org/2000/svg" xmlns:xlink="http://www.w3.org/1999/xlink" x="0px" y="0px"
	 viewBox="0 0 512 512" style="enable-background:new 0 0 512 512;" xml:space="preserve">
<g>
	<path style="fill:#67B9CC;" d="M485.517,270.477v73.799H26.483l0-317.793c-0.009-7.027,2.778-13.768,7.746-18.737
		C39.198,2.778,45.939-0.009,52.966,0h406.069c7.027-0.009,13.768,2.778,18.737,7.746c4.969,4.969,7.756,11.71,7.746,18.737V270.477
		z"/>
	<path style="fill:#CB8252;" d="M494.345,353.103v132.414c0,14.626-11.857,26.483-26.483,26.483H44.138
		c-14.626,0-26.483-11.857-26.483-26.483V353.103H494.345z"/>
	<path style="fill:#4C8056;" d="M485.517,317.793H26.483C11.857,317.793,0,329.65,0,344.276v26.483h0.127
		c0.622,19.68,16.755,35.311,36.444,35.311s35.822-15.631,36.444-35.311h0.254c0.622,19.68,16.755,35.311,36.444,35.311
		s35.822-15.631,36.444-35.311h0.254c0.622,19.679,16.755,35.31,36.444,35.31s35.822-15.631,36.444-35.31h0.254
		c0.619,19.682,16.753,35.317,36.445,35.317s35.826-15.635,36.445-35.317h0.254c0.623,19.679,16.755,35.31,36.444,35.31
		c19.689,0,35.822-15.631,36.444-35.31h0.254c0.622,19.68,16.755,35.311,36.444,35.311s35.822-15.631,36.444-35.311h0.254
		c0.622,19.68,16.755,35.311,36.444,35.311c19.689,0,35.823-15.631,36.444-35.311H512v-26.483
		C512,329.65,500.143,317.793,485.517,317.793z"/>
	<g>
		<circle style="fill:#805333;" cx="145.655" cy="454.621" r="22.069"/>
		<circle style="fill:#805333;" cx="220.69" cy="450.207" r="17.655"/>
		<circle style="fill:#805333;" cx="70.621" cy="450.207" r="17.655"/>
		<circle style="fill:#805333;" cx="366.345" cy="454.621" r="22.069"/>
		<circle style="fill:#805333;" cx="441.379" cy="450.207" r="17.655"/>
		<circle style="fill:#805333;" cx="291.31" cy="450.207" r="17.655"/>
		<path style="fill:#805333;" d="M105.931,494.345c-1.155-0.014-2.296-0.254-3.358-0.707c-1.068-0.448-2.052-1.075-2.909-1.854
			c-2.525-2.527-3.261-6.335-1.858-9.621c0.427-1.081,1.058-2.07,1.857-2.914c0.857-0.779,1.841-1.406,2.909-1.854
			c3.289-1.379,7.084-0.648,9.625,1.854c0.797,0.845,1.426,1.834,1.854,2.914c1.409,3.284,0.675,7.096-1.853,9.621
			c-0.859,0.779-1.844,1.406-2.914,1.854C108.224,494.091,107.084,494.331,105.931,494.345z"/>
		<path style="fill:#805333;" d="M185.379,494.345c-1.155-0.014-2.296-0.254-3.358-0.707c-1.068-0.448-2.052-1.075-2.91-1.854
			c-2.525-2.527-3.261-6.335-1.858-9.621c0.427-1.081,1.058-2.07,1.857-2.914c0.857-0.779,1.841-1.406,2.909-1.854
			c3.288-1.387,7.088-0.655,9.625,1.854c0.797,0.845,1.426,1.834,1.854,2.914c1.409,3.284,0.675,7.096-1.853,9.621
			c-0.859,0.779-1.844,1.406-2.914,1.854C187.672,494.091,186.533,494.331,185.379,494.345z"/>
		<path style="fill:#805333;" d="M256,494.345c-1.155-0.014-2.296-0.254-3.358-0.707c-1.068-0.448-2.052-1.075-2.91-1.854
			c-2.525-2.527-3.261-6.335-1.858-9.621c0.427-1.081,1.058-2.07,1.857-2.914c2.063-2.143,5.078-3.084,7.994-2.493
			c2.916,0.59,5.327,2.63,6.394,5.407c1.163,2.714,0.876,5.832-0.762,8.289C261.721,492.91,258.953,494.374,256,494.345z"/>
		<path style="fill:#805333;" d="M326.621,494.345c-1.155-0.014-2.296-0.254-3.358-0.707c-1.068-0.448-2.052-1.075-2.909-1.854
			c-2.525-2.527-3.261-6.335-1.858-9.621c0.427-1.081,1.058-2.07,1.857-2.914c0.857-0.779,1.841-1.406,2.909-1.854
			c2.14-0.931,4.571-0.931,6.711,0c1.08,0.427,2.069,1.056,2.914,1.854c1.612,1.693,2.526,3.931,2.561,6.268
			c0.022,2.348-0.9,4.606-2.56,6.268c-0.859,0.779-1.844,1.406-2.914,1.854C328.913,494.091,327.774,494.331,326.621,494.345z"/>
		<path style="fill:#805333;" d="M406.069,494.345c-1.155-0.014-2.296-0.254-3.358-0.707c-1.068-0.448-2.052-1.075-2.909-1.854
			c-2.525-2.527-3.261-6.335-1.858-9.621c0.427-1.081,1.058-2.07,1.857-2.914c2.535-2.509,6.334-3.241,9.621-1.854
			c1.08,0.427,2.069,1.056,2.914,1.854c1.612,1.693,2.526,3.931,2.561,6.268c0.022,2.348-0.9,4.606-2.56,6.268
			c-0.859,0.779-1.844,1.406-2.914,1.854C408.362,494.091,407.222,494.331,406.069,494.345z"/>
	</g>
	<g>
		<path style="fill:#E6E7E8;" d="M291.31,273.655H158.897c-14.626,0-26.483-11.857-26.483-26.483
			c0-14.626,11.857-26.483,26.483-26.483h12.535c-2.453-5.562-3.716-11.576-3.708-17.655c-0.003-23.885,19.025-43.423,42.902-44.05
			l18.891-0.088L291.31,273.655z"/>
		<path style="fill:#E6E7E8;" d="M26.483,150.069h70.621c14.626,0,26.483-11.857,26.483-26.483s-11.857-26.483-26.483-26.483H81.567
			c10.543-15.752,8.482-36.76-4.921-50.163s-34.411-15.464-50.163-4.921V150.069z"/>
	</g>
	<circle style="fill:#F18D46;" cx="361.931" cy="185.379" r="150.069"/>
	<path style="fill:#E6E7E8;" d="M361.93,300.137c-46.416,0-88.261-27.961-106.024-70.843s-7.943-92.243,24.879-125.063
		s82.182-42.638,125.064-24.874s70.841,59.61,70.839,106.026C476.615,248.731,425.278,300.066,361.93,300.137z"/>
	<g>
		<path style="fill:#BDC3C7;" d="M361.931,176.552c-2.341,0.001-4.587-0.929-6.243-2.585c-1.656-1.656-2.585-3.901-2.585-6.243
			v-61.793c0-4.875,3.952-8.828,8.828-8.828c4.875,0,8.828,3.952,8.828,8.828v61.793c0.001,2.341-0.929,4.587-2.585,6.243
			C366.518,175.622,364.272,176.552,361.931,176.552z"/>
		<path style="fill:#BDC3C7;" d="M414.897,247.172c-2.342,0.003-4.588-0.928-6.241-2.586L355.69,191.62
			c-3.394-3.456-3.369-9.001,0.056-12.426s8.97-3.45,12.426-0.056l52.966,52.966c2.524,2.525,3.279,6.321,1.913,9.619
			C421.684,245.021,418.466,247.172,414.897,247.172z"/>
	</g>
	<circle style="fill:#7F8C8D;" cx="361.931" cy="185.379" r="26.483"/>
</g>
<g>
</g>
<g>
</g>
<g>
</g>
<g>
</g>
<g>
</g>
<g>
</g>
<g>
</g>
<g>
</g>
<g>
</g>
<g>
</g>
<g>
</g>
<g>
</g>
<g>
</g>
<g>
</g>
<g>
</g>
</svg>
