<?xml version="1.0" encoding="iso-8859-1"?>
<!-- Generator: Adobe Illustrator 19.0.0, SVG Export Plug-In . SVG Version: 6.00 Build 0)  -->
<svg version="1.1" id="Capa_1" xmlns="http://www.w3.org/2000/svg" xmlns:xlink="http://www.w3.org/1999/xlink" x="0px" y="0px"
	 viewBox="0 0 512 512" style="enable-background:new 0 0 512 512;" xml:space="preserve">
<g>
	<rect x="92.69" y="0" style="fill:#67B9CC;" width="322.207" height="353.103"/>
	<g>
		<path style="fill:#E6E7E8;" d="M388.414,150.069H291.31c-14.626,0-26.483-11.857-26.483-26.483s11.857-26.483,26.483-26.483
			h12.535c-2.453-5.562-3.716-11.576-3.708-17.655c-0.003-23.885,19.025-43.423,42.902-44.05L388.414,150.069z"/>
		<path style="fill:#E6E7E8;" d="M141.241,220.69h-35.31v-97.103l35.31,0l1.942,0.53c2.041-0.355,4.108-0.532,6.179-0.53
			c20.62,0.007,37.333,16.721,37.341,37.341c0.034,5.135-1.019,10.219-3.09,14.919h10.593c12.383,0,22.422,10.039,22.422,22.422
			s-10.039,22.422-22.422,22.422H141.241z"/>
	</g>
	<g>
		<path style="fill:#E64C3C;" d="M52.966,0c-7.027-0.009-13.768,2.778-18.736,7.746s-7.756,11.71-7.746,18.737l0,308.965h141.241
			v-17.655c0.307-51.991-18.548-102.272-52.966-141.241C150.069,141.241,176.552,0,176.552,0L52.966,0z"/>
		<path style="fill:#E64C3C;" d="M459.034,0c7.027-0.009,13.768,2.778,18.737,7.746c4.969,4.969,7.756,11.71,7.746,18.737l0,308.965
			H344.276v-17.655c-0.307-51.991,18.548-102.272,52.966-141.241C361.931,141.241,335.448,0,335.448,0L459.034,0z"/>
	</g>
	<path style="fill:#C03A2B;" d="M485.517,176.552v141.241H344.276c-0.307-51.991,18.548-102.273,52.966-141.241H485.517z"/>
	<g>
		<path style="fill:#802F34;" d="M433.28,185.379c-3.347,0.005-6.409-1.885-7.905-4.879c-44.905-89.81-36.5-144.362-36.121-146.638
			c0.804-4.797,5.336-8.039,10.136-7.25c4.799,0.789,8.056,5.311,7.283,10.112c-0.078,0.509-7.556,51.776,34.496,135.879
			c1.368,2.735,1.223,5.984-0.383,8.586C439.178,183.792,436.339,185.377,433.28,185.379z"/>
		<path style="fill:#802F34;" d="M467.871,185.379c-2.955,0.004-5.716-1.472-7.353-3.931
			c-18.923-28.379-19.138-82.069-19.138-84.345c0-4.874,3.95-8.825,8.823-8.828h0.004c4.875,0.002,8.826,3.953,8.828,8.828
			c0,0.5,0.224,50.629,16.172,74.552c1.805,2.707,1.974,6.188,0.44,9.058C474.113,183.583,471.125,185.376,467.871,185.379z"/>
		<path style="fill:#802F34;" d="M406.59,291.285c-4.3,0.002-7.973-3.103-8.685-7.345c-0.289-1.733-6.746-43.353,27.483-111.353
			c2.19-4.354,7.495-6.108,11.849-3.918c4.354,2.19,6.108,7.495,3.918,11.849c-31.34,62.276-25.888,100.181-25.828,100.552
			c0.754,4.803-2.509,9.315-7.306,10.104C407.548,291.248,407.07,291.285,406.59,291.285z"/>
		<path style="fill:#802F34;" d="M450.207,264.828h-0.004c-4.874-0.002-8.823-3.954-8.823-8.828c0-2.276,0.215-55.965,19.138-84.345
			c2.725-4.002,8.165-5.063,12.194-2.377c4.029,2.686,5.142,8.115,2.495,12.17C459.259,205.371,459.034,255.5,459.034,256
			C459.033,260.875,455.082,264.826,450.207,264.828z"/>
	</g>
	<path style="fill:#C03A2B;" d="M167.724,317.793H26.483V176.552h88.276C149.176,215.521,168.032,265.802,167.724,317.793z"/>
	<g>
		<path style="fill:#802F34;" d="M78.72,185.379c-3.058-0.002-5.898-1.587-7.504-4.19c-1.607-2.602-1.752-5.851-0.383-8.586
			C112.884,88.5,105.405,37.232,105.328,36.724c-0.773-4.802,2.484-9.324,7.283-10.112c4.799-0.789,9.332,2.454,10.136,7.25
			c0.38,2.276,8.784,56.828-36.121,146.638C85.129,183.494,82.067,185.384,78.72,185.379z"/>
		<path style="fill:#802F34;" d="M44.129,185.379c-3.254-0.003-6.242-1.797-7.776-4.666c-1.534-2.87-1.365-6.35,0.44-9.058
			c15.948-23.922,16.172-74.052,16.172-74.552c0.002-4.875,3.953-8.826,8.828-8.828h0.004c4.874,0.002,8.823,3.954,8.823,8.828
			c0,2.276-0.215,55.965-19.138,84.345C49.845,183.908,47.084,185.384,44.129,185.379z"/>
		<path style="fill:#802F34;" d="M105.397,291.31c-0.492,0.002-0.984-0.038-1.47-0.121c-4.793-0.805-8.034-5.333-7.25-10.129
			c0.116-0.776,5.341-38.603-25.832-100.543c-1.417-2.817-1.223-6.175,0.508-8.81c1.731-2.635,4.736-4.147,7.884-3.966
			c3.148,0.181,5.959,2.028,7.376,4.845c34.228,68,27.772,109.621,27.483,111.353C113.383,288.191,109.707,291.306,105.397,291.31z"
			/>
		<path style="fill:#802F34;" d="M61.793,264.828c-4.875-0.002-8.826-3.953-8.828-8.828c0-0.5-0.224-50.629-16.172-74.552
			c-1.786-2.624-2.027-6.005-0.629-8.855c1.398-2.85,4.218-4.73,7.386-4.924c3.168-0.194,6.197,1.328,7.932,3.986
			C70.405,200.035,70.621,253.724,70.621,256c0,4.874-3.95,8.825-8.823,8.828H61.793z"/>
	</g>
	<path style="fill:#CB8252;" d="M494.345,353.103v132.414c0,14.626-11.857,26.483-26.483,26.483H44.138
		c-14.626,0-26.483-11.857-26.483-26.483V353.103H494.345z"/>
	<path style="fill:#4C8056;" d="M485.517,317.793H26.483C11.857,317.793,0,329.65,0,344.276v26.483h0.127
		c0.622,19.68,16.755,35.311,36.444,35.311s35.822-15.631,36.444-35.311h0.254c0.622,19.68,16.755,35.311,36.444,35.311
		s35.822-15.631,36.444-35.311h0.254c0.622,19.679,16.755,35.31,36.444,35.31s35.822-15.631,36.444-35.31h0.254
		c0.619,19.682,16.753,35.317,36.445,35.317s35.826-15.635,36.445-35.317h0.254c0.623,19.679,16.755,35.31,36.444,35.31
		c19.689,0,35.822-15.631,36.444-35.31h0.254c0.622,19.68,16.755,35.311,36.444,35.311s35.822-15.631,36.444-35.311h0.254
		c0.622,19.68,16.755,35.311,36.444,35.311c19.689,0,35.823-15.631,36.444-35.311H512v-26.483
		C512,329.65,500.143,317.793,485.517,317.793z"/>
	<g>
		<circle style="fill:#805333;" cx="145.655" cy="454.621" r="22.069"/>
		<circle style="fill:#805333;" cx="220.69" cy="450.207" r="17.655"/>
		<circle style="fill:#805333;" cx="70.621" cy="450.207" r="17.655"/>
		<circle style="fill:#805333;" cx="366.345" cy="454.621" r="22.069"/>
		<circle style="fill:#805333;" cx="441.379" cy="450.207" r="17.655"/>
		<circle style="fill:#805333;" cx="291.31" cy="450.207" r="17.655"/>
		<path style="fill:#805333;" d="M105.931,494.345c-1.155-0.014-2.296-0.254-3.358-0.707c-1.068-0.448-2.052-1.075-2.909-1.854
			c-2.525-2.527-3.261-6.335-1.858-9.621c0.427-1.081,1.058-2.07,1.857-2.914c0.857-0.779,1.841-1.406,2.909-1.854
			c3.289-1.379,7.084-0.648,9.625,1.854c0.797,0.845,1.426,1.834,1.854,2.914c1.409,3.284,0.675,7.096-1.853,9.621
			c-0.859,0.779-1.844,1.406-2.914,1.854C108.224,494.091,107.084,494.331,105.931,494.345z"/>
		<path style="fill:#805333;" d="M185.379,494.345c-1.155-0.014-2.296-0.254-3.358-0.707c-1.068-0.448-2.052-1.075-2.91-1.854
			c-2.525-2.527-3.261-6.335-1.858-9.621c0.427-1.081,1.058-2.07,1.857-2.914c0.857-0.779,1.841-1.406,2.909-1.854
			c3.288-1.387,7.088-0.655,9.625,1.854c0.797,0.845,1.426,1.834,1.854,2.914c1.409,3.284,0.675,7.096-1.853,9.621
			c-0.859,0.779-1.844,1.406-2.914,1.854C187.672,494.091,186.533,494.331,185.379,494.345z"/>
		<path style="fill:#805333;" d="M256,494.345c-1.155-0.014-2.296-0.254-3.358-0.707c-1.068-0.448-2.052-1.075-2.91-1.854
			c-2.525-2.527-3.261-6.335-1.858-9.621c0.427-1.081,1.058-2.07,1.857-2.914c2.063-2.143,5.078-3.084,7.994-2.493
			c2.916,0.59,5.327,2.63,6.394,5.407c1.163,2.714,0.876,5.832-0.762,8.289C261.721,492.91,258.953,494.374,256,494.345z"/>
		<path style="fill:#805333;" d="M326.621,494.345c-1.155-0.014-2.296-0.254-3.358-0.707c-1.068-0.448-2.052-1.075-2.909-1.854
			c-2.525-2.527-3.261-6.335-1.858-9.621c0.427-1.081,1.058-2.07,1.857-2.914c0.857-0.779,1.841-1.406,2.909-1.854
			c2.14-0.931,4.571-0.931,6.711,0c1.08,0.427,2.069,1.056,2.914,1.854c1.612,1.693,2.526,3.931,2.561,6.268
			c0.022,2.348-0.9,4.606-2.56,6.268c-0.859,0.779-1.844,1.406-2.914,1.854C328.913,494.091,327.774,494.331,326.621,494.345z"/>
		<path style="fill:#805333;" d="M406.069,494.345c-1.155-0.014-2.296-0.254-3.358-0.707c-1.068-0.448-2.052-1.075-2.909-1.854
			c-2.525-2.527-3.261-6.335-1.858-9.621c0.427-1.081,1.058-2.07,1.857-2.914c2.535-2.509,6.334-3.241,9.621-1.854
			c1.08,0.427,2.069,1.056,2.914,1.854c1.612,1.693,2.526,3.931,2.561,6.268c0.022,2.348-0.9,4.606-2.56,6.268
			c-0.859,0.779-1.844,1.406-2.914,1.854C408.362,494.091,407.222,494.331,406.069,494.345z"/>
	</g>
</g>
<g>
</g>
<g>
</g>
<g>
</g>
<g>
</g>
<g>
</g>
<g>
</g>
<g>
</g>
<g>
</g>
<g>
</g>
<g>
</g>
<g>
</g>
<g>
</g>
<g>
</g>
<g>
</g>
<g>
</g>
</svg>
