<?xml version="1.0" encoding="iso-8859-1"?>
<!-- Generator: Adobe Illustrator 19.0.0, SVG Export Plug-In . SVG Version: 6.00 Build 0)  -->
<svg version="1.1" id="Capa_1" xmlns="http://www.w3.org/2000/svg" xmlns:xlink="http://www.w3.org/1999/xlink" x="0px" y="0px"
	 viewBox="0 0 512 512" style="enable-background:new 0 0 512 512;" xml:space="preserve">
<g>
	<path style="fill:#BDC3C7;" d="M512,35.31V476.69c0.019,6.285-1.692,12.454-4.944,17.832c-2.952,5.247-7.288,9.583-12.535,12.535
		c-5.378,3.251-11.547,4.962-17.832,4.943H35.31c-6.285,0.018-12.453-1.692-17.832-4.943c-5.247-2.952-9.583-7.288-12.534-12.535
		C1.692,489.144-0.018,482.975,0,476.69V35.31c-0.019-6.285,1.692-12.454,4.944-17.832c2.952-5.247,7.288-9.583,12.535-12.535
		C22.857,1.692,29.026-0.018,35.31,0H476.69c6.285-0.018,12.453,1.692,17.832,4.943c5.247,2.952,9.583,7.288,12.534,12.535
		C510.308,22.857,512.019,29.026,512,35.31z"/>
	<g>
		<path style="fill:#2C2F38;" d="M211.853,105.931c-1.907,0.003-3.763-0.618-5.284-1.767l-35.31-26.483
			c-3.044-2.277-4.284-6.249-3.078-9.853l8.828-26.483c0.992-2.998,3.511-5.237,6.604-5.871c3.093-0.635,6.29,0.432,8.382,2.797
			c2.092,2.365,2.762,5.668,1.755,8.661l-6.81,20.444l30.215,22.668c3.041,2.28,4.282,6.25,3.079,9.856
			C219.031,103.505,215.654,105.935,211.853,105.931z"/>
		<path style="fill:#2C2F38;" d="M300.147,105.931c-3.801,0.004-7.177-2.427-8.38-6.032s0.037-7.576,3.079-9.856l30.216-22.668
			l-6.81-20.444c-1.007-2.993-0.337-6.296,1.755-8.661c2.092-2.365,5.289-3.432,8.382-2.797c3.093,0.635,5.612,2.874,6.604,5.871
			l8.828,26.483c1.207,3.604-0.034,7.576-3.078,9.853l-35.31,26.483C303.91,105.313,302.054,105.934,300.147,105.931z"/>
		<path style="fill:#2C2F38;" d="M142.517,246.91c-1.743-0.001-3.447-0.518-4.897-1.487l-25.241-16.862
			c-11.806-7.83-15.358-23.565-8.06-35.707l17.845-29.677c2.515-4.173,7.934-5.52,12.11-3.011c4.176,2.509,5.531,7.927,3.028,12.106
			l-17.836,29.659c-2.434,4.057-1.25,9.311,2.69,11.931l25.276,16.879c3.232,2.162,4.669,6.185,3.539,9.906
			S146.406,246.912,142.517,246.91z"/>
		<path style="fill:#2C2F38;" d="M369.483,246.91c-3.889,0.002-7.322-2.541-8.452-6.262c-1.131-3.721,0.306-7.744,3.539-9.906
			l25.241-16.862c3.965-2.617,5.163-7.894,2.716-11.966l-17.828-29.642c-2.504-4.18-1.149-9.597,3.028-12.106
			c4.176-2.509,9.596-1.162,12.11,3.011l17.836,29.66c7.311,12.157,3.745,27.915-8.086,35.741l-25.207,16.845
			C372.93,246.391,371.226,246.909,369.483,246.91z"/>
		<path style="fill:#2C2F38;" d="M194.198,467.862c-1.74,0.001-3.441-0.516-4.888-1.483l-38.957-25.974
			c-11.782-7.828-15.315-23.542-8.017-35.659l17.819-29.703c2.509-4.18,7.932-5.535,12.112-3.026
			c4.18,2.509,5.535,7.932,3.026,12.112l-17.819,29.703c-2.434,4.036-1.256,9.274,2.672,11.879l38.957,25.979
			c3.238,2.159,4.68,6.183,3.55,9.907C201.524,465.321,198.09,467.866,194.198,467.862z"/>
		<path style="fill:#2C2F38;" d="M317.802,467.862c-3.891,0.003-7.326-2.542-8.455-6.265c-1.129-3.724,0.313-7.748,3.55-9.907
			l38.957-25.974c3.928-2.607,5.106-7.846,2.672-11.884l-17.819-29.703c-2.509-4.18-1.154-9.603,3.026-12.112
			c4.18-2.509,9.603-1.154,12.112,3.026l17.819,29.702c7.297,12.119,3.764,27.834-8.017,35.663l-38.957,25.97
			C321.243,467.347,319.542,467.863,317.802,467.862z"/>
		<path style="fill:#2C2F38;" d="M106.854,334.923c-7.29,0.022-14.273-2.937-19.328-8.19l-25.922-26.716
			c-2.196-2.264-3.017-5.527-2.155-8.561c0.862-3.034,3.278-5.377,6.336-6.147c3.058-0.77,6.295,0.15,8.491,2.414l25.948,26.746
			c3.384,3.495,8.897,3.77,12.612,0.629l22.336-18.802c3.731-3.124,9.287-2.638,12.42,1.086c3.132,3.724,2.659,9.281-1.058,12.422
			l-22.336,18.802C119.343,332.694,113.199,334.931,106.854,334.923z"/>
		<path style="fill:#2C2F38;" d="M405.155,334.927c-6.349,0.008-12.496-2.231-17.353-6.319l-22.336-18.802
			c-3.717-3.141-4.19-8.698-1.058-12.422c3.132-3.724,8.688-4.21,12.42-1.086l22.336,18.802c3.702,3.136,9.199,2.874,12.586-0.599
			l25.974-26.776c3.395-3.499,8.983-3.584,12.483-0.19c3.499,3.395,3.584,8.983,0.19,12.483l-25.949,26.746
			C419.399,332.001,412.43,334.95,405.155,334.927z"/>
	</g>
	<g>
		<path style="fill:#35495E;" d="M315.41,169.048c13.005-5.204,21.121-18.255,20.039-32.221c0-36.546-35.575-66.207-79.448-66.207
			s-79.448,29.661-79.448,66.207c-1.083,13.966,7.033,27.016,20.039,32.221H315.41z"/>
		<path style="fill:#35495E;" d="M256,256v185.379c-68.237,0-123.586-84.833-123.586-167.724
			c-0.796-22.786,4.767-45.344,16.067-65.148C176.253,238.466,215.15,255.647,256,256z"/>
	</g>
	<path style="fill:#2C2F38;" d="M363.52,208.508C335.957,238.759,296.925,256,256,256s-79.957-17.241-107.519-47.492
		c21.186-35.046,61.351-49.611,107.519-49.611S342.334,173.462,363.52,208.508z"/>
	<path style="fill:#2C3E50;" d="M379.586,273.655c0,82.891-55.349,167.724-123.586,167.724V256
		c40.85-0.353,79.747-17.534,107.519-47.492C374.819,228.311,380.382,250.869,379.586,273.655z"/>
	<g>
		<path style="fill:#E64C3C;" d="M507.056,17.479L17.479,507.057c-5.247-2.952-9.583-7.288-12.534-12.535L243.466,256L256,243.465
			L494.522,4.944C499.769,7.896,504.104,12.232,507.056,17.479z"/>
		<path style="fill:#E64C3C;" d="M507.056,494.522c-2.952,5.247-7.288,9.583-12.535,12.535L4.944,17.479
			c2.952-5.247,7.288-9.583,12.535-12.535L256,243.465L268.535,256L507.056,494.522z"/>
	</g>
</g>
<g>
</g>
<g>
</g>
<g>
</g>
<g>
</g>
<g>
</g>
<g>
</g>
<g>
</g>
<g>
</g>
<g>
</g>
<g>
</g>
<g>
</g>
<g>
</g>
<g>
</g>
<g>
</g>
<g>
</g>
</svg>
