<?xml version="1.0" encoding="iso-8859-1"?>
<!-- Generator: Adobe Illustrator 19.0.0, SVG Export Plug-In . SVG Version: 6.00 Build 0)  -->
<svg version="1.1" id="Capa_1" xmlns="http://www.w3.org/2000/svg" xmlns:xlink="http://www.w3.org/1999/xlink" x="0px" y="0px"
	 viewBox="0 0 512 512" style="enable-background:new 0 0 512 512;" xml:space="preserve">
<g>
	<path style="fill:#7D6599;" d="M406.069,44.138V476.69c0.003,9.366-3.717,18.348-10.339,24.971
		c-6.623,6.622-15.605,10.342-24.971,10.339H141.241c-9.366,0.003-18.348-3.717-24.971-10.339
		c-6.623-6.623-10.342-15.605-10.339-24.971V44.138H406.069z"/>
	<polygon style="fill:#ECF0F1;" points="282.483,203.034 282.483,282.483 229.517,282.483 229.517,203.034 256,141.241 	"/>
	<g>
		<polygon style="fill:#BDC3C7;" points="229.517,229.517 229.517,282.483 194.207,326.621 194.207,264.828 		"/>
		<polygon style="fill:#BDC3C7;" points="317.793,264.828 317.793,326.621 282.483,282.483 282.483,229.517 		"/>
	</g>
	<g>
		<path style="fill:#ECF0F1;" d="M194.207,335.448c-2.341,0.001-4.587-0.929-6.243-2.585c-1.656-1.656-2.585-3.901-2.585-6.243
			V220.69c0-4.875,3.952-8.828,8.828-8.828s8.828,3.952,8.828,8.828v105.931c0.001,2.341-0.929,4.587-2.585,6.243
			C198.794,334.519,196.548,335.449,194.207,335.448z"/>
		<path style="fill:#ECF0F1;" d="M317.793,335.448c-2.341,0.001-4.587-0.929-6.243-2.585c-1.656-1.656-2.585-3.901-2.585-6.243
			V220.69c0-4.875,3.952-8.828,8.828-8.828s8.828,3.952,8.828,8.828v105.931c0.001,2.341-0.929,4.587-2.585,6.243
			C322.38,334.519,320.135,335.449,317.793,335.448z"/>
	</g>
	<path style="fill:#95A5A5;" d="M406.069,35.31v35.31H105.931l0-35.31c-0.003-9.366,3.717-18.349,10.339-24.971
		C122.893,3.717,131.876-0.003,141.241,0h229.517c9.366-0.003,18.349,3.717,24.971,10.339
		C402.352,16.962,406.072,25.945,406.069,35.31z"/>
	<g>
		<path style="fill:#F0C419;" d="M141.241,150.069c-4.875,0-8.828-3.952-8.828-8.828s3.952-8.828,8.828-8.828
			c14.619-0.016,26.467-11.863,26.483-26.483c0-4.875,3.952-8.828,8.828-8.828c4.875,0,8.828,3.952,8.828,8.828
			C185.351,130.296,165.606,150.04,141.241,150.069z"/>
		<path style="fill:#F0C419;" d="M211.862,150.069h-8.828c-2.389,0.003-4.677-0.966-6.336-2.685
			c-17.389-6.382-28.955-22.929-28.974-41.453c0-4.875,3.952-8.828,8.828-8.828c4.875,0,8.828,3.952,8.828,8.828
			c0.016,14.619,11.863,26.467,26.483,26.483c4.875,0,8.828,3.952,8.828,8.828C220.69,146.117,216.737,150.069,211.862,150.069z"/>
		<path style="fill:#F0C419;" d="M176.552,185.379c-2.341,0.001-4.587-0.929-6.243-2.585c-1.656-1.656-2.585-3.901-2.585-6.243
			c-0.016-14.619-11.863-26.467-26.483-26.483c-4.875,0-8.828-3.952-8.828-8.828c0-4.875,3.952-8.828,8.828-8.828
			c24.365,0.029,44.109,19.773,44.138,44.138c0.001,2.341-0.929,4.587-2.585,6.243C181.139,184.45,178.893,185.38,176.552,185.379z"
			/>
		<path style="fill:#F0C419;" d="M176.552,185.379c-2.341,0.001-4.587-0.929-6.243-2.585s-2.585-3.901-2.585-6.243
			c0.019-18.523,11.585-35.071,28.974-41.453c1.659-1.719,3.947-2.689,6.336-2.685h8.828c4.875,0,8.828,3.952,8.828,8.828
			c0,4.875-3.952,8.828-8.828,8.828c-14.619,0.016-26.467,11.863-26.483,26.483c0.001,2.341-0.929,4.587-2.585,6.243
			C181.139,184.45,178.893,185.38,176.552,185.379z"/>
		<path style="fill:#F0C419;" d="M300.138,406.069c-4.875,0-8.828-3.952-8.828-8.828c0-4.875,3.952-8.828,8.828-8.828
			c14.619-0.016,26.467-11.863,26.483-26.483c0-4.875,3.952-8.828,8.828-8.828s8.828,3.952,8.828,8.828
			C344.247,386.296,324.503,406.04,300.138,406.069z"/>
		<path style="fill:#F0C419;" d="M370.759,406.069h-8.828c-2.389,0.003-4.677-0.966-6.336-2.685
			c-17.389-6.382-28.955-22.929-28.974-41.453c0-4.875,3.952-8.828,8.828-8.828s8.828,3.952,8.828,8.828
			c0.016,14.619,11.863,26.467,26.483,26.483c4.875,0,8.828,3.952,8.828,8.828C379.586,402.117,375.634,406.069,370.759,406.069z"/>
		<path style="fill:#F0C419;" d="M335.448,441.379c-2.341,0.001-4.587-0.929-6.243-2.585c-1.656-1.656-2.585-3.901-2.585-6.243
			c-0.016-14.619-11.863-26.467-26.483-26.483c-4.875,0-8.828-3.952-8.828-8.828c0-4.875,3.952-8.828,8.828-8.828
			c24.365,0.029,44.109,19.773,44.138,44.138c0.001,2.341-0.929,4.587-2.585,6.243C340.035,440.45,337.79,441.38,335.448,441.379z"
			/>
		<path style="fill:#F0C419;" d="M335.448,441.379c-2.341,0.001-4.587-0.929-6.243-2.585c-1.656-1.656-2.585-3.901-2.585-6.243
			c0.019-18.523,11.585-35.071,28.974-41.453c1.659-1.719,3.947-2.689,6.336-2.685h8.828c4.875,0,8.828,3.952,8.828,8.828
			c0,4.875-3.952,8.828-8.828,8.828c-14.619,0.016-26.467,11.863-26.483,26.483c0.001,2.341-0.929,4.587-2.585,6.243
			C340.035,440.45,337.79,441.38,335.448,441.379z"/>
	</g>
	<g>
		<path style="fill:#3D324C;" d="M194.207,406.069c-2.341,0.001-4.587-0.929-6.243-2.585c-1.656-1.656-2.585-3.901-2.585-6.243
			v-26.483c0-4.875,3.952-8.828,8.828-8.828s8.828,3.952,8.828,8.828v26.483c0.001,2.341-0.929,4.587-2.585,6.243
			C198.794,405.14,196.548,406.07,194.207,406.069z"/>
		<path style="fill:#3D324C;" d="M229.517,353.103c-2.341,0.001-4.587-0.929-6.243-2.585c-1.656-1.656-2.585-3.901-2.585-6.243
			v-8.828c0-4.875,3.952-8.828,8.828-8.828c4.875,0,8.828,3.952,8.828,8.828v8.828c0.001,2.341-0.929,4.587-2.585,6.243
			C234.104,352.174,231.859,353.104,229.517,353.103z"/>
		<path style="fill:#3D324C;" d="M229.517,406.069c-2.341,0.001-4.587-0.929-6.243-2.585c-1.656-1.656-2.585-3.901-2.585-6.243
			v-17.655c0-4.875,3.952-8.828,8.828-8.828c4.875,0,8.828,3.952,8.828,8.828v17.655c0.001,2.341-0.929,4.587-2.585,6.243
			C234.104,405.14,231.859,406.07,229.517,406.069z"/>
		<path style="fill:#3D324C;" d="M282.483,353.103c-2.341,0.001-4.587-0.929-6.243-2.585c-1.656-1.656-2.585-3.901-2.585-6.243
			v-8.828c0-4.875,3.952-8.828,8.828-8.828s8.828,3.952,8.828,8.828v8.828c0.001,2.341-0.929,4.587-2.585,6.243
			C287.07,352.174,284.824,353.104,282.483,353.103z"/>
	</g>
	<g>
		<path style="fill:#5E5F62;" d="M282.483,44.138h-52.966c-4.875,0-8.828-3.952-8.828-8.828s3.952-8.828,8.828-8.828h52.966
			c4.875,0,8.828,3.952,8.828,8.828S287.358,44.138,282.483,44.138z"/>
		<path style="fill:#5E5F62;" d="M344.276,44.138h-8.828c-4.875,0-8.828-3.952-8.828-8.828s3.952-8.828,8.828-8.828h8.828
			c4.875,0,8.828,3.952,8.828,8.828S349.151,44.138,344.276,44.138z"/>
		<path style="fill:#5E5F62;" d="M370.759,44.138c-2.348,0.023-4.607-0.9-6.267-2.56c-1.66-1.66-2.583-3.919-2.56-6.267
			c0.031-2.338,0.945-4.577,2.56-6.268c2.113-2.019,5.064-2.905,7.94-2.383c0.586,0.081,1.154,0.259,1.681,0.526
			c0.542,0.177,1.05,0.447,1.5,0.797c0.507,0.303,0.982,0.658,1.414,1.06c1.611,1.693,2.525,3.931,2.56,6.268
			c-0.013,0.592-0.074,1.181-0.181,1.763c-0.093,0.554-0.27,1.09-0.526,1.59c-0.194,0.562-0.461,1.097-0.793,1.591
			c-0.353,0.44-0.707,0.879-1.06,1.323c-0.433,0.401-0.907,0.755-1.414,1.056c-0.45,0.351-0.958,0.62-1.5,0.797
			c-0.528,0.266-1.096,0.445-1.681,0.53C371.879,44.063,371.32,44.122,370.759,44.138z"/>
	</g>
	<circle style="fill:#3D324C;" cx="256" cy="463.448" r="22.069"/>
</g>
<g>
</g>
<g>
</g>
<g>
</g>
<g>
</g>
<g>
</g>
<g>
</g>
<g>
</g>
<g>
</g>
<g>
</g>
<g>
</g>
<g>
</g>
<g>
</g>
<g>
</g>
<g>
</g>
<g>
</g>
</svg>
