<?xml version="1.0" encoding="iso-8859-1"?>
<!-- Generator: Adobe Illustrator 19.0.0, SVG Export Plug-In . SVG Version: 6.00 Build 0)  -->
<svg version="1.1" id="Capa_1" xmlns="http://www.w3.org/2000/svg" xmlns:xlink="http://www.w3.org/1999/xlink" x="0px" y="0px"
	 viewBox="0 0 512 512" style="enable-background:new 0 0 512 512;" xml:space="preserve">
<g>
	<rect x="70.621" y="35.31" style="fill:#7D6599;" width="370.759" height="441.379"/>
	<g>
		<path style="fill:#95A5A5;" d="M441.379,35.31v17.655H70.621V35.31c-0.003-9.366,3.717-18.349,10.339-24.971
			C87.582,3.717,96.565-0.003,105.931,0h300.138c9.366-0.003,18.349,3.717,24.971,10.339
			C437.663,16.962,441.382,25.945,441.379,35.31z"/>
		<path style="fill:#95A5A5;" d="M441.379,459.034v17.655c0.003,9.366-3.717,18.348-10.339,24.971
			c-6.623,6.622-15.605,10.342-24.971,10.339H105.931c-9.366,0.003-18.348-3.717-24.971-10.339
			c-6.623-6.623-10.342-15.605-10.339-24.971v-17.655H441.379z"/>
	</g>
	<path style="fill:#5E5F62;" d="M264.828,494.345h-17.655c-4.875,0-8.828-3.952-8.828-8.828s3.952-8.828,8.828-8.828h17.655
		c4.875,0,8.828,3.952,8.828,8.828S269.703,494.345,264.828,494.345z"/>
	<polygon style="fill:#ECF0F1;" points="282.483,229.517 282.483,308.966 229.517,308.966 229.517,229.517 256,167.724 	"/>
	<g>
		<polygon style="fill:#BDC3C7;" points="229.517,256 229.517,308.966 194.207,353.103 194.207,291.31 		"/>
		<polygon style="fill:#BDC3C7;" points="317.793,291.31 317.793,353.103 282.483,308.966 282.483,256 		"/>
	</g>
	<g>
		<path style="fill:#ECF0F1;" d="M194.207,361.931c-2.341,0.001-4.587-0.929-6.243-2.585c-1.656-1.656-2.585-3.901-2.585-6.243
			V247.172c0-4.875,3.952-8.828,8.828-8.828s8.828,3.952,8.828,8.828v105.931c0.001,2.341-0.929,4.587-2.585,6.243
			C198.794,361.002,196.548,361.932,194.207,361.931z"/>
		<path style="fill:#ECF0F1;" d="M317.793,361.931c-2.341,0.001-4.587-0.929-6.243-2.585c-1.656-1.656-2.585-3.901-2.585-6.243
			V247.172c0-4.875,3.952-8.828,8.828-8.828s8.828,3.952,8.828,8.828v105.931c0.001,2.341-0.929,4.587-2.585,6.243
			C322.38,361.002,320.135,361.932,317.793,361.931z"/>
	</g>
	<g>
		<path style="fill:#F0C419;" d="M114.759,150.069h-8.828c-4.875,0-8.828-3.952-8.828-8.828s3.952-8.828,8.828-8.828h8.828
			c14.619-0.016,26.467-11.863,26.483-26.483V88.276c0-4.875,3.952-8.828,8.828-8.828c4.875,0,8.828,3.952,8.828,8.828v17.655
			C158.868,130.296,139.123,150.04,114.759,150.069z"/>
		<path style="fill:#F0C419;" d="M194.207,150.069h-8.828c-24.365-0.029-44.109-19.773-44.138-44.138V88.276
			c0-4.875,3.952-8.828,8.828-8.828c4.875,0,8.828,3.952,8.828,8.828v17.655c0.016,14.619,11.863,26.467,26.483,26.483h8.828
			c4.875,0,8.828,3.952,8.828,8.828S199.082,150.069,194.207,150.069z"/>
		<path style="fill:#F0C419;" d="M150.069,203.034c-2.341,0.001-4.587-0.929-6.243-2.585c-1.656-1.656-2.585-3.901-2.585-6.243
			v-17.655c-0.016-14.619-11.863-26.467-26.483-26.483h-8.828c-4.875,0-8.828-3.952-8.828-8.828c0-4.875,3.952-8.828,8.828-8.828
			h8.828c24.365,0.029,44.109,19.773,44.138,44.138v17.655c0.001,2.341-0.929,4.587-2.585,6.243
			C154.656,202.105,152.41,203.035,150.069,203.034z"/>
		<path style="fill:#F0C419;" d="M150.069,203.034c-2.341,0.001-4.587-0.929-6.243-2.585c-1.656-1.656-2.585-3.901-2.585-6.243
			v-17.655c0.029-24.365,19.773-44.109,44.138-44.138h8.828c4.875,0,8.828,3.952,8.828,8.828c0,4.875-3.952,8.828-8.828,8.828
			h-8.828c-14.619,0.016-26.467,11.863-26.483,26.483v17.655c0.001,2.341-0.929,4.587-2.585,6.243
			C154.656,202.105,152.41,203.035,150.069,203.034z"/>
		<path style="fill:#F0C419;" d="M326.621,211.862h-8.828c-4.875,0-8.828-3.952-8.828-8.828s3.952-8.828,8.828-8.828h8.828
			c14.619-0.016,26.467-11.863,26.483-26.483v-17.655c0-4.875,3.952-8.828,8.828-8.828s8.828,3.952,8.828,8.828v17.655
			C370.73,192.089,350.986,211.833,326.621,211.862z"/>
		<path style="fill:#F0C419;" d="M406.069,211.862h-8.828c-24.365-0.029-44.109-19.773-44.138-44.138v-17.655
			c0-4.875,3.952-8.828,8.828-8.828s8.828,3.952,8.828,8.828v17.655c0.016,14.619,11.863,26.467,26.483,26.483h8.828
			c4.875,0,8.828,3.952,8.828,8.828S410.944,211.862,406.069,211.862z"/>
		<path style="fill:#F0C419;" d="M361.931,264.828c-2.341,0.001-4.587-0.929-6.243-2.585c-1.656-1.656-2.585-3.901-2.585-6.243
			v-17.655c-0.016-14.619-11.863-26.467-26.483-26.483h-8.828c-4.875,0-8.828-3.952-8.828-8.828s3.952-8.828,8.828-8.828h8.828
			c24.365,0.029,44.109,19.773,44.138,44.138V256c0.001,2.341-0.929,4.587-2.585,6.243
			C366.518,263.898,364.272,264.828,361.931,264.828z"/>
		<path style="fill:#F0C419;" d="M361.931,264.828c-2.341,0.001-4.587-0.929-6.243-2.585c-1.656-1.656-2.585-3.901-2.585-6.243
			v-17.655c0.029-24.365,19.773-44.109,44.138-44.138h8.828c4.875,0,8.828,3.952,8.828,8.828s-3.952,8.828-8.828,8.828h-8.828
			c-14.619,0.016-26.467,11.863-26.483,26.483V256c0.001,2.341-0.929,4.587-2.585,6.243
			C366.518,263.898,364.272,264.828,361.931,264.828z"/>
		<path style="fill:#F0C419;" d="M326.621,132.414c-2.341,0.001-4.587-0.929-6.243-2.585c-1.656-1.656-2.585-3.901-2.585-6.243
			v-35.31c0-4.875,3.952-8.828,8.828-8.828s8.828,3.952,8.828,8.828v35.31c0.001,2.341-0.929,4.587-2.585,6.243
			C331.208,131.485,328.962,132.414,326.621,132.414z"/>
		<path style="fill:#F0C419;" d="M335.448,114.759h-17.655c-4.875,0-8.828-3.952-8.828-8.828s3.952-8.828,8.828-8.828h17.655
			c4.875,0,8.828,3.952,8.828,8.828S340.324,114.759,335.448,114.759z"/>
		<path style="fill:#F0C419;" d="M114.759,344.276c-2.341,0.001-4.587-0.929-6.243-2.585c-1.656-1.656-2.585-3.901-2.585-6.243
			v-35.31c0-4.875,3.952-8.828,8.828-8.828s8.828,3.952,8.828,8.828v35.31c0.001,2.341-0.929,4.587-2.585,6.243
			C119.346,343.347,117.1,344.276,114.759,344.276z"/>
		<path style="fill:#F0C419;" d="M123.586,326.621h-17.655c-4.875,0-8.828-3.952-8.828-8.828s3.952-8.828,8.828-8.828h17.655
			c4.875,0,8.828,3.952,8.828,8.828S128.462,326.621,123.586,326.621z"/>
	</g>
	<g>
		<path style="fill:#3D324C;" d="M194.207,432.552c-2.341,0.001-4.587-0.929-6.243-2.585c-1.656-1.656-2.585-3.901-2.585-6.243
			v-26.483c0-4.875,3.952-8.828,8.828-8.828s8.828,3.952,8.828,8.828v26.483c0.001,2.341-0.929,4.587-2.585,6.243
			C198.794,431.622,196.548,432.552,194.207,432.552z"/>
		<path style="fill:#3D324C;" d="M317.793,432.552c-2.341,0.001-4.587-0.929-6.243-2.585c-1.656-1.656-2.585-3.901-2.585-6.243
			v-26.483c0-4.875,3.952-8.828,8.828-8.828s8.828,3.952,8.828,8.828v26.483c0.001,2.341-0.929,4.587-2.585,6.243
			C322.38,431.622,320.135,432.552,317.793,432.552z"/>
		<path style="fill:#3D324C;" d="M229.517,379.586c-2.341,0.001-4.587-0.929-6.243-2.585c-1.656-1.656-2.585-3.901-2.585-6.243
			v-8.828c0-4.875,3.952-8.828,8.828-8.828s8.828,3.952,8.828,8.828v8.828c0.001,2.341-0.929,4.587-2.585,6.243
			C234.104,378.657,231.859,379.587,229.517,379.586z"/>
		<path style="fill:#3D324C;" d="M229.517,432.552c-2.341,0.001-4.587-0.929-6.243-2.585c-1.656-1.656-2.585-3.901-2.585-6.243
			v-17.655c0-4.875,3.952-8.828,8.828-8.828s8.828,3.952,8.828,8.828v17.655c0.001,2.341-0.929,4.587-2.585,6.243
			C234.104,431.622,231.859,432.552,229.517,432.552z"/>
		<path style="fill:#3D324C;" d="M282.483,379.586c-2.341,0.001-4.587-0.929-6.243-2.585c-1.656-1.656-2.585-3.901-2.585-6.243
			v-8.828c0-4.875,3.952-8.828,8.828-8.828s8.828,3.952,8.828,8.828v8.828c0.001,2.341-0.929,4.587-2.585,6.243
			C287.07,378.657,284.824,379.587,282.483,379.586z"/>
		<path style="fill:#3D324C;" d="M282.483,432.552c-2.341,0.001-4.587-0.929-6.243-2.585c-1.656-1.656-2.585-3.901-2.585-6.243
			v-17.655c0-4.875,3.952-8.828,8.828-8.828s8.828,3.952,8.828,8.828v17.655c0.001,2.341-0.929,4.587-2.585,6.243
			C287.07,431.622,284.824,432.552,282.483,432.552z"/>
	</g>
</g>
<g>
</g>
<g>
</g>
<g>
</g>
<g>
</g>
<g>
</g>
<g>
</g>
<g>
</g>
<g>
</g>
<g>
</g>
<g>
</g>
<g>
</g>
<g>
</g>
<g>
</g>
<g>
</g>
<g>
</g>
</svg>
