<?xml version="1.0" encoding="iso-8859-1"?>
<!-- Generator: Adobe Illustrator 19.0.0, SVG Export Plug-In . SVG Version: 6.00 Build 0)  -->
<svg version="1.1" id="Capa_1" xmlns="http://www.w3.org/2000/svg" xmlns:xlink="http://www.w3.org/1999/xlink" x="0px" y="0px"
	 viewBox="0 0 512 512" style="enable-background:new 0 0 512 512;" xml:space="preserve">
<g>
	<path style="fill:#4482C3;" d="M494.345,88.276H88.276c0-24.377-19.761-44.138-44.138-44.138S0,63.899,0,88.276v335.448
		c0.009,24.373,19.765,44.129,44.138,44.138h450.207c9.739-0.029,17.627-7.916,17.655-17.655V105.931
		C511.972,96.192,504.084,88.304,494.345,88.276z"/>
	<path style="fill:#285680;" d="M88.276,88.276v335.448c0-24.377-19.761-44.138-44.138-44.138S0,399.347,0,423.724V88.276
		c0-24.377,19.761-44.138,44.138-44.138S88.276,63.899,88.276,88.276z"/>
	<g>
		<path style="fill:#E6E7E8;" d="M459.034,194.207c-2.341,0.001-4.587-0.929-6.243-2.585c-1.656-1.656-2.585-3.901-2.585-6.243
			v-26.483c-0.005-4.873-3.954-8.823-8.828-8.828h-26.483c-4.875,0-8.828-3.952-8.828-8.828c0-4.875,3.952-8.828,8.828-8.828h26.483
			c14.619,0.016,26.467,11.863,26.483,26.483v26.483c0.001,2.341-0.929,4.587-2.585,6.243
			C463.622,193.278,461.376,194.208,459.034,194.207z"/>
		<path style="fill:#E6E7E8;" d="M141.241,194.207c-4.875,0-8.828-3.952-8.828-8.828v-26.483
			c0.016-14.619,11.863-26.467,26.483-26.483h26.483c4.875,0,8.828,3.952,8.828,8.828s-3.952,8.828-8.828,8.828h-26.483
			c-4.873,0.006-8.821,3.955-8.828,8.828v26.483c0,2.341-0.93,4.587-2.586,6.242C145.828,193.277,143.583,194.207,141.241,194.207z"
			/>
		<path style="fill:#E6E7E8;" d="M185.379,423.724h-26.483c-14.619-0.016-26.467-11.863-26.483-26.483v-26.483
			c0-4.875,3.952-8.828,8.828-8.828s8.828,3.952,8.828,8.828v26.483c0.006,4.873,3.955,8.821,8.828,8.828h26.483
			c4.875,0,8.828,3.952,8.828,8.828S190.255,423.724,185.379,423.724z"/>
		<path style="fill:#E6E7E8;" d="M441.379,423.724h-26.483c-4.875,0-8.828-3.952-8.828-8.828s3.952-8.828,8.828-8.828h26.483
			c4.873-0.005,8.823-3.954,8.828-8.828v-26.483c0-4.875,3.952-8.828,8.828-8.828s8.828,3.952,8.828,8.828v26.483
			C467.846,411.861,455.999,423.708,441.379,423.724z"/>
		<path style="fill:#E6E7E8;" d="M344.31,275.031c1.236,14.412,13.439,25.393,27.901,25.107h7.375c4.875,0,8.828,3.952,8.828,8.828
			v52.966c0,4.875-3.952,8.828-8.828,8.828h-44.138c-4.875,0-8.828-3.952-8.828-8.828v-7.375
			c0.286-14.461-10.695-26.664-25.106-27.901c-7.255-0.387-14.35,2.228-19.62,7.23c-5.269,5.002-8.249,11.952-8.24,19.218v8.828
			c0,4.875-3.952,8.828-8.828,8.828H220.69c-4.875,0-8.828-3.952-8.828-8.828v-52.966c0-4.875,3.952-8.828,8.828-8.828h7.375
			c14.462,0.286,26.665-10.696,27.901-25.107c0.386-7.255-2.229-14.35-7.231-19.619c-5.002-5.269-11.952-8.249-19.217-8.239h-8.828
			c-4.875,0-8.828-3.952-8.828-8.828v-35.31c0-4.875,3.952-8.828,8.828-8.828h44.138c4.875,0,8.828-3.952,8.828-8.828v-7.375
			c-0.286-14.461,10.695-26.665,25.106-27.901c7.255-0.387,14.35,2.228,19.62,7.231c5.269,5.002,8.249,11.952,8.24,19.218v8.828
			c0,4.875,3.952,8.828,8.828,8.828h44.138c4.875,0,8.828,3.952,8.828,8.828v35.31c0,4.875-3.952,8.828-8.828,8.828h-8.828
			c-7.265-0.009-14.215,2.97-19.217,8.239C346.539,260.681,343.924,267.775,344.31,275.031z"/>
	</g>
</g>
<g>
</g>
<g>
</g>
<g>
</g>
<g>
</g>
<g>
</g>
<g>
</g>
<g>
</g>
<g>
</g>
<g>
</g>
<g>
</g>
<g>
</g>
<g>
</g>
<g>
</g>
<g>
</g>
<g>
</g>
</svg>
