<?xml version="1.0" encoding="iso-8859-1"?>
<!-- Generator: Adobe Illustrator 19.0.0, SVG Export Plug-In . SVG Version: 6.00 Build 0)  -->
<svg version="1.1" id="Capa_1" xmlns="http://www.w3.org/2000/svg" xmlns:xlink="http://www.w3.org/1999/xlink" x="0px" y="0px"
	 viewBox="0 0 512 512" style="enable-background:new 0 0 512 512;" xml:space="preserve">
<g>
	<path style="fill:#4482C3;" d="M455.378,5.171l51.451,51.451C510.14,59.933,512,64.424,512,69.106v416.411
		C512,500.143,500.143,512,485.517,512H26.483C11.857,512,0,500.143,0,485.517V26.483C0,11.857,11.857,0,26.483,0h416.411
		C447.576,0,452.067,1.86,455.378,5.171z"/>
	<path style="fill:#BDC3C7;" d="M97.103,0h308.966v176.552c0,9.751-7.905,17.655-17.655,17.655H114.759
		c-9.751,0-17.655-7.904-17.655-17.655V0z"/>
	<path style="fill:#ECF0F1;" d="M291.31,0h52.966v141.241c0,9.751-7.904,17.655-17.655,17.655h-17.655
		c-9.751,0-17.655-7.904-17.655-17.655V0z"/>
	<path style="fill:#285680;" d="M79.448,229.517h353.103c19.501,0,35.31,15.809,35.31,35.31V512H44.138V264.828
		C44.138,245.326,59.947,229.517,79.448,229.517z"/>
	<g>
		<path style="fill:#BDC3C7;" d="M194.207,282.483h26.483c9.751,0,17.655,7.905,17.655,17.655v26.472h-61.793v-26.472
			C176.552,290.387,184.456,282.483,194.207,282.483z"/>
		<path style="fill:#BDC3C7;" d="M291.31,282.483h26.483c9.751,0,17.655,7.905,17.655,17.655v26.472h-61.793v-26.472
			C273.655,290.387,281.56,282.483,291.31,282.483z"/>
	</g>
	<path style="fill:#ECF0F1;" d="M335.448,308.966H176.552c-35.518-0.014-65.52,26.353-70.068,61.578s17.774,68.348,52.13,77.355
		c34.357,9.007,70.057-8.904,83.376-41.829h28.019c13.323,32.913,49.016,50.813,83.362,41.806
		c34.346-9.007,56.661-42.12,52.117-77.335S370.956,308.96,335.448,308.966z"/>
	<path style="fill:#BDC3C7;" d="M203.034,370.76h-17.655v-17.655c0-4.875-3.952-8.828-8.828-8.828s-8.828,3.952-8.828,8.828v17.655
		h-17.655c-4.875,0-8.828,3.952-8.828,8.828c0,4.875,3.952,8.828,8.828,8.828h17.655v17.655c0,4.875,3.952,8.828,8.828,8.828
		s8.828-3.952,8.828-8.828v-17.655h17.655c4.875,0,8.828-3.952,8.828-8.828C211.862,374.713,207.91,370.76,203.034,370.76z"/>
	<g>
		<path style="fill:#4482C3;" d="M300.138,392.829c-3.57-0.001-6.788-2.152-8.154-5.45c-1.366-3.298-0.611-7.094,1.913-9.619
			l8.828-8.828c2.224-2.259,5.488-3.152,8.552-2.339c3.064,0.813,5.457,3.206,6.269,6.27c0.812,3.064-0.08,6.328-2.339,8.552
			l-8.828,8.828C304.726,391.901,302.48,392.832,300.138,392.829z"/>
		<path style="fill:#4482C3;" d="M335.448,361.933c-3.57-0.001-6.788-2.152-8.154-5.45c-1.366-3.298-0.611-7.094,1.913-9.619
			l8.828-8.828c2.224-2.259,5.488-3.152,8.552-2.339c3.064,0.813,5.457,3.206,6.269,6.27c0.812,3.064-0.081,6.328-2.339,8.552
			l-8.828,8.828C340.036,361.005,337.79,361.936,335.448,361.933z"/>
		<path style="fill:#4482C3;" d="M326.621,423.726c-3.57-0.001-6.788-2.152-8.154-5.45c-1.366-3.298-0.611-7.094,1.913-9.619
			l8.828-8.828c2.224-2.259,5.488-3.152,8.552-2.339c3.064,0.813,5.457,3.206,6.269,6.27c0.812,3.064-0.08,6.328-2.339,8.552
			l-8.828,8.828C331.208,422.798,328.962,423.729,326.621,423.726z"/>
		<path style="fill:#4482C3;" d="M361.931,392.829c-3.57-0.001-6.788-2.152-8.154-5.45c-1.366-3.298-0.611-7.094,1.913-9.619
			l8.828-8.828c2.224-2.259,5.488-3.152,8.552-2.339c3.064,0.813,5.457,3.206,6.269,6.27s-0.081,6.328-2.339,8.552l-8.828,8.828
			C366.519,391.901,364.273,392.832,361.931,392.829z"/>
	</g>
</g>
<g>
</g>
<g>
</g>
<g>
</g>
<g>
</g>
<g>
</g>
<g>
</g>
<g>
</g>
<g>
</g>
<g>
</g>
<g>
</g>
<g>
</g>
<g>
</g>
<g>
</g>
<g>
</g>
<g>
</g>
</svg>
