<?xml version="1.0" encoding="iso-8859-1"?>
<!-- Generator: Adobe Illustrator 19.0.0, SVG Export Plug-In . SVG Version: 6.00 Build 0)  -->
<svg version="1.1" id="Capa_1" xmlns="http://www.w3.org/2000/svg" xmlns:xlink="http://www.w3.org/1999/xlink" x="0px" y="0px"
	 viewBox="0 0 512 512" style="enable-background:new 0 0 512 512;" xml:space="preserve">
<g>
	<path style="fill:#CC4B4C;" d="M441.379,167.724V476.69c0,19.501-15.809,35.31-35.31,35.31H105.931
		c-19.501,0-35.31-15.809-35.31-35.31V167.724H441.379z"/>
	<g>
		<path style="fill:#BDC3C7;" d="M194.207,264.828h26.483c9.751,0,17.655,7.904,17.655,17.655v26.472h-61.793v-26.472
			C176.552,272.732,184.456,264.828,194.207,264.828z"/>
		<path style="fill:#BDC3C7;" d="M291.31,264.828h26.483c9.751,0,17.655,7.904,17.655,17.655v26.472h-61.793v-26.472
			C273.655,272.732,281.56,264.828,291.31,264.828z"/>
	</g>
	<path style="fill:#ECF0F1;" d="M335.448,291.31H176.552c-35.518-0.014-65.52,26.353-70.068,61.578
		c-4.548,35.225,17.774,68.348,52.13,77.355c34.357,9.007,70.057-8.904,83.376-41.829h28.019
		c13.323,32.913,49.016,50.813,83.362,41.806c34.346-9.007,56.661-42.12,52.117-77.335S370.956,291.305,335.448,291.31z"/>
	<path style="fill:#BDC3C7;" d="M203.034,353.105h-17.655V335.45c0-4.875-3.952-8.828-8.828-8.828s-8.828,3.952-8.828,8.828v17.655
		h-17.655c-4.875,0-8.828,3.952-8.828,8.828s3.952,8.828,8.828,8.828h17.655v17.655c0,4.875,3.952,8.828,8.828,8.828
		s8.828-3.952,8.828-8.828V370.76h17.655c4.875,0,8.828-3.952,8.828-8.828S207.91,353.105,203.034,353.105z"/>
	<g>
		<path style="fill:#4482C3;" d="M300.138,375.174c-3.57-0.001-6.788-2.152-8.154-5.45c-1.366-3.298-0.611-7.094,1.913-9.619
			l8.828-8.828c2.224-2.259,5.488-3.152,8.552-2.339c3.064,0.813,5.457,3.206,6.269,6.27c0.812,3.064-0.081,6.328-2.339,8.552
			l-8.828,8.828C304.726,374.246,302.48,375.177,300.138,375.174z"/>
		<path style="fill:#4482C3;" d="M335.448,344.278c-3.57-0.001-6.788-2.152-8.154-5.45c-1.366-3.298-0.611-7.094,1.913-9.619
			l8.828-8.828c2.224-2.259,5.488-3.152,8.552-2.339c3.064,0.813,5.457,3.206,6.269,6.27s-0.081,6.328-2.339,8.552l-8.828,8.828
			C340.036,343.35,337.79,344.28,335.448,344.278z"/>
		<path style="fill:#4482C3;" d="M326.621,406.071c-3.57-0.001-6.788-2.152-8.154-5.45c-1.366-3.298-0.611-7.094,1.913-9.619
			l8.828-8.828c2.224-2.259,5.488-3.152,8.552-2.339c3.064,0.813,5.457,3.206,6.269,6.27c0.812,3.064-0.08,6.328-2.339,8.552
			l-8.828,8.828C331.208,405.143,328.962,406.074,326.621,406.071z"/>
		<path style="fill:#4482C3;" d="M361.931,375.174c-3.57-0.001-6.788-2.152-8.154-5.45c-1.366-3.298-0.611-7.094,1.913-9.619
			l8.828-8.828c2.224-2.259,5.488-3.152,8.552-2.339c3.064,0.813,5.457,3.206,6.269,6.27s-0.081,6.328-2.339,8.552l-8.828,8.828
			C366.519,374.246,364.273,375.177,361.931,375.174z"/>
	</g>
	<g>
		<path style="fill:#CC4B4C;" d="M402.008,10.152C399.103,3.955,392.875-0.002,386.03,0H132.414
			c-6.845-0.003-13.073,3.954-15.978,10.152L50.582,150.069v35.31c0,14.654,5.386,26.483,20.039,26.483
			c7.026,0.009,13.768-2.778,18.736-7.746c4.968-4.968,7.756-11.71,7.746-18.736c0,14.626,11.857,26.483,26.483,26.483
			s26.483-11.857,26.483-26.483c0,14.626,11.857,26.483,26.483,26.483c14.626,0,26.483-11.857,26.483-26.483
			c0,14.626,11.857,26.483,26.483,26.483S256,200.005,256,185.379c0,14.626,11.857,26.483,26.483,26.483
			s26.483-11.857,26.483-26.483c0,14.626,11.857,26.483,26.483,26.483c14.626,0,26.483-11.857,26.483-26.483
			c0,14.626,11.857,26.483,26.483,26.483s26.483-11.857,26.483-26.483c0,14.626,11.857,26.483,26.483,26.483
			s26.483-11.857,26.483-26.483v-35.31L402.008,10.152z"/>
		<polygon style="fill:#CC4B4C;" points="256,0 256,150.069 203.034,150.069 220.69,0 		"/>
	</g>
	<path style="fill:#A5A5A4;" d="M97.103,150.069v35.31c0,14.626-11.857,26.483-26.483,26.483s-26.483-11.857-26.483-26.483v-35.31
		H97.103z"/>
	<path style="fill:#802F34;" d="M150.069,150.069v35.31c0,14.626-11.857,26.483-26.483,26.483s-26.483-11.857-26.483-26.483v-35.31
		H150.069z"/>
	<path style="fill:#A5A5A4;" d="M203.034,150.069v35.31c0,14.626-11.857,26.483-26.483,26.483
		c-14.626,0-26.483-11.857-26.483-26.483v-35.31H203.034z"/>
	<path style="fill:#802F34;" d="M256,150.069v35.31c0,14.626-11.857,26.483-26.483,26.483s-26.483-11.857-26.483-26.483v-35.31H256z
		"/>
	<polygon style="fill:#D1D4D1;" points="308.966,150.069 256,150.069 256,0 291.31,0 	"/>
	<path style="fill:#802F34;" d="M467.862,150.069v35.31c0,14.626-11.857,26.483-26.483,26.483s-26.483-11.857-26.483-26.483v-35.31
		H467.862z"/>
	<path style="fill:#D1D4D1;" d="M44.138,150.069h52.966L150.069,0L125.97,0c-6.844-0.002-13.072,3.955-15.978,10.152L44.138,150.069
		z"/>
	<g>
		<path style="fill:#A5A5A4;" d="M308.966,150.069v35.31c0,14.626-11.857,26.483-26.483,26.483S256,200.005,256,185.379v-35.31
			H308.966z"/>
		<path style="fill:#A5A5A4;" d="M414.897,150.069v35.31c0,14.626-11.857,26.483-26.483,26.483s-26.483-11.857-26.483-26.483v-35.31
			H414.897z"/>
	</g>
	<polygon style="fill:#CC4B4C;" points="185.379,0 150.069,150.069 97.103,150.069 150.069,0 	"/>
	<polygon style="fill:#D1D4D1;" points="220.69,0 203.034,150.069 150.069,150.069 185.379,0 	"/>
	<path style="fill:#802F34;" d="M361.931,150.069v35.31c0,14.626-11.857,26.483-26.483,26.483
		c-14.626,0-26.483-11.857-26.483-26.483v-35.31H361.931z"/>
	<polygon style="fill:#D1D4D1;" points="414.897,150.069 361.931,150.069 326.621,0 361.931,0 	"/>
	<polygon style="fill:#CC4B4C;" points="361.931,150.069 308.966,150.069 291.31,0 326.621,0 	"/>
</g>
<g>
</g>
<g>
</g>
<g>
</g>
<g>
</g>
<g>
</g>
<g>
</g>
<g>
</g>
<g>
</g>
<g>
</g>
<g>
</g>
<g>
</g>
<g>
</g>
<g>
</g>
<g>
</g>
<g>
</g>
</svg>
