<?xml version="1.0" encoding="iso-8859-1"?>
<!-- Generator: Adobe Illustrator 19.0.0, SVG Export Plug-In . SVG Version: 6.00 Build 0)  -->
<svg version="1.1" id="Capa_1" xmlns="http://www.w3.org/2000/svg" xmlns:xlink="http://www.w3.org/1999/xlink" x="0px" y="0px"
	 viewBox="0 0 512.081 512.081" style="enable-background:new 0 0 512.081 512.081;" xml:space="preserve">
<g transform="translate(-1)">
	<path style="fill:#5E5F62;" d="M304.045,218.774c-3.824,0.002-7.215-2.458-8.399-6.094c-1.184-3.636,0.108-7.622,3.201-9.871
		c10.181-7.405,16.44-24.013,18.095-48.026c2.922-41.522,27.957-53.694,48.44-56.595c4.828-0.686,9.297,2.672,9.983,7.5
		c0.686,4.828-2.672,9.297-7.5,9.983c-21,2.97-31.586,15.789-33.31,40.336c-2.052,29.802-10.578,50.353-25.328,61.078
		C307.723,218.184,305.908,218.776,304.045,218.774z"/>
	<path style="fill:#A5A5A4;" d="M322.219,253.202l-47.492,46.874c-17.789-23.615-38.796-44.622-62.411-62.411l47.492-46.874
		c6.904-6.886,18.078-6.886,24.982,0l37.429,37.429C329.104,235.124,329.104,246.298,322.219,253.202z"/>
	<path style="fill:#F18D46;" d="M436.99,174.366l-30.541-40.994c-1.225-1.74-3.555-2.296-5.433-1.296l-33.289,18.666
		c-1.487,0.727-3.256,0.565-4.586-0.421c-1.33-0.986-2-2.63-1.738-4.265l5.227-39.343c0.255-1.975-0.774-3.893-2.56-4.773
		l-39.885-19.153c-1.608-0.736-2.629-2.354-2.602-4.122c0.027-1.769,1.097-3.354,2.726-4.041l44.964-15.789
		c1.741-0.644,2.848-2.359,2.718-4.211l-2.456-50.1c-0.147-1.744,0.829-3.39,2.43-4.097s3.475-0.321,4.666,0.963l35.344,35.517
		c1.297,1.362,3.346,1.688,5.002,0.794l33.738-18.918c1.487-0.727,3.256-0.565,4.586,0.421c1.33,0.986,2,2.63,1.738,4.265
		l-5.199,39.139c-0.269,2.066,0.871,4.059,2.788,4.875l55.615,22.86c1.785,0.688,2.927,2.445,2.832,4.355
		c-0.095,1.911-1.405,3.545-3.249,4.054l-60.387,12.307c-1.882,0.41-3.229,2.07-3.243,3.997l-1.674,57.035
		c-0.01,1.807-1.196,3.396-2.926,3.918C439.866,176.532,437.998,175.865,436.99,174.366z"/>
	<path style="fill:#5E5F62;" d="M272.343,465.417c-57.971,58.01-150.563,62.382-213.742,10.092s-76.193-144.067-30.043-211.86
		s136.308-89.336,208.121-49.73c26.323,14.435,47.976,36.088,62.411,62.411C333.265,338.285,322.36,415.372,272.343,465.417z"/>
	<g>
		
			<ellipse transform="matrix(-0.3197 -0.9475 0.9475 -0.3197 -84.6851 469.2664)" style="fill:#D1D4D1;" cx="126.123" cy="265.035" rx="35.31" ry="52.965"/>
		<circle style="fill:#D1D4D1;" cx="59.925" cy="348.911" r="22.069"/>
	</g>
</g>
<g>
</g>
<g>
</g>
<g>
</g>
<g>
</g>
<g>
</g>
<g>
</g>
<g>
</g>
<g>
</g>
<g>
</g>
<g>
</g>
<g>
</g>
<g>
</g>
<g>
</g>
<g>
</g>
<g>
</g>
</svg>
