<?xml version="1.0" encoding="iso-8859-1"?>
<!-- Generator: Adobe Illustrator 19.0.0, SVG Export Plug-In . SVG Version: 6.00 Build 0)  -->
<svg version="1.1" id="Capa_1" xmlns="http://www.w3.org/2000/svg" xmlns:xlink="http://www.w3.org/1999/xlink" x="0px" y="0px"
	 viewBox="0 0 512.035 512.035" style="enable-background:new 0 0 512.035 512.035;" xml:space="preserve">
<g>
	<path style="fill:#D1D4D1;" d="M512.018,0L511.4,13.153l-7.062,149.363c-0.402,9.537-5.534,18.245-13.683,23.217L233.684,342.334
		l-21.426,19.597l-62.171-62.025l19.597-21.572L326.285,21.363c4.971-8.149,13.68-13.281,23.217-13.683l149.363-7.062L512.018,0z"/>
	<path style="fill:#A5A5A4;" d="M512.018,0L511.4,13.153l-266.77,266.77c-3.481,3.414-9.054,3.414-12.535,0
		c-3.443-3.469-3.443-9.066,0-12.535l266.77-266.77L512.018,0z"/>
	<polygon style="fill:#547580;" points="105.949,467.862 212.259,361.931 150.087,299.908 43.776,405.839 	"/>
	<g>
		<path style="fill:#F0C419;" d="M98.262,268.94l20.692-20.692c5.712-5.712,14.974-5.712,20.686,0l124.13,124.13
			c5.712,5.712,5.712,14.974,0,20.686l-20.692,20.692c-5.712,5.712-14.974,5.712-20.686,0l-124.13-124.13
			C92.549,283.914,92.549,274.652,98.262,268.94z"/>
		<circle style="fill:#F0C419;" cx="67.231" cy="444.822" r="67.213"/>
	</g>
	<path style="fill:#E57E25;" d="M67.229,476.69c-15.217,0-28.316-10.749-31.285-25.674c-2.969-14.925,5.017-29.869,19.076-35.693
		s30.274-0.907,38.729,11.745s6.796,29.515-3.963,40.276C83.817,473.348,75.694,476.713,67.229,476.69z"/>
</g>
<g>
</g>
<g>
</g>
<g>
</g>
<g>
</g>
<g>
</g>
<g>
</g>
<g>
</g>
<g>
</g>
<g>
</g>
<g>
</g>
<g>
</g>
<g>
</g>
<g>
</g>
<g>
</g>
<g>
</g>
</svg>
