<?xml version="1.0" encoding="iso-8859-1"?>
<!-- Generator: Adobe Illustrator 19.0.0, SVG Export Plug-In . SVG Version: 6.00 Build 0)  -->
<svg version="1.1" id="Capa_1" xmlns="http://www.w3.org/2000/svg" xmlns:xlink="http://www.w3.org/1999/xlink" x="0px" y="0px"
	 viewBox="0 0 512 512" style="enable-background:new 0 0 512 512;" xml:space="preserve">
<g>
	<g>
		<polygon style="fill:#547580;" points="203.034,70.621 229.517,70.621 229.517,141.241 282.483,141.241 282.483,70.621 
			308.966,70.621 256,0 		"/>
		<polygon style="fill:#547580;" points="87.464,162.366 106.187,143.642 156.125,193.58 193.58,156.125 143.642,106.187 
			162.366,87.464 74.982,74.982 		"/>
		<polygon style="fill:#547580;" points="70.621,308.966 70.621,282.483 141.241,282.483 141.241,229.517 70.621,229.517 
			70.621,203.034 0,256 		"/>
		<polygon style="fill:#547580;" points="162.366,424.536 143.642,405.813 193.58,355.875 156.125,318.42 106.187,368.358 
			87.464,349.634 74.982,437.018 		"/>
		<polygon style="fill:#547580;" points="308.966,441.379 282.483,441.379 282.483,370.759 229.517,370.759 229.517,441.379 
			203.034,441.379 256,512 		"/>
		<polygon style="fill:#547580;" points="424.536,349.634 405.813,368.358 355.875,318.42 318.42,355.875 368.358,405.813 
			349.634,424.536 437.018,437.018 		"/>
		<polygon style="fill:#547580;" points="441.379,203.034 441.379,229.517 370.759,229.517 370.759,282.483 441.379,282.483 
			441.379,308.966 512,256 		"/>
		<polygon style="fill:#547580;" points="349.634,87.464 368.358,106.187 318.42,156.125 355.875,193.58 405.813,143.642 
			424.536,162.366 437.018,74.982 		"/>
	</g>
	<circle style="fill:#35495E;" cx="256" cy="256" r="52.966"/>
</g>
<g>
</g>
<g>
</g>
<g>
</g>
<g>
</g>
<g>
</g>
<g>
</g>
<g>
</g>
<g>
</g>
<g>
</g>
<g>
</g>
<g>
</g>
<g>
</g>
<g>
</g>
<g>
</g>
<g>
</g>
</svg>
