<?xml version="1.0" encoding="iso-8859-1"?>
<!-- Generator: Adobe Illustrator 19.0.0, SVG Export Plug-In . SVG Version: 6.00 Build 0)  -->
<svg version="1.1" id="Capa_1" xmlns="http://www.w3.org/2000/svg" xmlns:xlink="http://www.w3.org/1999/xlink" x="0px" y="0px"
	 viewBox="0 0 512 512" style="enable-background:new 0 0 512 512;" xml:space="preserve">
<g>
	<path style="fill:#A5A5A4;" d="M158.897,141.241h194.207c9.751,0,17.655,7.904,17.655,17.655v194.207
		c0,9.751-7.904,17.655-17.655,17.655H158.897c-9.751,0-17.655-7.904-17.655-17.655V158.897
		C141.241,149.146,149.146,141.241,158.897,141.241z"/>
	<g>
		<polygon style="fill:#547580;" points="87.384,12.482 68.661,31.214 131.081,93.634 93.634,131.081 31.214,68.661 12.482,87.384 
			0,0 		"/>
		<polygon style="fill:#547580;" points="424.616,12.482 443.339,31.214 380.919,93.634 418.366,131.081 480.786,68.661 
			499.518,87.384 512,0 		"/>
		<polygon style="fill:#547580;" points="87.384,499.518 68.661,480.786 131.081,418.366 93.634,380.919 31.214,443.339 
			12.482,424.616 0,512 		"/>
		<polygon style="fill:#547580;" points="424.616,499.518 443.339,480.786 380.919,418.366 418.366,380.919 480.786,443.339 
			499.518,424.616 512,512 		"/>
	</g>
	<circle style="fill:#D1D4D1;" cx="256" cy="256" r="61.793"/>
</g>
<g>
</g>
<g>
</g>
<g>
</g>
<g>
</g>
<g>
</g>
<g>
</g>
<g>
</g>
<g>
</g>
<g>
</g>
<g>
</g>
<g>
</g>
<g>
</g>
<g>
</g>
<g>
</g>
<g>
</g>
</svg>
