<?xml version="1.0" encoding="iso-8859-1"?>
<!-- Generator: Adobe Illustrator 19.0.0, SVG Export Plug-In . SVG Version: 6.00 Build 0)  -->
<svg version="1.1" id="Capa_1" xmlns="http://www.w3.org/2000/svg" xmlns:xlink="http://www.w3.org/1999/xlink" x="0px" y="0px"
	 viewBox="0 0 512 512" style="enable-background:new 0 0 512 512;" xml:space="preserve">
<g transform="translate(-2)">
	<g>
		<path style="fill:#F0C419;" d="M257.999,414.897L257.999,414.897c14.626,0,26.483,11.857,26.483,26.483v44.138
			c0,14.626-11.857,26.483-26.483,26.483l0,0c-14.626,0-26.483-11.857-26.483-26.483v-44.138
			C231.517,426.753,243.373,414.897,257.999,414.897z"/>
		<path style="fill:#F0C419;" d="M71.528,442.459L71.528,442.459c-10.342-10.342-10.342-27.11,0-37.452l31.21-31.21
			c10.342-10.342,27.11-10.342,37.452,0l0,0c10.342,10.342,10.342,27.11,0,37.452l-31.21,31.21
			C98.638,452.801,81.87,452.801,71.528,442.459z"/>
		<path style="fill:#F0C419;" d="M444.472,442.44L444.472,442.44c-10.342,10.342-27.11,10.342-37.452,0l-31.21-31.21
			c-10.342-10.342-10.342-27.11,0-37.452l0,0c10.342-10.342,27.11-10.342,37.452,0l31.21,31.21
			C454.814,415.33,454.814,432.098,444.472,442.44z"/>
		<path style="fill:#F0C419;" d="M134.413,229.517c0,53.672,55.349,97.103,123.586,97.103s123.586-43.432,123.586-97.103v-26.483
			H134.413V229.517z"/>
	</g>
	<path style="fill:#95A5A5;" d="M363.93,150.069v-45.773c0.008-22.206-7.152-43.821-20.416-61.63h-0.096
		C323.238,15.805,291.597,0,257.999,0s-65.239,15.805-85.419,42.667h-0.096c-13.264,17.809-20.424,39.424-20.416,61.63v45.773
		l-34.666,52c-3.612,5.418-3.948,12.383-0.876,18.124c3.072,5.741,9.055,9.324,15.566,9.325h257.534
		c6.743,0,12.897-3.841,15.86-9.898c2.963-6.057,2.216-13.273-1.924-18.596L363.93,150.069z"/>
</g>
<g>
</g>
<g>
</g>
<g>
</g>
<g>
</g>
<g>
</g>
<g>
</g>
<g>
</g>
<g>
</g>
<g>
</g>
<g>
</g>
<g>
</g>
<g>
</g>
<g>
</g>
<g>
</g>
<g>
</g>
</svg>
