<?xml version="1.0" encoding="iso-8859-1"?>
<!-- Generator: Adobe Illustrator 19.0.0, SVG Export Plug-In . SVG Version: 6.00 Build 0)  -->
<svg version="1.1" id="Capa_1" xmlns="http://www.w3.org/2000/svg" xmlns:xlink="http://www.w3.org/1999/xlink" x="0px" y="0px"
	 viewBox="0 0 512 512" style="enable-background:new 0 0 512 512;" xml:space="preserve">
<g>
	<polygon style="fill:#805333;" points="229.517,0 203.034,79.448 30.19,79.448 28.513,77.594 114.759,0 	"/>
	<path style="fill:#CB8252;" d="M485.517,79.448v423.724c-0.014,4.869-3.958,8.813-8.828,8.828H35.31
		c-4.869-0.014-8.813-3.958-8.828-8.828V79.448l2.03-1.854l1.677,1.854h172.845v123.586L256,150.069l52.966,52.966V79.448H481.81
		l1.677-1.854L485.517,79.448z"/>
	<polygon style="fill:#FDD7AD;" points="308.966,79.448 308.966,203.034 256,150.069 203.034,203.034 203.034,79.448 	"/>
	<polygon style="fill:#805333;" points="483.487,77.594 481.81,79.448 308.966,79.448 282.483,0 397.241,0 	"/>
	<polygon style="fill:#CBB292;" points="308.966,79.448 203.034,79.448 229.517,0 282.483,0 	"/>
	<g>
		<path style="fill:#BDC3C7;" d="M194.207,264.839h26.483c9.751,0,17.655,7.904,17.655,17.655v26.472h-61.793v-26.472
			C176.552,272.743,184.456,264.839,194.207,264.839z"/>
		<path style="fill:#BDC3C7;" d="M291.31,264.839h26.483c9.751,0,17.655,7.904,17.655,17.655v26.472h-61.793v-26.472
			C273.655,272.743,281.56,264.839,291.31,264.839z"/>
	</g>
	<path style="fill:#ECF0F1;" d="M335.448,291.321H176.552c-35.518-0.014-65.52,26.353-70.068,61.578s17.774,68.348,52.13,77.355
		s70.057-8.904,83.376-41.829h28.019c13.323,32.913,49.016,50.813,83.362,41.806c34.346-9.007,56.661-42.12,52.117-77.335
		S370.956,291.316,335.448,291.321z"/>
	<path style="fill:#BDC3C7;" d="M203.034,353.116h-17.655v-17.655c0-4.875-3.952-8.828-8.828-8.828s-8.828,3.952-8.828,8.828v17.655
		h-17.655c-4.875,0-8.828,3.952-8.828,8.828s3.952,8.828,8.828,8.828h17.655v17.655c0,4.875,3.952,8.828,8.828,8.828
		s8.828-3.952,8.828-8.828v-17.655h17.655c4.875,0,8.828-3.952,8.828-8.828S207.91,353.116,203.034,353.116z"/>
	<g>
		<path style="fill:#4482C3;" d="M300.138,375.185c-3.57-0.001-6.788-2.152-8.154-5.45c-1.366-3.298-0.611-7.094,1.913-9.619
			l8.828-8.828c2.224-2.257,5.488-3.149,8.551-2.336c3.063,0.813,5.455,3.205,6.268,6.268c0.813,3.063-0.079,6.326-2.336,8.551
			l-8.828,8.828C304.726,374.257,302.48,375.188,300.138,375.185z"/>
		<path style="fill:#4482C3;" d="M335.448,344.289c-3.57-0.001-6.788-2.152-8.154-5.45c-1.366-3.298-0.611-7.094,1.913-9.619
			l8.828-8.828c2.224-2.257,5.488-3.149,8.551-2.336c3.063,0.813,5.455,3.205,6.268,6.268c0.813,3.063-0.079,6.326-2.336,8.551
			l-8.828,8.828C340.036,343.361,337.79,344.292,335.448,344.289z"/>
		<path style="fill:#4482C3;" d="M326.621,406.082c-3.57-0.001-6.788-2.152-8.154-5.45c-1.366-3.298-0.611-7.094,1.913-9.619
			l8.828-8.828c2.224-2.257,5.488-3.149,8.551-2.336c3.063,0.813,5.455,3.205,6.268,6.268c0.813,3.063-0.079,6.326-2.336,8.551
			l-8.828,8.828C331.208,405.154,328.962,406.085,326.621,406.082z"/>
		<path style="fill:#4482C3;" d="M361.931,375.185c-3.57-0.001-6.788-2.152-8.154-5.45c-1.366-3.298-0.611-7.094,1.913-9.619
			l8.828-8.828c2.224-2.257,5.488-3.149,8.551-2.336c3.063,0.813,5.455,3.205,6.268,6.268c0.813,3.063-0.079,6.326-2.336,8.551
			l-8.828,8.828C366.519,374.257,364.273,375.188,361.931,375.185z"/>
	</g>
</g>
<g>
</g>
<g>
</g>
<g>
</g>
<g>
</g>
<g>
</g>
<g>
</g>
<g>
</g>
<g>
</g>
<g>
</g>
<g>
</g>
<g>
</g>
<g>
</g>
<g>
</g>
<g>
</g>
<g>
</g>
</svg>
