<?xml version="1.0" encoding="iso-8859-1"?>
<!-- Generator: Adobe Illustrator 19.0.0, SVG Export Plug-In . SVG Version: 6.00 Build 0)  -->
<svg version="1.1" id="Capa_1" xmlns="http://www.w3.org/2000/svg" xmlns:xlink="http://www.w3.org/1999/xlink" x="0px" y="0px"
	 viewBox="0 0 512.022 512.022" style="enable-background:new 0 0 512.022 512.022;" xml:space="preserve">
<g transform="translate(0 -1)">
	<path style="fill:#35495E;" d="M317.098,71.643H441.39c9.366-0.003,18.348,3.717,24.971,10.339
		c6.622,6.623,10.342,15.605,10.339,24.971v370.759c0.003,9.366-3.717,18.348-10.339,24.971
		c-6.623,6.623-15.605,10.342-24.971,10.339H70.632c-9.366,0.003-18.348-3.717-24.971-10.339s-10.342-15.605-10.339-24.971V106.953
		c-0.003-9.366,3.717-18.349,10.339-24.971c6.623-6.623,15.605-10.342,24.971-10.339H317.098z"/>
	<g>
		<path style="fill:#BDC3C7;" d="M194.218,265.85h26.483c9.751,0,17.655,7.904,17.655,17.655v26.472h-61.793v-26.472
			C176.563,273.754,184.467,265.85,194.218,265.85z"/>
		<path style="fill:#BDC3C7;" d="M291.321,265.85h26.483c9.751,0,17.655,7.904,17.655,17.655v26.472h-61.793v-26.472
			C273.666,273.754,281.571,265.85,291.321,265.85z"/>
	</g>
	<path style="fill:#71C285;" d="M262.897,4.377l70.444,87.393c2.243,2.737,2.737,6.509,1.276,9.732
		c-1.461,3.222-4.625,5.336-8.162,5.452h-35.134v97.103c-0.015,4.869-3.958,8.813-8.828,8.828h-52.966
		c-4.869-0.015-8.813-3.958-8.828-8.828v-97.103h-35.134c-3.537-0.115-6.701-2.229-8.162-5.451
		c-1.461-3.223-0.966-6.995,1.277-9.732l70.444-87.393C250.775,2.247,253.317,1,256.011,1C258.705,1,261.247,2.247,262.897,4.377z"
		/>
	<path style="fill:#ECF0F1;" d="M335.459,292.332H176.563c-35.518-0.014-65.52,26.353-70.068,61.578
		c-4.548,35.225,17.774,68.348,52.13,77.355s70.057-8.904,83.376-41.829h28.019c13.323,32.913,49.016,50.813,83.362,41.806
		c34.346-9.007,56.661-42.12,52.117-77.335C400.956,318.69,370.967,292.327,335.459,292.332z"/>
	<path style="fill:#BDC3C7;" d="M203.046,354.127H185.39v-17.655c0-4.875-3.952-8.828-8.828-8.828s-8.828,3.952-8.828,8.828v17.655
		H150.08c-4.875,0-8.828,3.952-8.828,8.828s3.952,8.828,8.828,8.828h17.655v17.655c0,4.875,3.952,8.828,8.828,8.828
		s8.828-3.952,8.828-8.828v-17.655h17.655c4.875,0,8.828-3.952,8.828-8.828S207.921,354.127,203.046,354.127z"/>
	<g>
		<path style="fill:#4482C3;" d="M300.149,376.196c-3.57-0.001-6.788-2.152-8.154-5.45c-1.366-3.298-0.611-7.094,1.913-9.619
			l8.828-8.828c2.224-2.257,5.488-3.149,8.551-2.336c3.063,0.813,5.455,3.205,6.268,6.268c0.813,3.063-0.079,6.326-2.336,8.551
			l-8.828,8.828C304.737,375.268,302.491,376.199,300.149,376.196z"/>
		<path style="fill:#4482C3;" d="M335.459,345.3c-3.57-0.001-6.788-2.152-8.154-5.45c-1.366-3.298-0.611-7.094,1.913-9.619
			l8.828-8.828c2.224-2.257,5.488-3.149,8.551-2.336c3.063,0.813,5.455,3.205,6.268,6.268c0.813,3.063-0.079,6.326-2.336,8.551
			l-8.828,8.828C340.047,344.372,337.801,345.303,335.459,345.3z"/>
		<path style="fill:#4482C3;" d="M326.632,407.093c-3.57-0.001-6.788-2.152-8.154-5.45c-1.366-3.298-0.611-7.094,1.913-9.619
			l8.828-8.828c2.224-2.257,5.488-3.149,8.551-2.336c3.063,0.813,5.455,3.205,6.268,6.268c0.813,3.063-0.079,6.326-2.336,8.551
			l-8.828,8.828C331.219,406.165,328.973,407.096,326.632,407.093z"/>
		<path style="fill:#4482C3;" d="M361.942,376.196c-3.57-0.001-6.788-2.152-8.154-5.45c-1.366-3.298-0.611-7.094,1.913-9.619
			l8.828-8.828c2.224-2.257,5.488-3.149,8.551-2.336c3.063,0.813,5.455,3.205,6.268,6.268c0.813,3.063-0.079,6.326-2.336,8.551
			l-8.828,8.828C366.53,375.268,364.284,376.199,361.942,376.196z"/>
	</g>
</g>
<g>
</g>
<g>
</g>
<g>
</g>
<g>
</g>
<g>
</g>
<g>
</g>
<g>
</g>
<g>
</g>
<g>
</g>
<g>
</g>
<g>
</g>
<g>
</g>
<g>
</g>
<g>
</g>
<g>
</g>
</svg>
