<?xml version="1.0" encoding="iso-8859-1"?>
<!-- Generator: Adobe Illustrator 19.0.0, SVG Export Plug-In . SVG Version: 6.00 Build 0)  -->
<svg version="1.1" id="Capa_1" xmlns="http://www.w3.org/2000/svg" xmlns:xlink="http://www.w3.org/1999/xlink" x="0px" y="0px"
	 viewBox="0 0 512.042 512.042" style="enable-background:new 0 0 512.042 512.042;" xml:space="preserve">
<g transform="translate(-1)">
	<path style="fill:#7F8C8D;" d="M513.041,281.809v149.148c0.053,4.002-2.092,7.712-5.586,9.663
		c-3.495,1.951-7.778,1.831-11.157-0.314l-70.803-44.967v44.906c0.014,12.229-9.849,22.174-22.077,22.261H120.222
		c-12.228-0.087-22.092-10.032-22.077-22.261V306.397c-59.221,0-103.069-51.14-96.491-111.59
		c4.117-36.051,27.341-67.087,60.767-81.207s71.866-9.133,100.583,13.048c14.909-45.82,57.528-76.909,105.712-77.111
		s91.064,30.527,106.357,76.22s-0.45,96.043-39.049,124.886h67.393c12.229,0.087,22.092,10.032,22.077,22.261v44.522l70.803-44.968
		c3.38-2.145,7.663-2.265,11.158-0.314S513.094,277.806,513.041,281.809z"/>
	<g>
		<circle style="fill:#BDC3C7;" cx="265.869" cy="153.54" r="35.31"/>
		<circle style="fill:#BDC3C7;" cx="98.145" cy="206.506" r="35.31"/>
	</g>
	<path style="fill:#FDD7AD;" d="M151.11,285.954H371.8c9.751,0,17.655,7.904,17.655,17.655V409.54
		c0,9.751-7.905,17.655-17.655,17.655H151.11c-9.751,0-17.655-7.905-17.655-17.655V303.609
		C133.455,293.858,141.359,285.954,151.11,285.954z"/>
	<g>
		<circle style="fill:#CBB292;" cx="204.076" cy="356.575" r="35.31"/>
		<circle style="fill:#CBB292;" cx="318.834" cy="356.575" r="35.31"/>
		<path style="fill:#CBB292;" d="M318.834,338.919H204.076c-4.875,0-8.828-3.952-8.828-8.828s3.952-8.828,8.828-8.828h114.759
			c4.875,0,8.828,3.952,8.828,8.828S323.71,338.919,318.834,338.919z"/>
	</g>
</g>
<g>
</g>
<g>
</g>
<g>
</g>
<g>
</g>
<g>
</g>
<g>
</g>
<g>
</g>
<g>
</g>
<g>
</g>
<g>
</g>
<g>
</g>
<g>
</g>
<g>
</g>
<g>
</g>
<g>
</g>
</svg>
