<?xml version="1.0" encoding="iso-8859-1"?>
<!-- Generator: Adobe Illustrator 19.0.0, SVG Export Plug-In . SVG Version: 6.00 Build 0)  -->
<svg version="1.1" id="Capa_1" xmlns="http://www.w3.org/2000/svg" xmlns:xlink="http://www.w3.org/1999/xlink" x="0px" y="0px"
	 viewBox="0 0 512 512" style="enable-background:new 0 0 512 512;" xml:space="preserve">
<g>
	<path style="fill:#4C8056;" d="M35.31,0H476.69C496.191,0,512,15.809,512,35.31V476.69c0,19.501-15.809,35.31-35.31,35.31H35.31
		C15.809,512,0,496.191,0,476.69V35.31C0,15.809,15.809,0,35.31,0z"/>
	<g>
		<path style="fill:#71C285;" d="M353.103,0v344.276c0,4.875-3.952,8.828-8.828,8.828H167.724c-4.875,0-8.828-3.952-8.828-8.828
			V220.69c0-4.875-3.952-8.828-8.828-8.828H61.793c-4.875,0-8.828-3.952-8.828-8.828v-35.31c0-4.875,3.952-8.828,8.828-8.828
			h141.241c4.875,0,8.828,3.952,8.828,8.828V291.31c0,4.875,3.952,8.828,8.828,8.828h70.621c4.875,0,8.828-3.952,8.828-8.828V0
			H353.103z"/>
		<path style="fill:#71C285;" d="M105.931,273.655v167.724c0,4.875-3.952,8.828-8.828,8.828h-35.31
			c-4.875,0-8.828-3.952-8.828-8.828v-8.828c0-4.875-3.952-8.828-8.828-8.828H0v-52.966h44.138c4.875,0,8.828-3.952,8.828-8.828
			v-88.276c0-4.875,3.952-8.828,8.828-8.828h35.31C101.979,264.828,105.931,268.78,105.931,273.655z"/>
		<path style="fill:#71C285;" d="M459.034,317.793v132.414c0,4.875-3.952,8.828-8.828,8.828H167.724
			c-4.875,0-8.828-3.952-8.828-8.828v-35.31c0-4.875,3.952-8.828,8.828-8.828h229.517c4.875,0,8.828-3.952,8.828-8.828v-79.448
			c0-4.875,3.952-8.828,8.828-8.828h35.31C455.082,308.966,459.034,312.918,459.034,317.793z"/>
		<g>
			<path style="fill:#71C285;" d="M406.069,0h52.966v141.241c0,4.875-3.952,8.828-8.828,8.828h-35.31
				c-4.875,0-8.828-3.952-8.828-8.828V0z"/>
			<path style="fill:#71C285;" d="M406.069,247.172v-35.31c0-4.875,3.952-8.828,8.828-8.828H512V256h-97.103
				C410.021,256,406.069,252.048,406.069,247.172z"/>
			<path style="fill:#71C285;" d="M0,105.931V52.966h194.207c4.875,0,8.828,3.952,8.828,8.828v35.31
				c0,4.875-3.952,8.828-8.828,8.828H0z"/>
		</g>
	</g>
</g>
<g>
</g>
<g>
</g>
<g>
</g>
<g>
</g>
<g>
</g>
<g>
</g>
<g>
</g>
<g>
</g>
<g>
</g>
<g>
</g>
<g>
</g>
<g>
</g>
<g>
</g>
<g>
</g>
<g>
</g>
</svg>
