<?xml version="1.0" encoding="iso-8859-1"?>
<!-- Generator: Adobe Illustrator 19.0.0, SVG Export Plug-In . SVG Version: 6.00 Build 0)  -->
<svg version="1.1" id="Capa_1" xmlns="http://www.w3.org/2000/svg" xmlns:xlink="http://www.w3.org/1999/xlink" x="0px" y="0px"
	 viewBox="0 0 512 512" style="enable-background:new 0 0 512 512;" xml:space="preserve">
<g>
	<path style="fill:#35495E;" d="M17.655,0h476.69C504.095,0,512,7.904,512,17.655v476.69c0,9.751-7.905,17.655-17.655,17.655H17.655
		C7.904,512,0,504.095,0,494.345V17.655C0,7.904,7.904,0,17.655,0z"/>
	<path style="fill:#4482C3;" d="M467.862,317.793c0.001-2.341-0.929-4.587-2.585-6.243c-1.656-1.656-3.901-2.585-6.243-2.585
		h-34.004c-1.6-35.3-1.6-70.61,0-105.931h34.004c4.875,0,8.828-3.952,8.828-8.828s-3.952-8.828-8.828-8.828h-33.05
		c1.88-31.096,5.012-62.14,9.394-93.133c8.396-1.278,16.785-2.644,25.167-4.1c4.804-0.836,8.021-5.407,7.185-10.211
		c-0.836-4.804-5.407-8.021-10.211-7.185h-0.002c-6.449,1.122-12.906,2.141-19.363,3.155c1.014-6.474,1.971-12.952,3.095-19.418
		c0.836-4.804-2.381-9.376-7.185-10.211c-4.804-0.836-9.376,2.381-10.211,7.185c-1.457,8.374-2.731,16.762-4.004,25.15
		c-31.012,4.372-62.089,7.507-93.229,9.405v-33.05c0-4.875-3.952-8.828-8.828-8.828s-8.828,3.952-8.828,8.828V86.97
		c-17.649,0.8-35.303,1.208-52.962,1.224c-17.659,0-35.315-0.408-52.969-1.225V52.966c0-4.875-3.952-8.828-8.828-8.828
		s-8.828,3.952-8.828,8.828v33.05c-31.127-1.882-62.203-5.017-93.227-9.406c-1.274-8.387-2.549-16.775-4.005-25.149
		c-0.836-4.804-5.407-8.021-10.211-7.185c-4.804,0.836-8.021,5.407-7.185,10.211c1.124,6.465,2.081,12.943,3.095,19.417
		c-6.455-1.013-12.91-2.032-19.357-3.154h-0.002c-4.804-0.836-9.376,2.381-10.211,7.185c-0.836,4.804,2.381,9.376,7.185,10.211
		c8.38,1.457,16.767,2.824,25.161,4.099c4.352,30.979,7.483,62.024,9.394,93.134h-33.05c-4.875,0-8.828,3.952-8.828,8.828
		s3.952,8.828,8.828,8.828H86.97c1.6,35.299,1.6,70.609,0,105.931H52.966c-4.875,0-8.828,3.952-8.828,8.828s3.952,8.828,8.828,8.828
		h33.051c-1.88,31.096-5.01,62.14-9.391,93.133c-8.394,1.278-16.783,2.644-25.164,4.1c-4.512,0.785-7.675,4.89-7.283,9.453
		c0.392,4.563,4.208,8.069,8.788,8.073c0.51-0.001,1.019-0.044,1.522-0.129c6.471-1.126,12.95-2.149,19.43-3.165
		c-1.017,6.482-2.04,12.963-3.166,19.436c-0.834,4.803,2.383,9.372,7.186,10.207c0.503,0.085,1.012,0.129,1.522,0.129
		c4.289-0.007,7.954-3.093,8.69-7.319c1.457-8.38,2.824-16.768,4.099-25.162c30.98-4.364,62.024-7.494,93.133-9.39v33.047
		c0,4.875,3.952,8.828,8.828,8.828s8.828-3.952,8.828-8.828v-34.001c35.3-1.6,70.61-1.6,105.931-0.001v34.002
		c0,4.875,3.952,8.828,8.828,8.828s8.828-3.952,8.828-8.828v-33.048c31.096,1.88,62.14,5.009,93.133,9.389
		c1.278,8.398,2.644,16.789,4.1,25.172l17.397-3.034c-1.126-6.472-2.149-12.95-3.166-19.43c6.483,1.017,12.967,2.041,19.442,3.167
		c4.787,0.794,9.317-2.423,10.144-7.204s-2.36-9.333-7.135-10.192c-8.379-1.457-16.766-2.824-25.159-4.099
		c-4.365-30.98-7.496-62.024-9.392-93.134h33.05c2.341,0.001,4.587-0.929,6.243-2.585
		C466.933,322.38,467.863,320.134,467.862,317.793z M417.24,94.81c-4.099,30.132-7.133,60.332-8.934,90.57h-81.686v-81.683
		C356.874,101.895,387.08,98.933,417.24,94.81z M407.353,308.966h-80.732V203.034h80.732
		C405.777,238.334,405.777,273.644,407.353,308.966z M185.379,408.303c-30.234,1.801-60.422,4.761-90.562,8.879
		c4.115-30.128,7.075-60.315,8.88-90.562h81.683V408.303z M185.379,308.966H104.65c1.575-35.3,1.575-70.61,0-105.931h80.729V308.966
		z M103.697,185.379c-1.801-30.238-4.835-60.439-8.935-90.571c30.147,4.119,60.353,7.081,90.618,8.888v81.683H103.697z
		 M308.966,407.35c-35.3-1.576-70.61-1.576-105.931,0v-80.729h105.931V407.35z M308.966,308.966H203.034V203.034h105.931V308.966z
		 M203.034,185.379V104.65c17.65,0.788,35.305,1.187,52.966,1.199h0.006c17.656,0,35.309-0.4,52.96-1.199v80.729H203.034z
		 M326.621,408.303v-81.683h81.686c1.8,30.234,4.759,60.422,8.877,90.562C387.055,413.068,356.867,410.108,326.621,408.303z"/>
</g>
<g>
</g>
<g>
</g>
<g>
</g>
<g>
</g>
<g>
</g>
<g>
</g>
<g>
</g>
<g>
</g>
<g>
</g>
<g>
</g>
<g>
</g>
<g>
</g>
<g>
</g>
<g>
</g>
<g>
</g>
</svg>
