<?xml version="1.0" encoding="iso-8859-1"?>
<!-- Generator: Adobe Illustrator 19.0.0, SVG Export Plug-In . SVG Version: 6.00 Build 0)  -->
<svg version="1.1" id="Capa_1" xmlns="http://www.w3.org/2000/svg" xmlns:xlink="http://www.w3.org/1999/xlink" x="0px" y="0px"
	 viewBox="0 0 512.177 512.177" style="enable-background:new 0 0 512.177 512.177;" xml:space="preserve">
<g transform="translate(-1)">
	<path style="fill:#F29C1F;" d="M510.263,144.508L368.669,2.913c-3.941-3.884-10.271-3.884-14.212,0l-14.212,14.301
		c-23.27,23.237-41.273,51.205-52.789,82.008l-24.982,66.56L11.328,416.927c-13.771,13.808-13.771,36.156,0,49.964l34.957,34.957
		c13.808,13.771,36.156,13.771,49.964,0l251.145-251.145l66.56-24.982c21.38-7.951,41.438-19.081,59.498-33.015
		c7.929-6.091,15.448-12.696,22.51-19.774l14.301-14.212C514.148,154.779,514.148,148.449,510.263,144.508z"/>
	<path style="fill:#BDC3C7;" d="M234.136,307.377l-29.131,29.131c-3.469,3.443-9.066,3.443-12.535,0l-15.801-15.801
		c-3.443-3.469-3.443-9.066,0-12.535L205.8,279.04L234.136,307.377z"/>
	<path style="fill:#E6E7E8;" d="M256.205,285.308l-22.069,22.069L205.8,279.04l22.069-22.069c3.469-3.443,9.066-3.443,12.535,0
		l15.801,15.801C259.648,276.242,259.648,281.838,256.205,285.308z"/>
	<path style="fill:#E57E25;" d="M473.452,192.706c-18.06,13.934-38.118,25.064-59.498,33.015l-66.56,24.982l-84.921-84.921
		l24.982-66.56c7.951-21.38,19.081-41.438,33.015-59.498L473.452,192.706z"/>
	<path style="fill:#F0C419;" d="M510.263,158.72l-14.301,14.212c-7.062,7.077-14.582,13.683-22.51,19.774L320.47,39.724
		c6.091-7.928,12.697-15.448,19.774-22.51l14.212-14.301c3.941-3.884,10.271-3.884,14.212,0l141.594,141.594
		C514.148,148.449,514.148,154.779,510.263,158.72z"/>
	<g>
		<path style="fill:#E6E7E8;" d="M120.853,401.151c-3.57-0.001-6.788-2.152-8.154-5.45c-1.366-3.298-0.611-7.094,1.913-9.619
			l21.241-21.241c2.23-2.23,5.48-3.101,8.526-2.285c3.046,0.816,5.425,3.195,6.241,6.241c0.816,3.046-0.055,6.296-2.285,8.526
			l-21.242,21.241C125.441,400.223,123.195,401.154,120.853,401.151z"/>
		<path style="fill:#E6E7E8;" d="M92.538,429.461c-1.153-0.014-2.293-0.254-3.353-0.707c-3.363-1.271-5.558-4.526-5.474-8.121
			c0.014-1.153,0.254-2.293,0.707-3.353c0.449-1.069,1.076-2.054,1.854-2.914c0.843-0.799,1.833-1.428,2.914-1.854
			c2.15-0.884,4.561-0.884,6.711,0c1.07,0.447,2.056,1.074,2.914,1.854c0.778,0.86,1.405,1.845,1.854,2.914
			c0.452,1.061,0.69,2.2,0.703,3.353c-0.017,2.34-0.932,4.583-2.556,6.268c-0.859,0.778-1.845,1.405-2.914,1.854
			C94.834,429.208,93.693,429.448,92.538,429.461z"/>
	</g>
</g>
<g>
</g>
<g>
</g>
<g>
</g>
<g>
</g>
<g>
</g>
<g>
</g>
<g>
</g>
<g>
</g>
<g>
</g>
<g>
</g>
<g>
</g>
<g>
</g>
<g>
</g>
<g>
</g>
<g>
</g>
</svg>
