<?xml version="1.0" encoding="iso-8859-1"?>
<!-- Generator: Adobe Illustrator 19.0.0, SVG Export Plug-In . SVG Version: 6.00 Build 0)  -->
<svg version="1.1" id="Capa_1" xmlns="http://www.w3.org/2000/svg" xmlns:xlink="http://www.w3.org/1999/xlink" x="0px" y="0px"
	 viewBox="0 0 512 512" style="enable-background:new 0 0 512 512;" xml:space="preserve">
<g>
	<path style="fill:#CB8252;" d="M291.31,418.516v76.094c0.411,9.09-6.543,16.83-15.625,17.39H245.23
		c-9.112-0.498-16.102-8.277-15.625-17.39v-75.741c8.563,0.265,17.39,0.441,26.394,0.441
		C268.094,419.31,279.923,419.046,291.31,418.516z"/>
	<path style="fill:#71C285;" d="M400.066,371.2l-30.543-45.109h-0.088l-33.721-49.346c30.897-5.032,50.759-12.888,50.759-21.716
		l-18.979-27.983l-20.921-30.72l-28.866-42.284c0.883-0.177,1.677-0.353,2.56-0.53c17.832-3.531,28.954-8.563,28.954-14.212
		l-21.274-31.691l-30.632-45.903h-0.088L256,0l-41.225,61.617l-30.808,45.992l-21.186,31.691c0,5.65,11.123,10.681,28.954,14.212
		c0.883,0.177,1.677,0.353,2.56,0.53l-28.866,42.284l-20.921,30.72l-18.979,27.983c0,8.828,19.774,16.684,50.406,21.628
		l-33.457,49.523L111.934,371.2l-23.658,34.869c0,17.655,61.263,32.221,141.33,34.869c8.563,0.265,17.39,0.441,26.394,0.441
		c12.094,0,23.923-0.265,35.31-0.794c75.652-3.443,132.414-17.567,132.414-34.516L400.066,371.2z"/>
	<g>
		<path style="fill:#4C8056;" d="M423.724,406.069c0,16.949-56.761,31.073-132.414,34.516c-11.388,0.53-23.217,0.794-35.31,0.794
			c-9.004,0-17.832-0.177-26.394-0.441c-80.066-2.648-141.33-17.214-141.33-34.869l23.658-34.869h0.088
			c29.308,10.328,82.803,17.214,143.978,17.214c61.263,0,114.847-6.885,144.066-17.214L423.724,406.069z"/>
		<path style="fill:#4C8056;" d="M369.434,326.091c-37.443,6.6-75.416,9.733-113.434,9.357
			c-38.014,0.356-75.982-2.747-113.434-9.269h-0.088l33.457-49.523c26.489,4.085,53.264,6.033,80.066,5.826
			c26.681,0.186,53.334-1.733,79.713-5.738L369.434,326.091z"/>
		<path style="fill:#4C8056;" d="M367.492,227.046h-0.088c-22.952,7.945-64.265,13.241-111.404,13.241
			c-47.228,0-88.629-5.297-111.404-13.241h-0.088l20.921-30.72c29.877,5.44,60.205,8.011,90.571,7.68
			c30.366,0.327,60.694-2.244,90.571-7.68L367.492,227.046z"/>
	</g>
	<g>
		<path style="fill:#71C285;" d="M386.472,255.029c0,8.828-19.862,16.684-50.759,21.716c-26.379,4.005-53.033,5.924-79.713,5.738
			c-26.802,0.207-53.577-1.741-80.066-5.826c-30.632-4.943-50.406-12.8-50.406-21.628l18.979-27.983h0.088
			c22.775,7.945,64.177,13.241,111.404,13.241c47.139,0,88.452-5.297,111.404-13.241h0.088L386.472,255.029z"/>
		<path style="fill:#71C285;" d="M346.571,196.326c-29.877,5.436-60.205,8.007-90.571,7.68c-30.366,0.331-60.694-2.24-90.571-7.68
			l28.866-42.284c20.389,3.399,41.035,5.023,61.705,4.855c20.67,0.168,41.316-1.456,61.705-4.855L346.571,196.326z"/>
	</g>
	<path style="fill:#4C8056;" d="M349.219,139.299c0,5.65-11.123,10.681-28.954,14.212c-0.883,0.177-1.677,0.353-2.56,0.53
		c-20.389,3.399-41.035,5.023-61.705,4.855c-20.67,0.168-41.316-1.456-61.705-4.855c-0.883-0.177-1.677-0.353-2.56-0.53
		c-17.832-3.531-28.954-8.563-28.954-14.212l21.186-31.691c23.651,5.176,47.826,7.575,72.033,7.15
		c24.179,0.441,48.326-1.959,71.945-7.15L349.219,139.299z"/>
	<path style="fill:#71C285;" d="M327.945,107.608c-23.619,5.191-47.766,7.591-71.945,7.15c-24.207,0.425-48.382-1.975-72.033-7.15
		l30.808-45.992c13.691,1.475,27.454,2.182,41.225,2.119c13.768,0.046,27.528-0.631,41.225-2.03h0.088L327.945,107.608z"/>
	<path style="fill:#4C8056;" d="M297.225,61.705c-13.697,1.399-27.457,2.077-41.225,2.03c-13.77,0.064-27.534-0.644-41.225-2.119
		L256,0L297.225,61.705z"/>
</g>
<g>
</g>
<g>
</g>
<g>
</g>
<g>
</g>
<g>
</g>
<g>
</g>
<g>
</g>
<g>
</g>
<g>
</g>
<g>
</g>
<g>
</g>
<g>
</g>
<g>
</g>
<g>
</g>
<g>
</g>
</svg>
