<?xml version="1.0" encoding="iso-8859-1"?>
<!-- Generator: Adobe Illustrator 19.0.0, SVG Export Plug-In . SVG Version: 6.00 Build 0)  -->
<svg version="1.1" id="Capa_1" xmlns="http://www.w3.org/2000/svg" xmlns:xlink="http://www.w3.org/1999/xlink" x="0px" y="0px"
	 viewBox="0 0 512 512" style="enable-background:new 0 0 512 512;" xml:space="preserve">
<g>
	<g>
		<path style="fill:#CB8252;" d="M44.138,264.828V476.69c-0.002,9.366,3.717,18.348,10.34,24.971S70.083,512.002,79.448,512h353.103
			c9.366,0.002,18.348-3.717,24.971-10.34c6.622-6.622,10.342-15.605,10.34-24.971V264.828H44.138z"/>
		<path style="fill:#805333;" d="M467.862,344.276v70.621c-97.103,0-105.931,26.483-176.552,26.483
			c-79.448,0-88.276-17.655-150.069-17.655s-97.103,17.655-97.103,17.655v-70.621c0,0,35.31-17.655,97.103-17.655
			s70.621,17.655,150.069,17.655C361.931,370.759,370.759,344.276,467.862,344.276z"/>
	</g>
	<path style="fill:#BDC3C7;" d="M251.185,0c0,0-75.436,119.378-75.436,148.12c0.826,40.856,34.579,73.326,75.436,72.57
		c40.857,0.757,74.61-31.714,75.436-72.57C326.621,119.378,251.185,0,251.185,0z"/>
	<path style="fill:#46B29D;" d="M511.96,257.691c-0.876,18.834-16.415,33.646-35.27,33.62H37.3
		c-9.88,0.142-19.401-3.703-26.412-10.666S-0.033,264.188,0.04,254.307c0.877-18.834,16.416-33.645,35.27-33.618h127.362
		c4.685,0.074,9.161,1.95,12.498,5.238c42.747,40.096,109.287,40.096,152.034,0c3.339-3.288,7.816-5.163,12.502-5.238H474.7
		c9.88-0.142,19.4,3.703,26.411,10.665C508.122,238.317,512.033,247.81,511.96,257.691z"/>
</g>
<g>
</g>
<g>
</g>
<g>
</g>
<g>
</g>
<g>
</g>
<g>
</g>
<g>
</g>
<g>
</g>
<g>
</g>
<g>
</g>
<g>
</g>
<g>
</g>
<g>
</g>
<g>
</g>
<g>
</g>
</svg>
