<?xml version="1.0" encoding="iso-8859-1"?>
<!-- Generator: Adobe Illustrator 19.0.0, SVG Export Plug-In . SVG Version: 6.00 Build 0)  -->
<svg version="1.1" id="Capa_1" xmlns="http://www.w3.org/2000/svg" xmlns:xlink="http://www.w3.org/1999/xlink" x="0px" y="0px"
	 viewBox="0 0 512 512" style="enable-background:new 0 0 512 512;" xml:space="preserve">
<g>
	<path style="fill:#CB8252;" d="M105.874,130.169c23.864,2.517,45.386,17.616,61.7,34.452c15.733,17.909,30.34,36.777,43.737,56.494
		c25.871,36.018,62.95,62.446,105.437,75.151c31.06,8.832,63.167,13.443,95.458,13.711v180.849
		c0.056,5.573-2.109,10.938-6.017,14.911c-3.908,3.973-9.237,6.227-14.81,6.263H120.627c-5.573-0.036-10.902-2.29-14.81-6.263
		s-6.073-9.339-6.017-14.911V130.43L105.874,130.169z"/>
	<g>
		<path style="fill:#805333;" d="M99.8,269.711v112.119h6.075c21.487,1.293,42.483,6.963,61.7,16.662
			c15.096,8.225,29.7,17.323,43.737,27.249c32.119,19.553,68.087,31.927,105.437,36.274c31.643,4.262,63.529,6.465,95.458,6.595
			v-60.746c-32.095-0.219-64.082-3.738-95.458-10.5c-40.083-8.429-76.771-28.539-105.437-57.795
			c-13.635-15.384-28.244-29.878-43.737-43.39c-17.561-14.625-39-23.822-61.7-26.468H99.8z"/>
		<path style="fill:#805333;" d="M99.799,459.932l0.001,30.894c-0.056,5.573,2.109,10.938,6.017,14.911s9.237,6.227,14.81,6.263
			h104.656c-4.86-2.517-9.546-5.294-13.972-8.157c-14.037-9.926-28.64-19.024-43.737-27.249
			c-19.217-9.698-40.213-15.368-61.7-16.662H99.799z"/>
	</g>
	<path style="fill:#46B29D;" d="M47.732,135.897c0.043,11.314,6.001,21.782,15.707,27.596c11.021,6.422,24.212,3.384,36.361,3.558
		h1.302c1.649,0.087,3.211,0.174,4.773,0.347c23.864,2.517,45.386,17.616,61.7,34.452c15.733,17.909,30.34,36.777,43.737,56.494
		c25.871,36.018,62.95,62.446,105.437,75.151c31.06,8.831,63.167,13.443,95.458,13.711c6.942,0.26,13.885,0.347,20.827,0.347
		c17.335-0.289,31.236-14.424,31.236-31.761c0-17.337-13.901-31.472-31.236-31.761c-62.655,0-123.574-14.319-165.489-64.13
		c-13.972-16.575-23.778-36.014-37.402-52.936c-13.762-17.734-30.897-32.569-50.419-43.65
		c-30.113-16.488-67.081-19.178-100.751-19.178c-8.355,0.069-16.34,3.454-22.198,9.41C50.915,119.502,47.663,127.542,47.732,135.897
		z"/>
	<path style="fill:#95A5A5;" d="M357.096,172.343c-1.416,0-2.809-0.348-4.059-1.013c-19.532-10.348-36.878-24.376-51.085-41.309
		c-7.36-9.082-14.153-18.61-20.339-28.53c-5.653-8.661-10.983-16.843-17.178-24.538c-13.051-16.836-29.296-30.93-47.805-41.475
		c-29.169-15.97-65.203-18.123-96.61-18.123c-4.793,0-8.678-3.885-8.678-8.678S115.227,0,120.02,0
		c33.602,0,72.339,2.407,104.924,20.246c20.515,11.628,38.528,27.199,53,45.818c6.503,8.336,12.579,16.997,18.204,25.949
		c5.806,9.327,12.18,18.289,19.085,26.835c12.776,15.229,28.376,27.845,45.941,37.153c3.521,1.87,5.315,5.897,4.35,9.765
		S361.083,172.346,357.096,172.343L357.096,172.343z"/>
	<polygon style="fill:#7F8C8D;" points="377.069,117.526 336.969,208.271 446.918,204.861 	"/>
</g>
<g>
</g>
<g>
</g>
<g>
</g>
<g>
</g>
<g>
</g>
<g>
</g>
<g>
</g>
<g>
</g>
<g>
</g>
<g>
</g>
<g>
</g>
<g>
</g>
<g>
</g>
<g>
</g>
<g>
</g>
</svg>
