<?xml version="1.0" encoding="iso-8859-1"?>
<!-- Generator: Adobe Illustrator 19.0.0, SVG Export Plug-In . SVG Version: 6.00 Build 0)  -->
<svg version="1.1" id="Capa_1" xmlns="http://www.w3.org/2000/svg" xmlns:xlink="http://www.w3.org/1999/xlink" x="0px" y="0px"
	 viewBox="0 0 512 512" style="enable-background:new 0 0 512 512;" xml:space="preserve">
<g>
	<path style="fill:#CB8252;" d="M413.898,123.586c-24.276,2.56-46.168,17.92-62.764,35.046
		c-16.004,18.218-30.863,37.411-44.491,57.468c-26.317,36.639-64.035,63.523-107.255,76.447
		c-31.596,8.984-64.257,13.675-97.103,13.948v183.967c-0.057,5.669,2.146,11.127,6.121,15.168c3.975,4.042,9.396,6.334,15.065,6.371
		h275.421c5.669-0.037,11.09-2.329,15.065-6.371c3.975-4.042,6.178-9.5,6.121-15.168v-366.61L413.898,123.586z"/>
	<g>
		<path style="fill:#805333;" d="M420.077,265.534v114.052h-6.179c-21.857,1.316-43.216,7.083-62.764,16.949
			c-15.357,8.366-30.212,17.622-44.491,27.719c-32.672,19.89-69.261,32.478-107.255,36.899c-32.189,4.335-64.625,6.576-97.103,6.709
			v-61.793c32.648-0.223,65.187-3.802,97.103-10.681c40.774-8.574,78.095-29.032,107.255-58.792
			c13.87-15.65,28.731-30.393,44.491-44.138c17.864-14.878,39.673-24.233,62.764-26.924H420.077z"/>
		<path style="fill:#805333;" d="M420.078,459.034l-0.001,31.426c0.057,5.669-2.146,11.127-6.121,15.168
			c-3.975,4.042-9.396,6.334-15.065,6.371H292.43c4.943-2.56,9.71-5.385,14.212-8.298c14.279-10.097,29.134-19.352,44.491-27.719
			c19.549-9.866,40.907-15.633,62.764-16.949H420.078z"/>
	</g>
	<path style="fill:#46B29D;" d="M473.043,129.412c-0.044,11.509-6.104,22.157-15.978,28.072
		c-11.211,6.532-24.629,3.443-36.988,3.619h-1.324c-1.677,0.088-3.266,0.177-4.855,0.353c-24.276,2.56-46.168,17.92-62.764,35.046
		c-16.004,18.218-30.863,37.411-44.491,57.468c-26.317,36.639-64.035,63.523-107.255,76.447
		c-31.596,8.984-64.257,13.675-97.103,13.948c-7.062,0.265-14.124,0.353-21.186,0.353c-17.633-0.294-31.774-14.673-31.774-32.309
		c0-17.636,14.141-32.015,31.774-32.309c63.735,0,125.705-14.566,168.342-65.236c14.213-16.861,24.188-36.634,38.047-53.848
		c13.999-18.04,31.43-33.131,51.288-44.403c30.632-16.772,68.237-19.509,102.488-19.509c8.499,0.07,16.621,3.514,22.581,9.573
		C469.804,112.735,473.113,120.914,473.043,129.412z"/>
	<path style="fill:#95A5A5;" d="M47.818,200.828c-4.875,0.019-8.843-3.918-8.862-8.793c-0.019-4.875,3.918-8.843,8.793-8.862
		c65.724-0.535,115.526-16.103,148.009-46.28c13.377-13.401,25.246-28.227,35.397-44.211c5.647-8.19,11.491-16.664,17.759-24.737
		c2.994-3.84,8.531-4.531,12.377-1.546c3.846,2.985,4.549,8.521,1.572,12.373c-5.966,7.681-11.664,15.944-17.172,23.931
		c-10.877,17.043-23.588,32.844-37.905,47.121c-35.828,33.276-89.621,50.431-159.897,51.004H47.818z"/>
	<polygon style="fill:#7F8C8D;" points="217.043,35.31 289.137,105.931 325.181,0 	"/>
</g>
<g>
</g>
<g>
</g>
<g>
</g>
<g>
</g>
<g>
</g>
<g>
</g>
<g>
</g>
<g>
</g>
<g>
</g>
<g>
</g>
<g>
</g>
<g>
</g>
<g>
</g>
<g>
</g>
<g>
</g>
</svg>
