<?xml version="1.0" encoding="iso-8859-1"?>
<!-- Generator: Adobe Illustrator 19.0.0, SVG Export Plug-In . SVG Version: 6.00 Build 0)  -->
<svg version="1.1" id="Capa_1" xmlns="http://www.w3.org/2000/svg" xmlns:xlink="http://www.w3.org/1999/xlink" x="0px" y="0px"
	 viewBox="0 0 512 512" style="enable-background:new 0 0 512 512;" xml:space="preserve">
<g>
	<rect x="185.379" y="414.897" style="fill:#BDC3C7;" width="141.241" height="88.276"/>
	<path style="fill:#46B29D;" d="M512,35.31v361.931H0L0,35.31c-0.003-9.366,3.717-18.349,10.339-24.971S25.945-0.003,35.31,0H476.69
		c9.366-0.003,18.349,3.717,24.971,10.339C508.283,16.962,512.003,25.945,512,35.31z"/>
	<g>
		<path style="fill:#95A5A5;" d="M512,370.759v35.31c0.003,9.366-3.717,18.348-10.339,24.971
			c-6.623,6.622-15.605,10.342-24.971,10.339H35.31c-9.366,0.003-18.348-3.717-24.971-10.339C3.717,424.417-0.003,415.435,0,406.069
			l0-35.31H512z"/>
		<rect x="114.759" y="476.69" style="fill:#95A5A5;" width="282.483" height="35.31"/>
	</g>
	<g>
		<path style="fill:#7F5B53;" d="M61.793,256h167.724c4.875,0,8.828,3.952,8.828,8.828v35.31c0,4.875-3.952,8.828-8.828,8.828
			H61.793c-4.875,0-8.828-3.952-8.828-8.828v-35.31C52.966,259.952,56.918,256,61.793,256z"/>
		<path style="fill:#7F5B53;" d="M282.483,185.379h167.724c4.875,0,8.828,3.952,8.828,8.828v35.31c0,4.875-3.952,8.828-8.828,8.828
			H282.483c-4.875,0-8.828-3.952-8.828-8.828v-35.31C273.655,189.332,277.607,185.379,282.483,185.379z"/>
	</g>
	<g>
		<circle style="fill:#F3D55B;" cx="150.069" cy="194.207" r="17.655"/>
		<circle style="fill:#F3D55B;" cx="176.552" cy="123.586" r="17.655"/>
		<circle style="fill:#F3D55B;" cx="238.345" cy="88.276" r="17.655"/>
		<circle style="fill:#F3D55B;" cx="308.966" cy="97.103" r="17.655"/>
	</g>
</g>
<g>
</g>
<g>
</g>
<g>
</g>
<g>
</g>
<g>
</g>
<g>
</g>
<g>
</g>
<g>
</g>
<g>
</g>
<g>
</g>
<g>
</g>
<g>
</g>
<g>
</g>
<g>
</g>
<g>
</g>
</svg>
