<?xml version="1.0" encoding="iso-8859-1"?>
<!-- Generator: Adobe Illustrator 19.0.0, SVG Export Plug-In . SVG Version: 6.00 Build 0)  -->
<svg version="1.1" id="Capa_1" xmlns="http://www.w3.org/2000/svg" xmlns:xlink="http://www.w3.org/1999/xlink" x="0px" y="0px"
	 viewBox="0 0 512.016 512.016" style="enable-background:new 0 0 512.016 512.016;" xml:space="preserve">
<g>
	<path style="fill:#7F8C8D;" d="M388.422,379.586c-4.875,0-8.828-3.952-8.828-8.828v-35.31c0.04-36.549,29.658-66.167,66.207-66.207
		c26.801-0.032,48.52-21.751,48.552-48.552v-4.414c-0.032-26.801-21.751-48.52-48.552-48.552h-92.69
		c-4.875,0-8.828-3.952-8.828-8.828s3.952-8.828,8.828-8.828h92.69c36.549,0.04,66.167,29.658,66.207,66.207v4.414
		c-0.04,36.549-29.658,66.167-66.207,66.207c-26.801,0.032-48.52,21.751-48.552,48.552v35.31
		C397.249,375.634,393.297,379.586,388.422,379.586z"/>
	<g>
		<path style="fill:#4482C3;" d="M501.282,421.478l5.785,61.096c1.249,13.961-8.394,26.556-22.197,28.993
			c-13.451,2.423-26.628-5.446-30.873-18.437l-15.979-52.275H331.371l-15.978,52.274c-4.257,13.164-17.696,21.056-31.267,18.36
			c-13.57-2.696-22.973-15.125-21.875-28.917l5.712-59.433c-11.449-14.229-13.718-33.765-5.835-50.24
			c7.883-16.475,24.518-26.965,42.782-26.979c13.491-0.042,26.347,5.728,35.283,15.834h87.63
			c8.937-10.107,21.792-15.876,35.283-15.834c17.893-0.006,34.266,10.061,42.335,26.032
			C513.511,387.924,511.902,407.077,501.282,421.478L501.282,421.478z"/>
		<path style="fill:#4482C3;" d="M336.867,440.855h31.307c0.04,5.619-2.935,10.828-7.794,13.65c-4.86,2.821-10.859,2.821-15.718,0
			C339.801,451.683,336.827,446.474,336.867,440.855z"/>
		<path style="fill:#4482C3;" d="M431.439,440.855c0.04,5.619-2.935,10.828-7.794,13.65c-4.86,2.821-10.859,2.821-15.718,0
			c-4.86-2.821-7.834-8.03-7.794-13.65H431.439z"/>
	</g>
	<g>
		<path style="fill:#285680;" d="M352.34,393.352c0,19.184-11.556,36.479-29.279,43.821c-17.724,7.341-38.124,3.284-51.69-10.281
			c-13.565-13.565-17.623-33.966-10.282-51.689c7.341-17.724,24.636-29.28,43.82-29.28
			C331.067,346.012,352.249,367.194,352.34,393.352z"/>
		<path style="fill:#285680;" d="M510.537,393.352c0.073,16.994-8.951,32.728-23.656,41.247c-14.705,8.518-32.844,8.518-47.549,0
			c-14.705-8.518-23.729-24.253-23.656-41.247c0.09-26.158,21.273-47.34,47.431-47.43
			C489.295,345.937,510.521,367.163,510.537,393.352z"/>
	</g>
	<path style="fill:#14A085;" d="M463.106,384.818c-0.945-0.01-1.878-0.206-2.747-0.579c-0.913-0.328-1.732-0.874-2.387-1.589
		c-0.652-0.68-1.19-1.461-1.592-2.313c-0.347-0.875-0.519-1.809-0.505-2.75c-0.033-1.926,0.725-3.781,2.097-5.133
		c1.337-1.379,3.175-2.158,5.096-2.158s3.759,0.778,5.096,2.158c1.387,1.333,2.171,3.174,2.171,5.098
		c0,1.924-0.784,3.765-2.171,5.098c-0.641,0.697-1.432,1.241-2.313,1.589C464.984,384.611,464.051,384.808,463.106,384.818z"/>
	<path style="fill:#CC66A1;" d="M447.272,400.581c-1.923,0.019-3.773-0.737-5.133-2.097c-1.333-1.378-2.084-3.216-2.097-5.133
		c0.014-1.896,0.766-3.712,2.097-5.063c2.886-2.71,7.381-2.71,10.266,0c1.329,1.352,2.081,3.167,2.097,5.063
		c-0.015,1.917-0.766,3.754-2.097,5.133C451.038,399.833,449.193,400.587,447.272,400.581z"/>
	<path style="fill:#F29C1F;" d="M478.94,400.581c-1.926,0.033-3.781-0.725-5.133-2.097c-0.697-0.642-1.241-1.433-1.592-2.313
		c-0.347-0.899-0.519-1.857-0.505-2.821c-0.019-1.902,0.739-3.73,2.097-5.063c2.857-2.71,7.335-2.71,10.192,0
		c1.38,1.323,2.164,3.15,2.172,5.063c-0.012,0.969-0.208,1.926-0.579,2.821c-0.376,0.867-0.917,1.652-1.592,2.313
		C482.668,399.843,480.841,400.6,478.94,400.581z"/>
	<path style="fill:#2FA8CC;" d="M463.106,416.415c-0.948,0.025-1.889-0.173-2.747-0.579c-0.894-0.331-1.708-0.848-2.387-1.518
		c-0.67-0.693-1.209-1.502-1.592-2.387c-0.347-0.873-0.519-1.807-0.505-2.747c-0.024-2.418,1.175-4.685,3.188-6.027
		s4.566-1.576,6.789-0.624c0.863,0.35,1.649,0.866,2.313,1.518c1.388,1.347,2.171,3.199,2.171,5.133s-0.783,3.786-2.171,5.133
		c-0.664,0.653-1.45,1.169-2.313,1.518C464.995,416.242,464.054,416.44,463.106,416.415z"/>
	<path style="fill:#BDC3C7;" d="M320.744,386.149h-8.586v-8.586c0-3.993-3.237-7.23-7.23-7.23c-3.993,0-7.23,3.237-7.23,7.23v8.586
		h-8.586c-3.993,0-7.23,3.237-7.23,7.23s3.237,7.23,7.23,7.23h8.586v8.586c0,3.993,3.237,7.23,7.23,7.23
		c3.993,0,7.23-3.237,7.23-7.23v-8.586h8.586c3.993,0,7.23-3.237,7.23-7.23S324.737,386.149,320.744,386.149z"/>
	<g>
		<path style="fill:#285680;" d="M437.916,444.483c-0.136,11.844-9.829,21.346-21.673,21.246
			c-11.845-0.1-21.376-9.764-21.312-21.608s9.698-21.405,21.543-21.378c3.58,0.017,7.097,0.939,10.225,2.68
			C433.647,429.242,437.951,436.555,437.916,444.483z"/>
		<path style="fill:#285680;" d="M372.686,444.483c-0.136,11.844-9.829,21.346-21.673,21.246
			c-11.845-0.1-21.376-9.764-21.312-21.608s9.698-21.406,21.543-21.378c3.58,0.017,7.097,0.939,10.225,2.68
			C368.417,429.242,372.721,436.555,372.686,444.483z"/>
	</g>
	<path style="fill:#35495E;" d="M370.767,17.655v229.517H0.008V17.655C0.036,7.916,7.924,0.028,17.663,0h335.448
		C362.85,0.028,370.738,7.916,370.767,17.655z"/>
	<path style="fill:#F29C1F;" d="M238.353,194.207v35.31h-70.621v-26.483c0.015-4.869,3.958-8.813,8.828-8.828H238.353z"/>
	<path style="fill:#2FA8CC;" d="M203.042,123.586v70.621H176.56c-4.869,0.015-8.813,3.958-8.828,8.828v26.483h-35.31v-61.793
		c0.015-4.869,3.958-8.813,8.828-8.828h17.655c4.869-0.015,8.813-3.958,8.828-8.828v-17.655c0.015-4.869,3.958-8.813,8.828-8.828
		H203.042z"/>
	<path style="fill:#CC66A1;" d="M238.353,88.276v105.931h-35.31V88.276c0.015-4.869,3.958-8.813,8.828-8.828h17.655
		C234.395,79.463,238.338,83.407,238.353,88.276z"/>
	<path style="fill:#14A085;" d="M185.387,0v35.31c0,4.875-3.952,8.828-8.828,8.828h-8.828c-4.875,0-8.828,3.952-8.828,8.828v17.655
		c0,4.875-3.952,8.828-8.828,8.828h-17.655c-4.875,0-8.828-3.952-8.828-8.828V0"/>
	<rect x="141.249" y="247.172" style="fill:#BDC3C7;" width="88.276" height="70.621"/>
	<g>
		<path style="fill:#95A5A5;" d="M370.767,229.517v17.655c-0.029,9.739-7.916,17.627-17.655,17.655H17.663
			c-9.739-0.029-17.627-7.916-17.655-17.655v-17.655H370.767z"/>
		<path style="fill:#95A5A5;" d="M132.422,300.138h105.931c9.751,0,17.655,7.904,17.655,17.655l0,0
			c0,9.751-7.904,17.655-17.655,17.655H132.422c-9.751,0-17.655-7.905-17.655-17.655l0,0
			C114.767,308.042,122.671,300.138,132.422,300.138z"/>
	</g>
</g>
<g>
</g>
<g>
</g>
<g>
</g>
<g>
</g>
<g>
</g>
<g>
</g>
<g>
</g>
<g>
</g>
<g>
</g>
<g>
</g>
<g>
</g>
<g>
</g>
<g>
</g>
<g>
</g>
<g>
</g>
</svg>
