<?xml version="1.0" encoding="iso-8859-1"?>
<!-- Generator: Adobe Illustrator 19.0.0, SVG Export Plug-In . SVG Version: 6.00 Build 0)  -->
<svg version="1.1" id="Capa_1" xmlns="http://www.w3.org/2000/svg" xmlns:xlink="http://www.w3.org/1999/xlink" x="0px" y="0px"
	 viewBox="0 0 504.364 504.364" style="enable-background:new 0 0 504.364 504.364;" xml:space="preserve">
<g transform="translate(-1)">
	<path style="fill:#4482C3;" d="M485.229,327.073l-0.091,0.013c30.299-39.463,25.191-95.583-11.735-128.927
		s-93.274-32.72-129.452,1.434H162.582c-36.168-34.211-92.562-34.863-129.511-1.496S-8.96,287.632,21.399,327.09l-0.118-0.017
		L10.52,445.527c-2.544,27.797,16.541,52.942,43.997,57.969c3.177,0.586,6.402,0.877,9.633,0.868
		c23.597-0.016,44.459-15.329,51.547-37.836l36.881-119.843v-0.087l-0.045-0.006c8.033-5.702,15.14-12.607,21.069-20.474
		c-4.647,6.011-7.151,13.403-7.116,21.001c0,19.171,15.541,34.712,34.712,34.712s34.712-15.541,34.712-34.712h34.712
		c0,19.171,15.541,34.712,34.712,34.712s34.712-15.541,34.712-34.712c0.035-7.598-2.469-14.989-7.116-21.001
		c5.929,7.865,13.034,14.77,21.065,20.471l-0.064,0.009v0.087l36.881,119.843c7.088,22.507,27.95,37.82,51.547,37.836
		c3.231,0.009,6.455-0.282,9.633-0.868c27.457-5.027,46.542-30.172,43.997-57.969L485.229,327.073z"/>
	<g>
		<path style="fill:#285680;" d="M192.521,269.017c0.029,20.133-6.32,39.759-18.137,56.06l-0.781,1.041
			c-28.006,37.599-79.156,49.321-120.739,27.669S-8.447,283.508,6.297,239.004s59.603-71.733,105.889-64.273
			S192.505,222.134,192.521,269.017z"/>
		<path style="fill:#285680;" d="M504.928,269.017c-0.012,41.132-26.364,77.634-65.401,90.594
			c-39.037,12.96-81.987-0.535-106.596-33.493l-0.781-1.041c-24.269-33.477-24.231-78.771,0.094-112.208
			c24.325-33.436,67.408-47.415,106.73-34.63C478.295,191.025,504.919,227.668,504.928,269.017z"/>
	</g>
	<g>
		<path style="fill:#BDC3C7;" d="M235.911,242.983h-17.356c-4.793,0-8.678-3.885-8.678-8.678s3.885-8.678,8.678-8.678h17.356
			c4.793,0,8.678,3.885,8.678,8.678S240.703,242.983,235.911,242.983z"/>
		<path style="fill:#BDC3C7;" d="M287.979,242.983h-17.356c-4.793,0-8.678-3.885-8.678-8.678s3.885-8.678,8.678-8.678h17.356
			c4.793,0,8.678,3.885,8.678,8.678S292.771,242.983,287.979,242.983z"/>
		<path style="fill:#BDC3C7;" d="M142.935,251.661h-28.516v-28.516c-0.002-3.421-2.775-6.194-6.196-6.196h-22.32
			c-3.421,0.002-6.194,2.775-6.196,6.196v28.516H51.192c-3.421,0.002-6.194,2.775-6.196,6.196v22.32
			c0.002,3.421,2.775,6.194,6.196,6.196h28.516v28.516c0.002,3.421,2.775,6.194,6.196,6.196h22.32
			c3.421-0.002,6.194-2.775,6.196-6.196v-28.516h28.516c3.421-0.002,6.194-2.775,6.196-6.196v-22.32
			C149.129,254.436,146.356,251.663,142.935,251.661z"/>
	</g>
	<circle style="fill:#14A085;" cx="409.47" cy="225.627" r="17.356"/>
	<circle style="fill:#2FA8CC;" cx="409.47" cy="312.407" r="17.356"/>
	<circle style="fill:#F29C1F;" cx="452.86" cy="269.017" r="17.356"/>
	<circle style="fill:#CC66A1;" cx="366.08" cy="269.017" r="17.356"/>
	<g>
		<path style="fill:#285680;" d="M235.911,347.119c0,19.171-15.541,34.712-34.712,34.712s-34.712-15.541-34.712-34.712
			c-0.035-7.598,2.469-14.989,7.116-21.001l0.781-1.041c9.307-11.323,24.724-15.579,38.522-10.636
			C226.704,319.384,235.911,332.462,235.911,347.119z"/>
		<path style="fill:#285680;" d="M340.046,347.119c0,16.879-12.141,31.311-28.77,34.2c-16.63,2.889-32.927-6.602-38.62-22.492
			c-5.693-15.89,0.869-33.571,15.55-41.899c14.681-8.328,33.225-4.889,43.943,8.149l0.781,1.041
			C337.577,332.129,340.082,339.521,340.046,347.119z"/>
	</g>
	<g>
		<path style="fill:#5E5F62;" d="M97.063,225.627c-4.793,0-8.678-3.885-8.678-8.678V60.746c0-4.793,3.885-8.678,8.678-8.678
			s8.678,3.885,8.678,8.678v156.203C105.741,221.742,101.856,225.627,97.063,225.627z"/>
		<path style="fill:#5E5F62;" d="M409.47,216.441c-4.793,0-8.678-3.885-8.678-8.678V60.746c0-4.793,3.885-8.678,8.678-8.678
			s8.678,3.885,8.678,8.678v147.017C418.148,212.555,414.263,216.44,409.47,216.441z"/>
		<path style="fill:#5E5F62;" d="M279.301,234.305c-4.793,0-8.678-3.885-8.678-8.678v-69.424c0-4.793,3.885-8.678,8.678-8.678
			c4.793,0,8.678,3.885,8.678,8.678v69.424C287.979,230.42,284.093,234.305,279.301,234.305z"/>
	</g>
	<g>
		<path style="fill:#A5A5A4;" d="M10.284,0h130.169c4.793,0,8.678,3.885,8.678,8.678v52.068c0,4.793-3.885,8.678-8.678,8.678H10.284
			c-4.793,0-8.678-3.885-8.678-8.678V8.678C1.606,3.885,5.491,0,10.284,0z"/>
		<path style="fill:#A5A5A4;" d="M322.69,0H452.86c4.793,0,8.678,3.885,8.678,8.678v52.068c0,4.793-3.885,8.678-8.678,8.678H322.69
			c-4.793,0-8.678-3.885-8.678-8.678V8.678C314.012,3.885,317.898,0,322.69,0z"/>
		<path style="fill:#A5A5A4;" d="M175.165,95.458h130.169c4.793,0,8.678,3.885,8.678,8.678v52.068c0,4.793-3.885,8.678-8.678,8.678
			H175.165c-4.793,0-8.678-3.885-8.678-8.678v-52.068C166.487,99.343,170.372,95.458,175.165,95.458z"/>
	</g>
	<g>
		<path style="fill:#D1D4D1;" d="M44.995,43.39h-8.678c-4.793,0-8.678-3.885-8.678-8.678s3.885-8.678,8.678-8.678h8.678
			c4.793,0,8.678,3.885,8.678,8.678S49.788,43.39,44.995,43.39z"/>
		<path style="fill:#D1D4D1;" d="M114.419,43.39H79.707c-4.793,0-8.678-3.885-8.678-8.678s3.885-8.678,8.678-8.678h34.712
			c4.793,0,8.678,3.885,8.678,8.678S119.212,43.39,114.419,43.39z"/>
		<path style="fill:#D1D4D1;" d="M357.402,43.39h-8.678c-4.793,0-8.678-3.885-8.678-8.678s3.885-8.678,8.678-8.678h8.678
			c4.793,0,8.678,3.885,8.678,8.678S362.195,43.39,357.402,43.39z"/>
		<path style="fill:#D1D4D1;" d="M426.826,43.39h-34.712c-4.793,0-8.678-3.885-8.678-8.678s3.885-8.678,8.678-8.678h34.712
			c4.793,0,8.678,3.885,8.678,8.678S431.619,43.39,426.826,43.39z"/>
		<path style="fill:#D1D4D1;" d="M209.877,138.847h-8.678c-4.793,0-8.678-3.885-8.678-8.678c0-4.793,3.885-8.678,8.678-8.678h8.678
			c4.793,0,8.678,3.885,8.678,8.678C218.555,134.962,214.67,138.847,209.877,138.847z"/>
		<path style="fill:#D1D4D1;" d="M279.301,138.847h-34.712c-4.793,0-8.678-3.885-8.678-8.678c0-4.793,3.885-8.678,8.678-8.678
			h34.712c4.793,0,8.678,3.885,8.678,8.678C287.979,134.962,284.093,138.847,279.301,138.847z"/>
	</g>
</g>
<g>
</g>
<g>
</g>
<g>
</g>
<g>
</g>
<g>
</g>
<g>
</g>
<g>
</g>
<g>
</g>
<g>
</g>
<g>
</g>
<g>
</g>
<g>
</g>
<g>
</g>
<g>
</g>
<g>
</g>
</svg>
