<?xml version="1.0" encoding="iso-8859-1"?>
<!-- Generator: Adobe Illustrator 19.0.0, SVG Export Plug-In . SVG Version: 6.00 Build 0)  -->
<svg version="1.1" id="Capa_1" xmlns="http://www.w3.org/2000/svg" xmlns:xlink="http://www.w3.org/1999/xlink" x="0px" y="0px"
	 viewBox="0 0 512 512" style="enable-background:new 0 0 512 512;" xml:space="preserve">
<g>
	<path style="fill:#BDC3C7;" d="M512,212.792v91.012c-0.31,9.45-8.204,16.87-17.655,16.596h-256V196.284h256
		C503.766,196.001,511.65,203.373,512,212.792z"/>
	<polygon style="fill:#D75E72;" points="264.828,196.284 264.828,320.4 116.877,320.4 114.759,196.284 	"/>
	<path style="fill:#FB7B76;" d="M229.517,240.422c-2.348,0.023-4.607-0.9-6.267-2.56c-1.66-1.66-2.583-3.919-2.56-6.267
		c0.012-1.154,0.251-2.295,0.703-3.358c0.406-1.09,1.039-2.082,1.857-2.91c2.063-2.142,5.077-3.082,7.992-2.492
		c2.915,0.589,5.327,2.627,6.396,5.402c0.496,1.049,0.738,2.199,0.707,3.358c0.023,2.348-0.9,4.607-2.56,6.267
		C234.124,239.522,231.865,240.445,229.517,240.422z"/>
	<path style="fill:#E6E7E8;" d="M344.276,240.422h-44.138c-4.875,0-8.828-3.952-8.828-8.828c0-4.875,3.952-8.828,8.828-8.828h44.138
		c4.875,0,8.828,3.952,8.828,8.828C353.103,236.47,349.151,240.422,344.276,240.422z"/>
	<path style="fill:#CC4B4C;" d="M177.577,264.908l-80.465,86.118l-80.465-86.118c-22.195-24.416-22.195-61.702,0-86.118
		c10.305-11.335,24.913-17.798,40.233-17.798s29.928,6.462,40.233,17.798c10.299-11.346,24.91-17.816,40.233-17.816
		s29.934,6.47,40.233,17.816C199.75,203.214,199.75,240.483,177.577,264.908z"/>
	<path style="fill:#FB7B76;" d="M35.741,231.595c-4.198-0.003-7.812-2.963-8.642-7.078c-1.842-9.088,0.492-18.524,6.359-25.705
		s14.648-11.349,23.921-11.356c4.875,0,8.828,3.952,8.828,8.828c0,4.875-3.952,8.828-8.828,8.828
		c-7.31,0.008-13.233,5.932-13.241,13.241c-0.001,0.894,0.088,1.787,0.263,2.664c0.523,2.596-0.146,5.291-1.824,7.34
		C40.899,230.406,38.39,231.595,35.741,231.595z"/>
</g>
<g>
</g>
<g>
</g>
<g>
</g>
<g>
</g>
<g>
</g>
<g>
</g>
<g>
</g>
<g>
</g>
<g>
</g>
<g>
</g>
<g>
</g>
<g>
</g>
<g>
</g>
<g>
</g>
<g>
</g>
</svg>
