<?xml version="1.0" encoding="iso-8859-1"?>
<!-- Generator: Adobe Illustrator 19.0.0, SVG Export Plug-In . SVG Version: 6.00 Build 0)  -->
<svg version="1.1" id="Capa_1" xmlns="http://www.w3.org/2000/svg" xmlns:xlink="http://www.w3.org/1999/xlink" x="0px" y="0px"
	 viewBox="0 0 512 512" style="enable-background:new 0 0 512 512;" xml:space="preserve">
<g>
	<path style="fill:#D75E72;" d="M341.363,154.174c-0.088,0.177,0,0.265,0,0.441c-0.088,0.101-0.088,0.252,0,0.353
		c-0.214,13.362-5.445,26.155-14.654,35.84l-60.381,63.382c19.509-12.013,44.787-8.576,60.381,8.21
		c9.328,9.743,14.544,22.705,14.566,36.193v0.265c-0.019,0.326,0.011,0.653,0.088,0.971c-0.088,0.177,0,0.265,0,0.441
		c-0.088,0.101-0.088,0.252,0,0.353c-0.214,13.362-5.445,26.155-14.654,35.84L256,410.615l-70.709-74.152
		c-9.386-9.891-14.63-22.999-14.654-36.634v-0.706c0.023-13.662,5.265-26.798,14.654-36.723c9.19-9.763,21.991-15.317,35.399-15.36
		c8.83,0.017,17.48,2.493,24.982,7.15l-60.381-63.382c-9.386-9.891-14.63-22.999-14.654-36.634v-0.706
		c-0.009-13.668,5.238-26.816,14.654-36.723c9.147-9.798,21.95-15.36,35.354-15.36c13.404,0,26.207,5.562,35.354,15.36
		c9.148-9.797,21.951-15.36,35.354-15.36c13.404,0,26.207,5.562,35.354,15.36c9.328,9.743,14.544,22.705,14.566,36.193v0.265
		C341.256,153.529,341.286,153.856,341.363,154.174z"/>
	<path id="SVGCleanerId_0" style="fill:#D75E72;" d="M341.363,153.82v0.353c-0.077-0.318-0.107-0.645-0.088-0.971
		C341.347,153.4,341.377,153.611,341.363,153.82z"/>
	<path style="fill:#D75E72;" d="M497.346,262.4c19.538,20.822,19.538,53.241,0,74.063l-70.709,74.152l-70.709-74.152
		c-9.199-9.684-14.401-22.485-14.566-35.84c-0.088-0.101-0.088-0.252,0-0.353c0-0.177-0.088-0.265,0-0.441v-0.353
		c0.014-0.21-0.016-0.42-0.088-0.618v-0.265c0.153-13.479,5.386-26.405,14.654-36.193c9.19-9.763,21.991-15.317,35.399-15.36
		c8.837-0.037,17.503,2.443,24.982,7.15l-60.381-63.382c-9.199-9.684-14.401-22.485-14.566-35.84c-0.088-0.101-0.088-0.252,0-0.353
		c0-0.177-0.088-0.265,0-0.441v-0.353c0.014-0.21-0.016-0.42-0.088-0.618v-0.265c0.136-13.482,5.372-26.413,14.654-36.193
		c9.147-9.798,21.95-15.36,35.354-15.36s26.207,5.562,35.354,15.36c9.147-9.797,21.951-15.36,35.354-15.36
		c13.404,0,26.207,5.562,35.354,15.36c19.538,20.822,19.538,53.241,0,74.063l-60.381,63.382
		C456.475,242.177,481.753,245.614,497.346,262.4z"/>
	<g>
		<path id="SVGCleanerId_0_1_" style="fill:#D75E72;" d="M341.363,153.82v0.353c-0.077-0.318-0.107-0.645-0.088-0.971
			C341.347,153.4,341.377,153.611,341.363,153.82z"/>
	</g>
	<path style="fill:#D75E72;" d="M156.072,190.808L95.691,254.19c19.509-12.013,44.787-8.576,60.381,8.21
		c9.414,9.902,14.633,23.061,14.566,36.723v0.706c0.05,13.633-5.168,26.758-14.566,36.634l-70.709,74.152l-70.709-74.152
		c-19.509-20.834-19.509-53.23,0-74.063c9.156-9.759,21.928-15.315,35.31-15.36c8.858,0.017,17.537,2.492,25.07,7.15l-60.381-63.382
		c-19.509-20.834-19.509-53.23,0-74.063c9.147-9.798,21.95-15.36,35.354-15.36s26.207,5.562,35.354,15.36
		c9.148-9.797,21.951-15.36,35.354-15.36s26.207,5.562,35.354,15.36c9.414,9.902,14.633,23.061,14.566,36.723v0.706
		C170.688,167.806,165.469,180.932,156.072,190.808z"/>
	<path id="SVGCleanerId_1" style="fill:#D75E72;" d="M341.363,299.476v0.353c-0.077-0.318-0.107-0.645-0.088-0.971
		C341.347,299.055,341.377,299.266,341.363,299.476z"/>
	<g>
		<path id="SVGCleanerId_1_1_" style="fill:#D75E72;" d="M341.363,299.476v0.353c-0.077-0.318-0.107-0.645-0.088-0.971
			C341.347,299.055,341.377,299.266,341.363,299.476z"/>
	</g>
	<g>
		<path style="fill:#CC4B4C;" d="M156.052,190.842L85.34,264.96l-70.712-74.118c-19.505-20.856-19.505-53.262,0-74.118
			c9.162-9.773,21.96-15.318,35.356-15.318s26.194,5.545,35.356,15.318c9.157-9.782,21.957-15.333,35.356-15.333
			s26.199,5.551,35.356,15.333C175.537,137.588,175.537,169.977,156.052,190.842z"/>
		<path style="fill:#CC4B4C;" d="M326.718,190.842l-70.712,74.118l-70.712-74.118c-19.505-20.856-19.505-53.262,0-74.118
			c9.162-9.773,21.96-15.318,35.356-15.318c13.396,0,26.194,5.545,35.356,15.318c9.157-9.782,21.957-15.333,35.356-15.333
			c13.399,0,26.199,5.551,35.356,15.333C346.203,137.588,346.203,169.977,326.718,190.842z"/>
		<path style="fill:#CC4B4C;" d="M497.385,190.842l-70.712,74.118l-70.712-74.118c-19.505-20.856-19.505-53.262,0-74.118
			c9.162-9.773,21.96-15.318,35.356-15.318c13.396,0,26.194,5.545,35.356,15.318c9.157-9.782,21.957-15.333,35.356-15.333
			c13.399,0,26.199,5.551,35.356,15.333C516.869,137.588,516.869,169.977,497.385,190.842L497.385,190.842z"/>
	</g>
	<g>
		<path style="fill:#FB7B76;" d="M36.241,167.986c-4.28-0.004-7.941-3.078-8.685-7.293c-0.302-1.725-0.453-3.473-0.453-5.224
			c0.048-9.739,4.73-18.873,12.608-24.599c3.937-2.873,9.459-2.011,12.332,1.927c2.873,3.937,2.011,9.459-1.927,12.332
			c-3.35,2.38-5.346,6.231-5.358,10.341c-0.002,0.724,0.06,1.447,0.185,2.159c0.844,4.8-2.36,9.376-7.159,10.224
			C37.275,167.941,36.759,167.986,36.241,167.986z"/>
		<path style="fill:#FB7B76;" d="M206.905,167.986c-4.293-0.005-7.96-3.097-8.69-7.328c-0.298-1.714-0.448-3.45-0.448-5.19
			c0.051-9.737,4.73-18.87,12.603-24.599c2.547-1.864,5.895-2.226,8.782-0.951c2.887,1.276,4.873,3.995,5.21,7.133
			c0.337,3.138-1.027,6.217-3.578,8.076c-3.352,2.379-5.349,6.23-5.362,10.341c0.002,0.734,0.065,1.466,0.19,2.189
			c0.399,2.307-0.136,4.678-1.486,6.591c-1.35,1.913-3.405,3.211-5.713,3.608C207.915,167.942,207.411,167.985,206.905,167.986z"/>
		<path style="fill:#FB7B76;" d="M377.574,167.986c-4.28-0.004-7.941-3.078-8.685-7.293c-0.302-1.725-0.453-3.473-0.453-5.224
			c0.048-9.739,4.729-18.873,12.607-24.599c2.547-1.859,5.892-2.217,8.775-0.941s4.866,3.994,5.203,7.129s-1.026,6.212-3.573,8.07
			c-3.35,2.38-5.345,6.231-5.358,10.341c-0.002,0.724,0.06,1.447,0.185,2.159c0.844,4.8-2.36,9.376-7.159,10.224
			C378.607,167.941,378.091,167.986,377.574,167.986z"/>
		<path style="fill:#FB7B76;" d="M36.241,313.382c-4.28-0.004-7.941-3.078-8.685-7.293c-0.302-1.725-0.453-3.473-0.453-5.224
			c0.048-9.739,4.73-18.873,12.608-24.599c3.937-2.873,9.459-2.011,12.332,1.927c2.873,3.937,2.011,9.459-1.927,12.332
			c-3.35,2.38-5.346,6.231-5.358,10.34c-0.002,0.724,0.06,1.447,0.185,2.159c0.844,4.8-2.36,9.376-7.159,10.224
			C37.275,313.337,36.759,313.382,36.241,313.382z"/>
		<path style="fill:#FB7B76;" d="M206.905,313.382c-4.293-0.005-7.96-3.097-8.69-7.328c-0.298-1.714-0.448-3.45-0.448-5.19
			c0.051-9.737,4.73-18.87,12.603-24.599c2.547-1.86,5.893-2.22,8.778-0.945c2.885,1.276,4.869,3.993,5.207,7.129
			c0.337,3.136-1.024,6.214-3.571,8.074c-3.352,2.379-5.349,6.23-5.362,10.34c0.002,0.734,0.065,1.466,0.19,2.189
			c0.399,2.307-0.136,4.678-1.486,6.591c-1.35,1.913-3.405,3.211-5.712,3.608C207.916,313.338,207.411,313.381,206.905,313.382z"/>
		<path style="fill:#FB7B76;" d="M377.574,313.382c-4.28-0.004-7.941-3.078-8.685-7.293c-0.302-1.725-0.453-3.473-0.453-5.224
			c0.048-9.739,4.729-18.873,12.607-24.599c3.937-2.873,9.459-2.011,12.332,1.927c2.873,3.937,2.011,9.459-1.927,12.332
			c-3.35,2.38-5.345,6.231-5.358,10.34c-0.002,0.724,0.06,1.447,0.185,2.159c0.844,4.8-2.36,9.376-7.159,10.224
			C378.607,313.337,378.091,313.382,377.574,313.382z"/>
	</g>
</g>
<g>
</g>
<g>
</g>
<g>
</g>
<g>
</g>
<g>
</g>
<g>
</g>
<g>
</g>
<g>
</g>
<g>
</g>
<g>
</g>
<g>
</g>
<g>
</g>
<g>
</g>
<g>
</g>
<g>
</g>
</svg>
